<?xml version="1.0" encoding="us-ascii" standalone="no"?><svg xmlns="http://www.w3.org/2000/svg" xmlns:xlink="http://www.w3.org/1999/xlink" contentStyleType="text/css" height="704px" preserveAspectRatio="none" style="width:749px;height:704px;background:#DDDDDD;" version="1.1" viewBox="0 0 749 704" width="749px" zoomAndPan="magnify"><defs/><g><rect fill="#DDDDDD" height="704" style="stroke:none;stroke-width:1.0;" width="749" x="0" y="0"/><rect fill="#FFFFFF" height="426.123" style="stroke:#454645;stroke-width:1.0;" width="10" x="349" y="215.6582"/><rect fill="#FFFFFF" height="68.582" style="stroke:#454645;stroke-width:1.0;" width="10" x="354" y="254.9492"/><rect fill="#FFFFFF" height="53.9219" style="stroke:#454645;stroke-width:1.0;" width="10" x="354" y="424.4043"/><rect fill="#FFFFFF" height="93.873" style="stroke:#454645;stroke-width:1.0;" width="10" x="598" y="516.6172"/><rect fill="#FFFFFF" height="31.291" style="stroke:#454645;stroke-width:1.0;" width="10" x="696" y="361.8223"/><rect fill="#FFFFFF" height="31.291" style="stroke:#454645;stroke-width:1.0;" width="10" x="696" y="547.9082"/><rect fill="none" height="374.832" rx="3.5" ry="3.5" style="stroke:#454645;stroke-width:1.0;" width="731.5" x="11" y="274.9492"/><line style="stroke:#454645;stroke-width:0.5;stroke-dasharray:5.0,5.0;" x1="353.5" x2="353.5" y1="38.6211" y2="666.7813"/><line style="stroke:#454645;stroke-width:0.5;stroke-dasharray:5.0,5.0;" x1="602.5" x2="602.5" y1="38.6211" y2="666.7813"/><line style="stroke:#454645;stroke-width:0.5;stroke-dasharray:5.0,5.0;" x1="700.5" x2="700.5" y1="38.6211" y2="666.7813"/><rect fill="#FF6F61" height="32.6211" rx="3.5" ry="3.5" style="stroke:#454645;stroke-width:1.5;" width="113" x="297.5" y="5"/><text fill="#FFFFFF" font-family="sans-serif" font-size="14" lengthAdjust="spacing" textLength="99" x="304.5" y="27.1074">S2:Subscription</text><rect fill="#FF6F61" height="32.6211" rx="3.5" ry="3.5" style="stroke:#454645;stroke-width:1.5;" width="113" x="297.5" y="665.7813"/><text fill="#FFFFFF" font-family="sans-serif" font-size="14" lengthAdjust="spacing" textLength="99" x="304.5" y="687.8887">S2:Subscription</text><rect fill="#FF6F61" height="32.6211" rx="3.5" ry="3.5" style="stroke:#454645;stroke-width:1.5;" width="113" x="546.5" y="5"/><text fill="#FFFFFF" font-family="sans-serif" font-size="14" lengthAdjust="spacing" textLength="99" x="553.5" y="27.1074">S1:Subscription</text><rect fill="#FF6F61" height="32.6211" rx="3.5" ry="3.5" style="stroke:#454645;stroke-width:1.5;" width="113" x="546.5" y="665.7813"/><text fill="#FFFFFF" font-family="sans-serif" font-size="14" lengthAdjust="spacing" textLength="99" x="553.5" y="687.8887">S1:Subscription</text><rect fill="#FF6F61" height="32.6211" rx="3.5" ry="3.5" style="stroke:#454645;stroke-width:1.5;" width="63" x="669.5" y="5"/><text fill="#FFFFFF" font-family="sans-serif" font-size="14" lengthAdjust="spacing" textLength="49" x="676.5" y="27.1074">P?:Plan</text><rect fill="#FF6F61" height="32.6211" rx="3.5" ry="3.5" style="stroke:#454645;stroke-width:1.5;" width="63" x="669.5" y="665.7813"/><text fill="#FFFFFF" font-family="sans-serif" font-size="14" lengthAdjust="spacing" textLength="49" x="676.5" y="687.8887">P?:Plan</text><rect fill="#FFFFFF" height="426.123" style="stroke:#454645;stroke-width:1.0;" width="10" x="349" y="215.6582"/><rect fill="#FFFFFF" height="68.582" style="stroke:#454645;stroke-width:1.0;" width="10" x="354" y="254.9492"/><rect fill="#FFFFFF" height="53.9219" style="stroke:#454645;stroke-width:1.0;" width="10" x="354" y="424.4043"/><rect fill="#FFFFFF" height="93.873" style="stroke:#454645;stroke-width:1.0;" width="10" x="598" y="516.6172"/><rect fill="#FFFFFF" height="31.291" style="stroke:#454645;stroke-width:1.0;" width="10" x="696" y="361.8223"/><rect fill="#FFFFFF" height="31.291" style="stroke:#454645;stroke-width:1.0;" width="10" x="696" y="547.9082"/><path d="M5,57.1211 L5,111.1211 A3.5,3.5 0 0 0 8.5,114.6211 L345.5,114.6211 A3.5,3.5 0 0 0 349,111.1211 L349,63.6211 L339,53.6211 L8.5,53.6211 A3.5,3.5 0 0 0 5,57.1211 " fill="#90EE90" style="stroke:#454645;stroke-width:1.0;"/><path d="M339,53.6211 L339,61.8711 A1.75,1.75 0 0 0 340.75,63.6211 L349,63.6211 L339,53.6211 " fill="#90EE90" style="stroke:#454645;stroke-width:1.0;"/><text fill="#454645" font-family="sans-serif" font-size="13" lengthAdjust="spacing" textLength="280" x="11" y="72.6494">The username that is used to get the information</text><text fill="#454645" font-family="sans-serif" font-size="13" lengthAdjust="spacing" textLength="119" x="11" y="89.9404">is extracted from the</text><text fill="#454645" font-family="sans-serif" font-size="13" font-weight="bold" lengthAdjust="spacing" textLength="67" x="134" y="89.9404">JWT token</text><text fill="#454645" font-family="sans-serif" font-size="13" lengthAdjust="spacing" textLength="133" x="201" y="89.9404">, so if the token is valid</text><text fill="#454645" font-family="sans-serif" font-size="13" lengthAdjust="spacing" textLength="256" x="11" y="107.2314">the subscriber exists in one of the instances</text><path d="M427,128.9941 L427,182.9941 A3.5,3.5 0 0 0 430.5,186.4941 L692.5,186.4941 A3.5,3.5 0 0 0 696,182.9941 L696,135.4941 L686,125.4941 L430.5,125.4941 A3.5,3.5 0 0 0 427,128.9941 " fill="#90EE90" style="stroke:#454645;stroke-width:1.0;"/><path d="M686,125.4941 L686,133.7441 A1.75,1.75 0 0 0 687.75,135.4941 L696,135.4941 L686,125.4941 " fill="#90EE90" style="stroke:#454645;stroke-width:1.0;"/><text fill="#454645" font-family="sans-serif" font-size="13" lengthAdjust="spacing" textLength="248" x="433" y="144.5225">Because a subscriptionJPA can not be created</text><text fill="#454645" font-family="sans-serif" font-size="13" lengthAdjust="spacing" textLength="236" x="433" y="161.8135">without a valid planJPA, the return of the planJPA</text><text fill="#454645" font-family="sans-serif" font-size="13" lengthAdjust="spacing" textLength="127" x="433" y="179.1045">will never be not found</text><ellipse cx="7.5" cy="214.9082" fill="none" rx="4" ry="4" style="stroke:#454645;stroke-width:1.5;"/><polygon fill="#454645" points="337,211.6582,347,215.6582,337,219.6582,341,215.6582" style="stroke:#454645;stroke-width:1.0;"/><line style="stroke:#454645;stroke-width:1.0;" x1="12" x2="343" y1="215.6582" y2="215.6582"/><text fill="#000000" font-family="sans-serif" font-size="13" font-weight="bold" lengthAdjust="spacing" textLength="7" x="15" y="210.3955">1</text><text fill="#000000" font-family="sans-serif" font-size="13" lengthAdjust="spacing" textLength="121" x="26" y="210.3955">GET/userPlanDetails</text><line style="stroke:#454645;stroke-width:1.0;" x1="359" x2="406" y1="241.9492" y2="241.9492"/><line style="stroke:#454645;stroke-width:1.0;" x1="406" x2="406" y1="241.9492" y2="254.9492"/><line style="stroke:#454645;stroke-width:1.0;" x1="365" x2="406" y1="254.9492" y2="254.9492"/><polygon fill="#454645" points="375,250.9492,365,254.9492,375,258.9492,371,254.9492" style="stroke:#454645;stroke-width:1.0;"/><text fill="#000000" font-family="sans-serif" font-size="13" font-weight="bold" lengthAdjust="spacing" textLength="7" x="371" y="236.6865">2</text><text fill="#000000" font-family="sans-serif" font-size="13" lengthAdjust="spacing" textLength="214" x="382" y="236.6865">getDetailsByUsername(username,...)</text><path d="M14.5,274.9492 L72,274.9492 L72,284.2402 L62,294.2402 L11,294.2402 L11,278.4492 A3.5,3.5 0 0 1 14.5,274.9492 " fill="#EEEEEE" style="stroke:#454645;stroke-width:1.5;"/><rect fill="none" height="374.832" rx="3.5" ry="3.5" style="stroke:#454645;stroke-width:1.0;" width="731.5" x="11" y="274.9492"/><text fill="#454645" font-family="sans-serif" font-size="13" font-weight="bold" lengthAdjust="spacing" textLength="16" x="26" y="289.9775">alt</text><text fill="#454645" font-family="sans-serif" font-size="11" font-weight="bold" lengthAdjust="spacing" textLength="104" x="87" y="288.8193">[subscriber found]</text><line style="stroke:#454645;stroke-width:1.0;stroke-dasharray:2.0,2.0;" x1="364" x2="406" y1="322.5313" y2="322.5313"/><line style="stroke:#454645;stroke-width:1.0;stroke-dasharray:2.0,2.0;" x1="406" x2="406" y1="322.5313" y2="335.5313"/><line style="stroke:#454645;stroke-width:1.0;stroke-dasharray:2.0,2.0;" x1="359" x2="406" y1="335.5313" y2="335.5313"/><polygon fill="#454645" points="369,331.5313,359,335.5313,369,339.5313,365,335.5313" style="stroke:#454645;stroke-width:1.0;"/><text fill="#000000" font-family="sans-serif" font-size="13" font-weight="bold" lengthAdjust="spacing" textLength="7" x="371" y="317.2686">3</text><text fill="#000000" font-family="sans-serif" font-size="13" lengthAdjust="spacing" textLength="58" x="382" y="317.2686">planName</text><polygon fill="#454645" points="684,357.8223,694,361.8223,684,365.8223,688,361.8223" style="stroke:#454645;stroke-width:1.0;"/><line style="stroke:#454645;stroke-width:1.0;" x1="359" x2="690" y1="361.8223" y2="361.8223"/><text fill="#000000" font-family="sans-serif" font-size="13" font-weight="bold" lengthAdjust="spacing" textLength="7" x="366" y="356.5596">4</text><text fill="#000000" font-family="sans-serif" font-size="13" lengthAdjust="spacing" textLength="54" x="377" y="356.5596">GET/planJPA</text><polygon fill="#454645" points="370,389.1133,360,393.1133,370,397.1133,366,393.1133" style="stroke:#454645;stroke-width:1.0;"/><line style="stroke:#454645;stroke-width:1.0;stroke-dasharray:2.0,2.0;" x1="364" x2="700" y1="393.1133" y2="393.1133"/><text fill="#000000" font-family="sans-serif" font-size="13" font-weight="bold" lengthAdjust="spacing" textLength="7" x="376" y="387.8506">5</text><text fill="#000000" font-family="sans-serif" font-size="13" lengthAdjust="spacing" textLength="24" x="387" y="387.8506">planJPA</text><ellipse cx="7.5" cy="423.6543" fill="none" rx="4" ry="4" style="stroke:#454645;stroke-width:1.5;"/><polygon fill="#454645" points="24.5,420.4043,14.5,424.4043,24.5,428.4043,20.5,424.4043" style="stroke:#454645;stroke-width:1.0;"/><line style="stroke:#454645;stroke-width:1.0;stroke-dasharray:2.0,2.0;" x1="22.5" x2="348" y1="424.4043" y2="424.4043"/><text fill="#000000" font-family="sans-serif" font-size="13" font-weight="bold" lengthAdjust="spacing" textLength="7" x="25" y="419.1416">6</text><text fill="#000000" font-family="sans-serif" font-size="13" lengthAdjust="spacing" textLength="49" x="36" y="419.1416">200/planJPA</text><line style="stroke:#454645;stroke-width:1.0;stroke-dasharray:2.0,2.0;" x1="11" x2="742.5" y1="433.4043" y2="433.4043"/><text fill="#454645" font-family="sans-serif" font-size="11" font-weight="bold" lengthAdjust="spacing" textLength="66" x="16" y="445.2744">[planJPA found]</text><line style="stroke:#454645;stroke-width:1.0;stroke-dasharray:2.0,2.0;" x1="364" x2="406" y1="477.3262" y2="477.3262"/><line style="stroke:#454645;stroke-width:1.0;stroke-dasharray:2.0,2.0;" x1="406" x2="406" y1="477.3262" y2="490.3262"/><line style="stroke:#454645;stroke-width:1.0;stroke-dasharray:2.0,2.0;" x1="359" x2="406" y1="490.3262" y2="490.3262"/><polygon fill="#454645" points="369,486.3262,359,490.3262,369,494.3262,365,490.3262" style="stroke:#454645;stroke-width:1.0;"/><text fill="#000000" font-family="sans-serif" font-size="13" font-weight="bold" lengthAdjust="spacing" textLength="7" x="371" y="472.0635">7</text><text fill="#000000" font-family="sans-serif" font-size="13" lengthAdjust="spacing" textLength="20" x="382" y="472.0635">null</text><polygon fill="#454645" points="586,512.6172,596,516.6172,586,520.6172,590,516.6172" style="stroke:#454645;stroke-width:1.0;"/><line style="stroke:#454645;stroke-width:1.0;" x1="359" x2="592" y1="516.6172" y2="516.6172"/><text fill="#000000" font-family="sans-serif" font-size="13" font-weight="bold" lengthAdjust="spacing" textLength="7" x="366" y="511.3545">8</text><text fill="#000000" font-family="sans-serif" font-size="13" lengthAdjust="spacing" textLength="167" x="377" y="511.3545">GET/internal/userPlanDetails</text><polygon fill="#454645" points="684,543.9082,694,547.9082,684,551.9082,688,547.9082" style="stroke:#454645;stroke-width:1.0;"/><line style="stroke:#454645;stroke-width:1.0;" x1="608" x2="690" y1="547.9082" y2="547.9082"/><text fill="#000000" font-family="sans-serif" font-size="13" font-weight="bold" lengthAdjust="spacing" textLength="7" x="615" y="542.6455">9</text><text fill="#000000" font-family="sans-serif" font-size="13" lengthAdjust="spacing" textLength="54" x="626" y="542.6455">GET/planJPA</text><polygon fill="#454645" points="619,575.1992,609,579.1992,619,583.1992,615,579.1992" style="stroke:#454645;stroke-width:1.0;"/><line style="stroke:#454645;stroke-width:1.0;stroke-dasharray:2.0,2.0;" x1="613" x2="700" y1="579.1992" y2="579.1992"/><text fill="#000000" font-family="sans-serif" font-size="13" font-weight="bold" lengthAdjust="spacing" textLength="14" x="625" y="573.9365">10</text><text fill="#000000" font-family="sans-serif" font-size="13" lengthAdjust="spacing" textLength="24" x="643" y="573.9365">planJPA</text><polygon fill="#454645" points="370,606.4902,360,610.4902,370,614.4902,366,610.4902" style="stroke:#454645;stroke-width:1.0;"/><line style="stroke:#454645;stroke-width:1.0;stroke-dasharray:2.0,2.0;" x1="364" x2="602" y1="610.4902" y2="610.4902"/><text fill="#000000" font-family="sans-serif" font-size="13" font-weight="bold" lengthAdjust="spacing" textLength="14" x="376" y="605.2275">11</text><text fill="#000000" font-family="sans-serif" font-size="13" lengthAdjust="spacing" textLength="49" x="394" y="605.2275">200/planJPA</text><ellipse cx="7.5" cy="641.0313" fill="none" rx="4" ry="4" style="stroke:#454645;stroke-width:1.5;"/><polygon fill="#454645" points="24.5,637.7813,14.5,641.7813,24.5,645.7813,20.5,641.7813" style="stroke:#454645;stroke-width:1.0;"/><line style="stroke:#454645;stroke-width:1.0;stroke-dasharray:2.0,2.0;" x1="22.5" x2="353" y1="641.7813" y2="641.7813"/><text fill="#000000" font-family="sans-serif" font-size="13" font-weight="bold" lengthAdjust="spacing" textLength="14" x="25" y="636.5186">12</text><text fill="#000000" font-family="sans-serif" font-size="13" lengthAdjust="spacing" textLength="49" x="43" y="636.5186">200/planJPA</text><!--SRC=[ZPDFZzCm4CNl_XJ3Ne2gVpOzLWYa5GY90ugK8WvxSfF9niAnWpqkxBTdnabNQHMjoD5-xyrldjkt7T4G3xlTOBMZrDjjxVjTnDy9NOsRnkYde7kbT2BlKd_2eDGRwh178F-i-1jq85ERWUrmL-qFLJh5EfY1Z7Tte2DK-njDiQ0fhZNbfqF9GFckB9HodX0ijWI-bK3WxzWXf8Z1QO7fD869Sj0m6JmXyHc2SQqFlPP1sSGI_4j1ryIwDlW-grQhRp-FRFk5RhLQG_HWsdoHZyHqrjOqEK6EuyZFRN2QYHHv3dY7GZTEZQIvlwZGDI3mDolmJfBrWBLcOj2NnDm8rDg92Ku8TK3Dg5dznr3d4x4wqu0ysJhF2qWfkCjqEPyCreB3CsDob2IsFhbc1lNeDn-vpmDy_NBSIPdI-cSaRMnKN98vytGfN5LxcAHSxQHuUFunzV_kyX3hxNRx_igfBStx6WaaROeJsk_iL0qk32oBaItlz7BFzPM595m2vcRvlJpw3vjDZj_Vtuzcj76iPaAO3vlXk6JjCaereHX7igjzfIycg8h_mI-MyRDx0dfPG5rXBIzv0oulBV_HVm00]--></g></svg>
