<?xml version="1.0" encoding="us-ascii" standalone="no"?><svg xmlns="http://www.w3.org/2000/svg" xmlns:xlink="http://www.w3.org/1999/xlink" contentStyleType="text/css" height="471px" preserveAspectRatio="none" style="width:849px;height:471px;" version="1.1" viewBox="0 0 849 471" width="849px" zoomAndPan="magnify"><defs/><g><rect fill="#FFFFFF" height="344.2012" style="stroke:#454645;stroke-width:1.0;" width="10" x="148" y="71.9121"/><rect fill="#FFFFFF" height="281.6191" style="stroke:#454645;stroke-width:1.0;" width="10" x="254.5" y="103.2031"/><rect fill="#FFFFFF" height="219.0371" style="stroke:#454645;stroke-width:1.0;" width="10" x="413.5" y="134.4941"/><rect fill="#FFFFFF" height="31.291" style="stroke:#454645;stroke-width:1.0;" width="10" x="550.5" y="165.7852"/><rect fill="#FFFFFF" height="93.873" style="stroke:#454645;stroke-width:1.0;" width="10" x="698" y="228.3672"/><rect fill="#FFFFFF" height="31.291" style="stroke:#454645;stroke-width:1.0;" width="10" x="809.5" y="259.6582"/><line style="stroke:#454645;stroke-width:0.5;stroke-dasharray:5.0,5.0;" x1="48" x2="48" y1="38.6211" y2="434.1133"/><line style="stroke:#454645;stroke-width:0.5;stroke-dasharray:5.0,5.0;" x1="153" x2="153" y1="38.6211" y2="434.1133"/><line style="stroke:#454645;stroke-width:0.5;stroke-dasharray:5.0,5.0;" x1="259" x2="259" y1="38.6211" y2="434.1133"/><line style="stroke:#454645;stroke-width:0.5;stroke-dasharray:5.0,5.0;" x1="418.5" x2="418.5" y1="38.6211" y2="434.1133"/><line style="stroke:#454645;stroke-width:0.5;stroke-dasharray:5.0,5.0;" x1="555" x2="555" y1="38.6211" y2="434.1133"/><line style="stroke:#454645;stroke-width:0.5;stroke-dasharray:5.0,5.0;" x1="703" x2="703" y1="38.6211" y2="434.1133"/><line style="stroke:#454645;stroke-width:0.5;stroke-dasharray:5.0,5.0;" x1="814" x2="814" y1="38.6211" y2="434.1133"/><rect fill="#FF6F61" height="32.6211" rx="3.5" ry="3.5" style="stroke:#454645;stroke-width:1.5;" width="86" x="5" y="5"/><text fill="#FFFFFF" font-family="sans-serif" font-size="14" lengthAdjust="spacing" textLength="72" x="12" y="27.1074">ClientHTTP</text><rect fill="#FF6F61" height="32.6211" rx="3.5" ry="3.5" style="stroke:#454645;stroke-width:1.5;" width="86" x="5" y="433.1133"/><text fill="#FFFFFF" font-family="sans-serif" font-size="14" lengthAdjust="spacing" textLength="72" x="12" y="455.2207">ClientHTTP</text><rect fill="#FF6F61" height="32.6211" rx="3.5" ry="3.5" style="stroke:#454645;stroke-width:1.5;" width="104" x="101" y="5"/><text fill="#FFFFFF" font-family="sans-serif" font-size="14" lengthAdjust="spacing" textLength="90" x="108" y="27.1074">PlanController</text><rect fill="#FF6F61" height="32.6211" rx="3.5" ry="3.5" style="stroke:#454645;stroke-width:1.5;" width="104" x="101" y="433.1133"/><text fill="#FFFFFF" font-family="sans-serif" font-size="14" lengthAdjust="spacing" textLength="90" x="108" y="455.2207">PlanController</text><rect fill="#FF6F61" height="32.6211" rx="3.5" ry="3.5" style="stroke:#454645;stroke-width:1.5;" width="89" x="215" y="5"/><text fill="#FFFFFF" font-family="sans-serif" font-size="14" lengthAdjust="spacing" textLength="75" x="222" y="27.1074">PlanService</text><rect fill="#FF6F61" height="32.6211" rx="3.5" ry="3.5" style="stroke:#454645;stroke-width:1.5;" width="89" x="215" y="433.1133"/><text fill="#FFFFFF" font-family="sans-serif" font-size="14" lengthAdjust="spacing" textLength="75" x="222" y="455.2207">PlanService</text><rect fill="#FF6F61" height="32.6211" rx="3.5" ry="3.5" style="stroke:#454645;stroke-width:1.5;" width="110" x="363.5" y="5"/><text fill="#FFFFFF" font-family="sans-serif" font-size="14" lengthAdjust="spacing" textLength="96" x="370.5" y="27.1074">PlanRepository</text><rect fill="#FF6F61" height="32.6211" rx="3.5" ry="3.5" style="stroke:#454645;stroke-width:1.5;" width="110" x="363.5" y="433.1133"/><text fill="#FFFFFF" font-family="sans-serif" font-size="14" lengthAdjust="spacing" textLength="96" x="370.5" y="455.2207">PlanRepository</text><rect fill="#FF6F61" height="32.6211" rx="3.5" ry="3.5" style="stroke:#454645;stroke-width:1.5;" width="129" x="491" y="5"/><text fill="#FFFFFF" font-family="sans-serif" font-size="14" lengthAdjust="spacing" textLength="115" x="498" y="27.1074">PlanDBRepository</text><rect fill="#FF6F61" height="32.6211" rx="3.5" ry="3.5" style="stroke:#454645;stroke-width:1.5;" width="129" x="491" y="433.1133"/><text fill="#FFFFFF" font-family="sans-serif" font-size="14" lengthAdjust="spacing" textLength="115" x="498" y="455.2207">PlanDBRepository</text><rect fill="#FF6F61" height="32.6211" rx="3.5" ry="3.5" style="stroke:#454645;stroke-width:1.5;" width="146" x="630" y="5"/><text fill="#FFFFFF" font-family="sans-serif" font-size="14" lengthAdjust="spacing" textLength="132" x="637" y="27.1074">PlanHTTPRepository</text><rect fill="#FF6F61" height="32.6211" rx="3.5" ry="3.5" style="stroke:#454645;stroke-width:1.5;" width="146" x="630" y="433.1133"/><text fill="#FFFFFF" font-family="sans-serif" font-size="14" lengthAdjust="spacing" textLength="132" x="637" y="455.2207">PlanHTTPRepository</text><rect fill="#FF6F61" height="32.6211" rx="3.5" ry="3.5" style="stroke:#454645;stroke-width:1.5;" width="57" x="786" y="5"/><text fill="#FFFFFF" font-family="sans-serif" font-size="14" lengthAdjust="spacing" textLength="43" x="793" y="27.1074">Plans2</text><rect fill="#FF6F61" height="32.6211" rx="3.5" ry="3.5" style="stroke:#454645;stroke-width:1.5;" width="57" x="786" y="433.1133"/><text fill="#FFFFFF" font-family="sans-serif" font-size="14" lengthAdjust="spacing" textLength="43" x="793" y="455.2207">Plans2</text><rect fill="#FFFFFF" height="344.2012" style="stroke:#454645;stroke-width:1.0;" width="10" x="148" y="71.9121"/><rect fill="#FFFFFF" height="281.6191" style="stroke:#454645;stroke-width:1.0;" width="10" x="254.5" y="103.2031"/><rect fill="#FFFFFF" height="219.0371" style="stroke:#454645;stroke-width:1.0;" width="10" x="413.5" y="134.4941"/><rect fill="#FFFFFF" height="31.291" style="stroke:#454645;stroke-width:1.0;" width="10" x="550.5" y="165.7852"/><rect fill="#FFFFFF" height="93.873" style="stroke:#454645;stroke-width:1.0;" width="10" x="698" y="228.3672"/><rect fill="#FFFFFF" height="31.291" style="stroke:#454645;stroke-width:1.0;" width="10" x="809.5" y="259.6582"/><polygon fill="#454645" points="136,67.9121,146,71.9121,136,75.9121,140,71.9121" style="stroke:#454645;stroke-width:1.0;"/><line style="stroke:#454645;stroke-width:1.0;" x1="48" x2="142" y1="71.9121" y2="71.9121"/><text fill="#000000" font-family="sans-serif" font-size="13" font-weight="bold" lengthAdjust="spacing" textLength="7" x="55" y="66.6494">1</text><text fill="#000000" font-family="sans-serif" font-size="13" lengthAdjust="spacing" textLength="38" x="66" y="66.6494">Get/all</text><polygon fill="#454645" points="242.5,99.2031,252.5,103.2031,242.5,107.2031,246.5,103.2031" style="stroke:#454645;stroke-width:1.0;"/><line style="stroke:#454645;stroke-width:1.0;" x1="158" x2="248.5" y1="103.2031" y2="103.2031"/><text fill="#000000" font-family="sans-serif" font-size="13" font-weight="bold" lengthAdjust="spacing" textLength="7" x="165" y="97.9404">2</text><text fill="#000000" font-family="sans-serif" font-size="13" lengthAdjust="spacing" textLength="33" x="176" y="97.9404">getAll</text><polygon fill="#454645" points="401.5,130.4941,411.5,134.4941,401.5,138.4941,405.5,134.4941" style="stroke:#454645;stroke-width:1.0;"/><line style="stroke:#454645;stroke-width:1.0;" x1="264.5" x2="407.5" y1="134.4941" y2="134.4941"/><text fill="#000000" font-family="sans-serif" font-size="13" font-weight="bold" lengthAdjust="spacing" textLength="7" x="271.5" y="129.2314">3</text><text fill="#000000" font-family="sans-serif" font-size="13" lengthAdjust="spacing" textLength="119" x="282.5" y="129.2314">getAll(request, false)</text><polygon fill="#454645" points="538.5,161.7852,548.5,165.7852,538.5,169.7852,542.5,165.7852" style="stroke:#454645;stroke-width:1.0;"/><line style="stroke:#454645;stroke-width:1.0;" x1="423.5" x2="544.5" y1="165.7852" y2="165.7852"/><text fill="#000000" font-family="sans-serif" font-size="13" font-weight="bold" lengthAdjust="spacing" textLength="7" x="430.5" y="160.5225">4</text><text fill="#000000" font-family="sans-serif" font-size="13" lengthAdjust="spacing" textLength="97" x="441.5" y="160.5225">findAllByStatus()</text><polygon fill="#454645" points="434.5,193.0762,424.5,197.0762,434.5,201.0762,430.5,197.0762" style="stroke:#454645;stroke-width:1.0;"/><line style="stroke:#454645;stroke-width:1.0;stroke-dasharray:2.0,2.0;" x1="428.5" x2="554.5" y1="197.0762" y2="197.0762"/><text fill="#000000" font-family="sans-serif" font-size="13" font-weight="bold" lengthAdjust="spacing" textLength="7" x="440.5" y="191.8135">5</text><text fill="#000000" font-family="sans-serif" font-size="13" lengthAdjust="spacing" textLength="49" x="451.5" y="191.8135">plansDB</text><polygon fill="#454645" points="686,224.3672,696,228.3672,686,232.3672,690,228.3672" style="stroke:#454645;stroke-width:1.0;"/><line style="stroke:#454645;stroke-width:1.0;" x1="423.5" x2="692" y1="228.3672" y2="228.3672"/><text fill="#000000" font-family="sans-serif" font-size="13" font-weight="bold" lengthAdjust="spacing" textLength="7" x="430.5" y="223.1045">6</text><text fill="#000000" font-family="sans-serif" font-size="13" lengthAdjust="spacing" textLength="117" x="441.5" y="223.1045">getAllPlans(request)</text><polygon fill="#454645" points="797.5,255.6582,807.5,259.6582,797.5,263.6582,801.5,259.6582" style="stroke:#454645;stroke-width:1.0;"/><line style="stroke:#454645;stroke-width:1.0;" x1="708" x2="803.5" y1="259.6582" y2="259.6582"/><text fill="#000000" font-family="sans-serif" font-size="13" font-weight="bold" lengthAdjust="spacing" textLength="7" x="715" y="254.3955">7</text><text fill="#000000" font-family="sans-serif" font-size="13" lengthAdjust="spacing" textLength="43" x="726" y="254.3955">GET/all</text><polygon fill="#454645" points="719,286.9492,709,290.9492,719,294.9492,715,290.9492" style="stroke:#454645;stroke-width:1.0;"/><line style="stroke:#454645;stroke-width:1.0;stroke-dasharray:2.0,2.0;" x1="713" x2="813.5" y1="290.9492" y2="290.9492"/><text fill="#000000" font-family="sans-serif" font-size="13" font-weight="bold" lengthAdjust="spacing" textLength="7" x="725" y="285.6865">8</text><text fill="#000000" font-family="sans-serif" font-size="13" lengthAdjust="spacing" textLength="31" x="736" y="285.6865">plans</text><polygon fill="#454645" points="434.5,318.2402,424.5,322.2402,434.5,326.2402,430.5,322.2402" style="stroke:#454645;stroke-width:1.0;"/><line style="stroke:#454645;stroke-width:1.0;stroke-dasharray:2.0,2.0;" x1="428.5" x2="702" y1="322.2402" y2="322.2402"/><text fill="#000000" font-family="sans-serif" font-size="13" font-weight="bold" lengthAdjust="spacing" textLength="7" x="440.5" y="316.9775">9</text><text fill="#000000" font-family="sans-serif" font-size="13" lengthAdjust="spacing" textLength="31" x="451.5" y="316.9775">plans</text><polygon fill="#454645" points="275.5,349.5313,265.5,353.5313,275.5,357.5313,271.5,353.5313" style="stroke:#454645;stroke-width:1.0;"/><line style="stroke:#454645;stroke-width:1.0;stroke-dasharray:2.0,2.0;" x1="269.5" x2="417.5" y1="353.5313" y2="353.5313"/><text fill="#000000" font-family="sans-serif" font-size="13" font-weight="bold" lengthAdjust="spacing" textLength="14" x="281.5" y="348.2686">10</text><text fill="#000000" font-family="sans-serif" font-size="13" lengthAdjust="spacing" textLength="31" x="299.5" y="348.2686">plans</text><polygon fill="#454645" points="169,380.8223,159,384.8223,169,388.8223,165,384.8223" style="stroke:#454645;stroke-width:1.0;"/><line style="stroke:#454645;stroke-width:1.0;stroke-dasharray:2.0,2.0;" x1="163" x2="258.5" y1="384.8223" y2="384.8223"/><text fill="#000000" font-family="sans-serif" font-size="13" font-weight="bold" lengthAdjust="spacing" textLength="14" x="175" y="379.5596">11</text><text fill="#000000" font-family="sans-serif" font-size="13" lengthAdjust="spacing" textLength="31" x="193" y="379.5596">plans</text><polygon fill="#454645" points="59,412.1133,49,416.1133,59,420.1133,55,416.1133" style="stroke:#454645;stroke-width:1.0;"/><line style="stroke:#454645;stroke-width:1.0;stroke-dasharray:2.0,2.0;" x1="53" x2="152" y1="416.1133" y2="416.1133"/><text fill="#000000" font-family="sans-serif" font-size="13" font-weight="bold" lengthAdjust="spacing" textLength="14" x="65" y="410.8506">12</text><text fill="#000000" font-family="sans-serif" font-size="13" lengthAdjust="spacing" textLength="56" x="83" y="410.8506">200/plans</text><!--SRC=[TPBFRi8m3CRlVWhlD2gD5N7iOTBue-s8HbyW55CYqgIB7IJUVcaXZ0h89L7y- -puSrxt8YqNUTuQPIKqvhroJSxq6yXMDDvgLNlL0AWWpePcGxu_gahqKGcXim0ligU6KDm9-A1jgw82DwewrDu5kvqxupoMNbcE8R82SwFZzbsMAnn_u2fMdZihtXb3li0labmP0yFxHAx97tL51TOadnVgSfUG7seTQt7-L9oXaU_wONd3dJ9C6Goff5lCRfGxRRTHEZkjHKdWKGQU97YBdL6yc3t9qJLrLxyBS7f41e1ntSCf1K-Z1ykozo2HFCNnumhdzm0ypthloaMJ10_Wgyj3ychqWx4DoTl1HVX_uWLE9vF-j_4V]--></g></svg>