<?xml version="1.0" encoding="us-ascii" standalone="no"?><svg xmlns="http://www.w3.org/2000/svg" xmlns:xlink="http://www.w3.org/1999/xlink" contentStyleType="text/css" height="994px" preserveAspectRatio="none" style="width:931px;height:994px;" version="1.1" viewBox="0 0 931 994" width="931px" zoomAndPan="magnify"><defs/><g><!--cluster Subsss--><g id="cluster_Subsss"><rect fill="none" height="758" rx="3.5" ry="3.5" style="stroke:#454645;stroke-width:1.0;" width="918" x="7" y="230"/><rect fill="none" height="10" style="stroke:#454645;stroke-width:1.0;" width="15" x="905" y="235"/><rect fill="none" height="2" style="stroke:#454645;stroke-width:1.0;" width="4" x="903" y="237"/><rect fill="none" height="2" style="stroke:#454645;stroke-width:1.0;" width="4" x="903" y="241"/><text fill="#000000" font-family="sans-serif" font-size="14" font-weight="bold" lengthAdjust="spacing" textLength="179" x="376.5" y="258.1074">&#171;REST API Subscriptions&#187;</text></g><text fill="#000000" font-family="sans-serif" font-size="14" lengthAdjust="spacing" textLength="173" x="18.5" y="208.4863">REST API Repository Plans</text><rect fill="#F1F1F1" height="12" style="stroke:#181818;stroke-width:1.5;" width="12" x="99" y="224"/><text fill="#000000" font-family="sans-serif" font-size="14" lengthAdjust="spacing" textLength="151" x="200" y="208.4863">REST API Subscriptions</text><rect fill="#F1F1F1" height="12" style="stroke:#181818;stroke-width:1.5;" width="12" x="269.5" y="224"/><text fill="#000000" font-family="sans-serif" font-size="14" lengthAdjust="spacing" textLength="223" x="371" y="208.4863">REST API Repository Subscriptions</text><rect fill="#F1F1F1" height="12" style="stroke:#181818;stroke-width:1.5;" width="12" x="476.5" y="224"/><text fill="#000000" font-family="sans-serif" font-size="14" lengthAdjust="spacing" textLength="205" x="602.5" y="208.4863">DB API Repository Subscriptions</text><rect fill="#F1F1F1" height="12" style="stroke:#181818;stroke-width:1.5;" width="12" x="699" y="224"/><!--entity routes--><g id="elem_routes"><rect fill="#F1F1F1" height="48.6211" rx="3.5" ry="3.5" style="stroke:#181818;stroke-width:0.5;" width="85" x="215.5" y="308"/><rect fill="#F1F1F1" height="10" style="stroke:#181818;stroke-width:0.5;" width="15" x="280.5" y="313"/><rect fill="#F1F1F1" height="2" style="stroke:#181818;stroke-width:0.5;" width="4" x="278.5" y="315"/><rect fill="#F1F1F1" height="2" style="stroke:#181818;stroke-width:0.5;" width="4" x="278.5" y="319"/><text fill="#000000" font-family="sans-serif" font-size="14" lengthAdjust="spacing" textLength="45" x="230.5" y="343.1074">Routes</text></g><!--entity ctrl--><g id="elem_ctrl"><rect fill="#F1F1F1" height="48.6211" rx="3.5" ry="3.5" style="stroke:#181818;stroke-width:0.5;" width="180" x="230" y="513"/><rect fill="#F1F1F1" height="10" style="stroke:#181818;stroke-width:0.5;" width="15" x="390" y="518"/><rect fill="#F1F1F1" height="2" style="stroke:#181818;stroke-width:0.5;" width="4" x="388" y="520"/><rect fill="#F1F1F1" height="2" style="stroke:#181818;stroke-width:0.5;" width="4" x="388" y="524"/><text fill="#000000" font-family="sans-serif" font-size="14" lengthAdjust="spacing" textLength="140" x="245" y="548.1074">SubscriptionController</text></g><!--entity service--><g id="elem_service"><rect fill="#F1F1F1" height="48.6211" rx="3.5" ry="3.5" style="stroke:#181818;stroke-width:0.5;" width="165" x="256.5" y="718"/><rect fill="#F1F1F1" height="10" style="stroke:#181818;stroke-width:0.5;" width="15" x="401.5" y="723"/><rect fill="#F1F1F1" height="2" style="stroke:#181818;stroke-width:0.5;" width="4" x="399.5" y="725"/><rect fill="#F1F1F1" height="2" style="stroke:#181818;stroke-width:0.5;" width="4" x="399.5" y="729"/><text fill="#000000" font-family="sans-serif" font-size="14" lengthAdjust="spacing" textLength="125" x="271.5" y="753.1074">SubscriptionService</text></g><!--entity sub--><g id="elem_sub"><rect fill="#F1F1F1" height="48.6211" rx="3.5" ry="3.5" style="stroke:#181818;stroke-width:0.5;" width="118" x="280" y="923"/><rect fill="#F1F1F1" height="10" style="stroke:#181818;stroke-width:0.5;" width="15" x="378" y="928"/><rect fill="#F1F1F1" height="2" style="stroke:#181818;stroke-width:0.5;" width="4" x="376" y="930"/><rect fill="#F1F1F1" height="2" style="stroke:#181818;stroke-width:0.5;" width="4" x="376" y="934"/><text fill="#000000" font-family="sans-serif" font-size="14" lengthAdjust="spacing" textLength="78" x="295" y="958.1074">Subscription</text></g><!--entity pRepo--><g id="elem_pRepo"><rect fill="#F1F1F1" height="48.6211" rx="3.5" ry="3.5" style="stroke:#181818;stroke-width:0.5;" width="172" x="23" y="513"/><rect fill="#F1F1F1" height="10" style="stroke:#181818;stroke-width:0.5;" width="15" x="175" y="518"/><rect fill="#F1F1F1" height="2" style="stroke:#181818;stroke-width:0.5;" width="4" x="173" y="520"/><rect fill="#F1F1F1" height="2" style="stroke:#181818;stroke-width:0.5;" width="4" x="173" y="524"/><text fill="#000000" font-family="sans-serif" font-size="14" lengthAdjust="spacing" textLength="132" x="38" y="548.1074">PlanHTTPRepository</text></g><!--entity sRepo--><g id="elem_sRepo"><rect fill="#F1F1F1" height="48.6211" rx="3.5" ry="3.5" style="stroke:#181818;stroke-width:0.5;" width="222" x="445" y="513"/><rect fill="#F1F1F1" height="10" style="stroke:#181818;stroke-width:0.5;" width="15" x="647" y="518"/><rect fill="#F1F1F1" height="2" style="stroke:#181818;stroke-width:0.5;" width="4" x="645" y="520"/><rect fill="#F1F1F1" height="2" style="stroke:#181818;stroke-width:0.5;" width="4" x="645" y="524"/><text fill="#000000" font-family="sans-serif" font-size="14" lengthAdjust="spacing" textLength="182" x="460" y="548.1074">SubscriptionHTTPRepository</text></g><!--entity repo--><g id="elem_repo"><rect fill="#F1F1F1" height="48.6211" rx="3.5" ry="3.5" style="stroke:#181818;stroke-width:0.5;" width="205" x="702.5" y="513"/><rect fill="#F1F1F1" height="10" style="stroke:#181818;stroke-width:0.5;" width="15" x="887.5" y="518"/><rect fill="#F1F1F1" height="2" style="stroke:#181818;stroke-width:0.5;" width="4" x="885.5" y="520"/><rect fill="#F1F1F1" height="2" style="stroke:#181818;stroke-width:0.5;" width="4" x="885.5" y="524"/><text fill="#000000" font-family="sans-serif" font-size="14" lengthAdjust="spacing" textLength="165" x="717.5" y="548.1074">SubscriptionDBRepository</text></g><!--entity pDriver--><g id="elem_pDriver"><rect fill="#F1F1F1" height="48.6211" rx="3.5" ry="3.5" style="stroke:#181818;stroke-width:0.5;" width="136" x="32" y="718"/><rect fill="#F1F1F1" height="10" style="stroke:#181818;stroke-width:0.5;" width="15" x="148" y="723"/><rect fill="#F1F1F1" height="2" style="stroke:#181818;stroke-width:0.5;" width="4" x="146" y="725"/><rect fill="#F1F1F1" height="2" style="stroke:#181818;stroke-width:0.5;" width="4" x="146" y="729"/><text fill="#000000" font-family="sans-serif" font-size="14" lengthAdjust="spacing" textLength="96" x="47" y="753.1074">PlanRepository</text></g><!--entity driver--><g id="elem_driver"><rect fill="#F1F1F1" height="48.6211" rx="3.5" ry="3.5" style="stroke:#181818;stroke-width:0.5;" width="186" x="510" y="718"/><rect fill="#F1F1F1" height="10" style="stroke:#181818;stroke-width:0.5;" width="15" x="676" y="723"/><rect fill="#F1F1F1" height="2" style="stroke:#181818;stroke-width:0.5;" width="4" x="674" y="725"/><rect fill="#F1F1F1" height="2" style="stroke:#181818;stroke-width:0.5;" width="4" x="674" y="729"/><text fill="#000000" font-family="sans-serif" font-size="14" lengthAdjust="spacing" textLength="146" x="525" y="753.1074">SubscriptionRepository</text></g><!--entity planHTTPDriver--><g id="elem_planHTTPDriver"><rect fill="#F1F1F1" height="48.6211" rx="3.5" ry="3.5" style="stroke:#181818;stroke-width:0.5;" width="157" x="23.5" y="308"/><rect fill="#F1F1F1" height="10" style="stroke:#181818;stroke-width:0.5;" width="15" x="160.5" y="313"/><rect fill="#F1F1F1" height="2" style="stroke:#181818;stroke-width:0.5;" width="4" x="158.5" y="315"/><rect fill="#F1F1F1" height="2" style="stroke:#181818;stroke-width:0.5;" width="4" x="158.5" y="319"/><text fill="#000000" font-family="sans-serif" font-size="14" lengthAdjust="spacing" textLength="117" x="38.5" y="343.1074">Driver Plans HTTP</text></g><!--entity subHTTPDriver--><g id="elem_subHTTPDriver"><rect fill="#F1F1F1" height="48.6211" rx="3.5" ry="3.5" style="stroke:#181818;stroke-width:0.5;" width="207" x="335.5" y="308"/><rect fill="#F1F1F1" height="10" style="stroke:#181818;stroke-width:0.5;" width="15" x="522.5" y="313"/><rect fill="#F1F1F1" height="2" style="stroke:#181818;stroke-width:0.5;" width="4" x="520.5" y="315"/><rect fill="#F1F1F1" height="2" style="stroke:#181818;stroke-width:0.5;" width="4" x="520.5" y="319"/><text fill="#000000" font-family="sans-serif" font-size="14" lengthAdjust="spacing" textLength="167" x="350.5" y="343.1074">Driver Subscriptions HTTP</text></g><!--entity subDBDriver--><g id="elem_subDBDriver"><rect fill="#F1F1F1" height="48.6211" rx="3.5" ry="3.5" style="stroke:#181818;stroke-width:0.5;" width="101" x="807.5" y="308"/><rect fill="#F1F1F1" height="10" style="stroke:#181818;stroke-width:0.5;" width="15" x="888.5" y="313"/><rect fill="#F1F1F1" height="2" style="stroke:#181818;stroke-width:0.5;" width="4" x="886.5" y="315"/><rect fill="#F1F1F1" height="2" style="stroke:#181818;stroke-width:0.5;" width="4" x="886.5" y="319"/><text fill="#000000" font-family="sans-serif" font-size="14" lengthAdjust="spacing" textLength="61" x="822.5" y="343.1074">Driver DB</text></g><!--entity ctrlSer--><g id="elem_ctrlSer"><ellipse cx="329" cy="640" fill="#F1F1F1" rx="8" ry="8" style="stroke:#181818;stroke-width:0.5;"/></g><!--entity routesCtr--><g id="elem_routesCtr"><ellipse cx="289" cy="435" fill="#F1F1F1" rx="8" ry="8" style="stroke:#181818;stroke-width:0.5;"/></g><!--entity model--><g id="elem_model"><ellipse cx="339" cy="845" fill="#F1F1F1" rx="8" ry="8" style="stroke:#181818;stroke-width:0.5;"/></g><!--entity subDriver--><g id="elem_subDriver"><ellipse cx="466" cy="742.5" fill="#F1F1F1" rx="8" ry="8" style="stroke:#181818;stroke-width:0.5;"/></g><!--entity planDriver--><g id="elem_planDriver"><ellipse cx="212" cy="742.5" fill="#F1F1F1" rx="8" ry="8" style="stroke:#181818;stroke-width:0.5;"/></g><!--entity repos--><g id="elem_repos"><ellipse cx="603" cy="640" fill="#F1F1F1" rx="8" ry="8" style="stroke:#181818;stroke-width:0.5;"/></g><!--entity planHttpInterface--><g id="elem_planHttpInterface"><ellipse cx="104" cy="640" fill="#F1F1F1" rx="8" ry="8" style="stroke:#181818;stroke-width:0.5;"/></g><!--entity subHttpInterface--><g id="elem_subHttpInterface"><ellipse cx="497" cy="435" fill="#F1F1F1" rx="8" ry="8" style="stroke:#181818;stroke-width:0.5;"/></g><!--entity subDBInterface--><g id="elem_subDBInterface"><ellipse cx="831" cy="435" fill="#F1F1F1" rx="8" ry="8" style="stroke:#181818;stroke-width:0.5;"/></g><!--entity planHttpInterface2--><g id="elem_planHttpInterface2"><ellipse cx="105" cy="435" fill="#F1F1F1" rx="8" ry="8" style="stroke:#181818;stroke-width:0.5;"/></g><!--entity PlansCompInter--><g id="elem_PlansCompInter"><ellipse cx="105" cy="134" fill="#F1F1F1" rx="8" ry="8" style="stroke:#181818;stroke-width:0.5;"/></g><!--entity HttpClient--><g id="elem_HttpClient"><ellipse cx="276" cy="134" fill="#F1F1F1" rx="8" ry="8" style="stroke:#181818;stroke-width:0.5;"/></g><!--entity SubscriptionCompInter--><g id="elem_SubscriptionCompInter"><ellipse cx="483" cy="134" fill="#F1F1F1" rx="8" ry="8" style="stroke:#181818;stroke-width:0.5;"/></g><!--entity SubscriptionDBInter--><g id="elem_SubscriptionDBInter"><ellipse cx="705" cy="134" fill="#F1F1F1" rx="8" ry="8" style="stroke:#181818;stroke-width:0.5;"/></g><!--entity NodeHTTP--><g id="elem_NodeHTTP"><rect fill="#F1F1F1" height="48.6211" rx="3.5" ry="3.5" style="stroke:#181818;stroke-width:0.5;" width="105" x="223.5" y="7"/><rect fill="#F1F1F1" height="10" style="stroke:#181818;stroke-width:0.5;" width="15" x="308.5" y="12"/><rect fill="#F1F1F1" height="2" style="stroke:#181818;stroke-width:0.5;" width="4" x="306.5" y="14"/><rect fill="#F1F1F1" height="2" style="stroke:#181818;stroke-width:0.5;" width="4" x="306.5" y="18"/><text fill="#000000" font-family="sans-serif" font-size="14" lengthAdjust="spacing" textLength="65" x="238.5" y="42.1074">Http Client</text></g><!--entity PlansComp--><g id="elem_PlansComp"><rect fill="#F1F1F1" height="48.6211" rx="3.5" ry="3.5" style="stroke:#181818;stroke-width:0.5;" width="141" x="34.5" y="7"/><rect fill="#F1F1F1" height="10" style="stroke:#181818;stroke-width:0.5;" width="15" x="155.5" y="12"/><rect fill="#F1F1F1" height="2" style="stroke:#181818;stroke-width:0.5;" width="4" x="153.5" y="14"/><rect fill="#F1F1F1" height="2" style="stroke:#181818;stroke-width:0.5;" width="4" x="153.5" y="18"/><text fill="#000000" font-family="sans-serif" font-size="14" lengthAdjust="spacing" textLength="101" x="49.5" y="42.1074">Plans REST API</text></g><!--entity SubscriptionComp--><g id="elem_SubscriptionComp"><rect fill="#F1F1F1" height="48.6211" rx="3.5" ry="3.5" style="stroke:#181818;stroke-width:0.5;" width="191" x="387.5" y="7"/><rect fill="#F1F1F1" height="10" style="stroke:#181818;stroke-width:0.5;" width="15" x="558.5" y="12"/><rect fill="#F1F1F1" height="2" style="stroke:#181818;stroke-width:0.5;" width="4" x="556.5" y="14"/><rect fill="#F1F1F1" height="2" style="stroke:#181818;stroke-width:0.5;" width="4" x="556.5" y="18"/><text fill="#000000" font-family="sans-serif" font-size="14" lengthAdjust="spacing" textLength="151" x="402.5" y="42.1074">Subscriptions REST API</text></g><!--entity SubscriptionDB--><g id="elem_SubscriptionDB"><path d="M628.5,17.5 C628.5,7.5 705,7.5 705,7.5 C705,7.5 781.5,7.5 781.5,17.5 L781.5,45.1211 C781.5,55.1211 705,55.1211 705,55.1211 C705,55.1211 628.5,55.1211 628.5,45.1211 L628.5,17.5 " fill="#98DDDE" style="stroke:#454645;stroke-width:0.5;"/><path d="M628.5,17.5 C628.5,27.5 705,27.5 705,27.5 C705,27.5 781.5,27.5 781.5,17.5 " fill="none" style="stroke:#454645;stroke-width:0.5;"/><text fill="#454645" font-family="sans-serif" font-size="14" lengthAdjust="spacing" textLength="133" x="638.5" y="46.6074">Subscriptions DB API</text></g><!--link HttpClient to out--><g id="link_HttpClient_out"><path d="M276,143.01 C276,161.84 276,208.45 276,223.92 " fill="none" id="HttpClient-out" style="stroke:#454645;stroke-width:1.0;"/></g><!--reverse link PlansCompInter to apiPlans--><g id="link_PlansCompInter_apiPlans"><path d="M105,153.01 C105,171.84 105,208.45 105,223.92 " fill="none" id="PlansCompInter-backto-apiPlans" style="stroke:#454645;stroke-width:1.0;"/><path d="M96.5428,146.0882 A9,9 0 0 0 113.4572 146.0882" fill="none" style="stroke:#454645;stroke-width:1.5;"/></g><!--reverse link SubscriptionCompInter to apiSubscriptions--><g id="link_SubscriptionCompInter_apiSubscriptions"><path d="M483,153.01 C483,171.84 483,208.45 483,223.92 " fill="none" id="SubscriptionCompInter-backto-apiSubscriptions" style="stroke:#454645;stroke-width:1.0;"/><path d="M474.5428,146.0882 A9,9 0 0 0 491.4572 146.0882" fill="none" style="stroke:#454645;stroke-width:1.5;"/></g><!--reverse link SubscriptionDBInter to dbSubscriptions--><g id="link_SubscriptionDBInter_dbSubscriptions"><path d="M705,153.01 C705,171.84 705,208.45 705,223.92 " fill="none" id="SubscriptionDBInter-backto-dbSubscriptions" style="stroke:#454645;stroke-width:1.0;"/><path d="M696.5428,146.0882 A9,9 0 0 0 713.4572 146.0882" fill="none" style="stroke:#454645;stroke-width:1.5;"/></g><!--link NodeHTTP to HttpClient--><g id="link_NodeHTTP_HttpClient"><path d="M276,56.06 C276,78.11 276,99.81 276,114.69 " fill="none" id="NodeHTTP-to-HttpClient" style="stroke:#454645;stroke-width:1.0;"/><path d="M284.4572,121.6118 A9,9 0 0 0 267.5428 121.6118" fill="none" style="stroke:#454645;stroke-width:1.5;"/></g><!--link PlansComp to PlansCompInter--><g id="link_PlansComp_PlansCompInter"><path d="M105,56.06 C105,78.11 105,109.81 105,124.69 " fill="none" id="PlansComp-PlansCompInter" style="stroke:#454645;stroke-width:1.0;"/></g><!--link SubscriptionComp to SubscriptionCompInter--><g id="link_SubscriptionComp_SubscriptionCompInter"><path d="M483,56.06 C483,78.11 483,109.81 483,124.69 " fill="none" id="SubscriptionComp-SubscriptionCompInter" style="stroke:#454645;stroke-width:1.0;"/></g><!--link SubscriptionDB to SubscriptionDBInter--><g id="link_SubscriptionDB_SubscriptionDBInter"><path d="M705,55.56 C705,77.58 705,109.57 705,124.6 " fill="none" id="SubscriptionDB-SubscriptionDBInter" style="stroke:#454645;stroke-width:1.0;"/></g><!--link out to routes--><g id="link_out_routes"><path d="M275.08,236.12 C272.76,249.08 266.54,283.83 262.28,307.61 " fill="none" id="out-routes" style="stroke:#454645;stroke-width:1.0;"/></g><!--link routes to routesCtr--><g id="link_routes_routesCtr"><path d="M265.27,357.06 C272.07,379.11 278.9024,401.2543 283.4924,416.1343 " fill="none" id="routes-to-routesCtr" style="stroke:#454645;stroke-width:1.0;"/><path d="M293.6141,420.2557 A9,9 0 0 0 277.4512 425.2415" fill="none" style="stroke:#454645;stroke-width:1.5;"/></g><!--link routesCtr to ctrl--><g id="link_routesCtr_ctrl"><path d="M291.54,444.22 C296.11,459.04 305.88,490.72 312.69,512.8 " fill="none" id="routesCtr-ctrl" style="stroke:#454645;stroke-width:1.0;"/></g><!--link pRepo to ctrl--><!--link ctrl to sRepo--><!--link sRepo to repo--><!--link ctrl to ctrlSer--><g id="link_ctrl_ctrlSer"><path d="M322.11,562.06 C324.08,584.11 326.0231,605.8503 327.3631,620.7303 " fill="none" id="ctrl-to-ctrlSer" style="stroke:#454645;stroke-width:1.0;"/><path d="M336.4071,626.8657 A9,9 0 0 0 319.5608 628.3828" fill="none" style="stroke:#454645;stroke-width:1.5;"/></g><!--link ctrlSer to service--><g id="link_ctrlSer_service"><path d="M329.82,649.22 C331.29,664.04 334.44,695.72 336.64,717.8 " fill="none" id="ctrlSer-service" style="stroke:#454645;stroke-width:1.0;"/></g><!--link service to model--><g id="link_service_model"><path d="M339,767.06 C339,789.11 339,810.81 339,825.69 " fill="none" id="service-to-model" style="stroke:#454645;stroke-width:1.0;"/><path d="M347.4572,832.6118 A9,9 0 0 0 330.5428 832.6118" fill="none" style="stroke:#454645;stroke-width:1.5;"/></g><!--link model to sub--><g id="link_model_sub"><path d="M339,854.22 C339,869.04 339,900.72 339,922.8 " fill="none" id="model-sub" style="stroke:#454645;stroke-width:1.0;"/></g><!--link service to subDriver--><g id="link_service_subDriver"><path d="M421.85,742.5 C433.46,742.5 435.07,742.5 446.69,742.5 " fill="none" id="service-to-subDriver" style="stroke:#454645;stroke-width:1.0;"/><path d="M453.6118,734.0428 A9,9 0 0 0 453.6118 750.9572" fill="none" style="stroke:#454645;stroke-width:1.5;"/></g><!--link subDriver to driver--><g id="link_subDriver_driver"><path d="M475.1,742.5 C486.59,742.5 498.08,742.5 509.57,742.5 " fill="none" id="subDriver-driver" style="stroke:#454645;stroke-width:1.0;"/></g><!--reverse link planDriver to service--><g id="link_planDriver_service"><path d="M231.43,742.5 C243.06,742.5 244.7,742.5 256.33,742.5 " fill="none" id="planDriver-backto-service" style="stroke:#454645;stroke-width:1.0;"/><path d="M224.5082,750.9572 A9,9 0 0 0 224.5082 734.0428" fill="none" style="stroke:#454645;stroke-width:1.5;"/></g><!--link pDriver to planDriver--><g id="link_pDriver_planDriver"><path d="M168.25,742.5 C179.76,742.5 191.26,742.5 202.77,742.5 " fill="none" id="pDriver-planDriver" style="stroke:#454645;stroke-width:1.0;"/></g><!--link sRepo to repos--><g id="link_sRepo_repos"><path d="M567.02,562.06 C577.33,584.11 592.16,615.81 599.11,630.69 " fill="none" id="sRepo-repos" style="stroke:#454645;stroke-width:1.0;"/></g><!--link repo to repos--><g id="link_repo_repos"><path d="M757.64,562.06 C709.13,586.2 637.36,621.9 612.15,634.45 " fill="none" id="repo-repos" style="stroke:#454645;stroke-width:1.0;"/></g><!--reverse link repos to driver--><g id="link_repos_driver"><path d="M603,659.22 C603,674.04 603,695.72 603,717.8 " fill="none" id="repos-backto-driver" style="stroke:#454645;stroke-width:1.0;"/><path d="M594.5428,652.2982 A9,9 0 0 0 611.4572 652.2982" fill="none" style="stroke:#454645;stroke-width:1.5;"/></g><!--reverse link planHttpInterface to pDriver--><g id="link_planHttpInterface_pDriver"><path d="M103.2722,659.2121 C102.6822,674.0321 101.82,695.72 100.94,717.8 " fill="none" id="planHttpInterface-backto-pDriver" style="stroke:#454645;stroke-width:1.0;"/><path d="M95.097,651.9593 A9,9 0 0 0 111.9981 652.6322" fill="none" style="stroke:#454645;stroke-width:1.5;"/></g><!--link pRepo to planHttpInterface--><g id="link_pRepo_planHttpInterface"><path d="M107.83,562.06 C106.73,584.11 105.15,615.81 104.41,630.69 " fill="none" id="pRepo-planHttpInterface" style="stroke:#454645;stroke-width:1.0;"/></g><!--link routes to subHTTPDriver--><!--link planHTTPDriver to routes--><!--reverse link subHttpInterface to sRepo--><g id="link_subHttpInterface_sRepo"><path d="M506.8882,452.8464 C515.5782,467.6664 529.12,490.72 542.09,512.8 " fill="none" id="subHttpInterface-backto-sRepo" style="stroke:#454645;stroke-width:1.0;"/><path d="M496.0915,451.1532 A9,9 0 0 0 510.6825 442.5975" fill="none" style="stroke:#454645;stroke-width:1.5;"/></g><!--link subHTTPDriver to subHttpInterface--><g id="link_subHTTPDriver_subHttpInterface"><path d="M452.6,357.06 C465.32,379.11 483.62,410.81 492.21,425.69 " fill="none" id="subHTTPDriver-subHttpInterface" style="stroke:#454645;stroke-width:1.0;"/></g><!--reverse link subDBInterface to repo--><g id="link_subDBInterface_repo"><path d="M826.3679,453.9019 C822.5379,468.7219 816.84,490.72 811.13,512.8 " fill="none" id="subDBInterface-backto-repo" style="stroke:#454645;stroke-width:1.0;"/><path d="M819.9116,445.0841 A9,9 0 0 0 836.288 449.3164" fill="none" style="stroke:#454645;stroke-width:1.5;"/></g><!--link subDBDriver to subDBInterface--><g id="link_subDBDriver_subDBInterface"><path d="M851.67,357.06 C845.75,379.11 837.23,410.81 833.23,425.69 " fill="none" id="subDBDriver-subDBInterface" style="stroke:#454645;stroke-width:1.0;"/></g><!--reverse link planHttpInterface2 to pRepo--><g id="link_planHttpInterface2_pRepo"><path d="M105.7278,454.2121 C106.3178,469.0321 107.18,490.72 108.06,512.8 " fill="none" id="planHttpInterface2-backto-pRepo" style="stroke:#454645;stroke-width:1.0;"/><path d="M97.0019,447.6322 A9,9 0 0 0 113.903 446.9593" fill="none" style="stroke:#454645;stroke-width:1.5;"/></g><!--link planHTTPDriver to planHttpInterface2--><g id="link_planHTTPDriver_planHttpInterface2"><path d="M102.7,357.06 C103.36,379.11 104.31,410.81 104.75,425.69 " fill="none" id="planHTTPDriver-planHttpInterface2" style="stroke:#454645;stroke-width:1.0;"/></g><!--link apiPlans to planHTTPDriver--><g id="link_apiPlans_planHTTPDriver"><path d="M104.85,236.12 C104.46,249.08 103.42,283.83 102.71,307.61 " fill="none" id="apiPlans-planHTTPDriver" style="stroke:#454645;stroke-width:1.0;"/></g><!--link apiSubscriptions to subHTTPDriver--><g id="link_apiSubscriptions_subHTTPDriver"><path d="M480.76,236.12 C475.08,249.08 459.87,283.83 449.46,307.61 " fill="none" id="apiSubscriptions-subHTTPDriver" style="stroke:#454645;stroke-width:1.0;"/></g><!--link dbSubscriptions to subDBDriver--><g id="link_dbSubscriptions_subDBDriver"><path d="M711.19,235.06 C729.58,247.15 784.96,283.52 822.19,307.98 " fill="none" id="dbSubscriptions-subDBDriver" style="stroke:#454645;stroke-width:1.0;"/></g><!--link subHTTPDriver to subDBDriver--><!--SRC=[ZLLDYzim4BthLwYvj3suWJsMPQ6E2vjB2KbkfGV5LZTY7SdeOs4f_U_LbsL9bfrcoHBFl3VpHfuPVRnAEOYls-tG8ohLhV_IijjMVmT6CPLLHz0BHpS0FiWhlc4esJi0ufNG0MaplA3szOKpHRiTwnc7Puweq2vD1O1GYVblr6AuqNz8m8FE8NOwzjvu2e1dBMRN4yEU-Kxg8bfE1aaOdMAimfhQ9mhrm8r90LqEY__1ElnyFXyIa1KAZzzFP_Zji4-rnxWuMORFvO8EINH10kUifYvocZfHzFWuHazGukafC8M0Vm3Kdu5nIIZS1COH3qmGoVYxAyDIq43i0oXpaYoMm9Iy6txEqcaIOnB2rRuUeBlC-T717BKix93S_im1wOkWahE-nzmIMidxDVW9ypVIOeiLxlSQtE7K9SUOOpOjDfLfaODvNejNu8XxdARE6Bn0C89oCGqdRtfKLa9dZAv8S65Scq5JW8lkJw1PuwHZ4RZwGEzIctg4DdK4d2q7yy9FIqxNFZkvuBxfHT6NNIRlIbPJ_PhVl2AnJ3KRQpyw5WNy7yfln6NCBE4307y1c1OphBhAhe9qcSFFnXvsId5P1qmwq8MDxP3vv0CmBciZubDyMmGnLbvsp-HYBAPydQHQPi1meG3NBB1IxZ36HoDhwYFJRXQIc_gVLz9rcFwg_1PmPZwPtQ3R_udTZhE7csHZH_lrPBEDjibeaAv_TGzOZ7kQ45mZfZPsiwrrLf5n0lSQ73MrtnqcI6mUrNULxt2UFeOioXoQCuLGogT8ste84UU-y0xYKqnsHxg5qcDrLuTNhDnXfF6JM5R33E8hzFHurgBDD59ZzrXOiUg7cV1I_NfESvYA1ZANhmg3cAfKXG7CWgGdFLB_0G00]--></g></svg>