<?xml version="1.0" encoding="us-ascii" standalone="no"?><svg xmlns="http://www.w3.org/2000/svg" xmlns:xlink="http://www.w3.org/1999/xlink" contentStyleType="text/css" height="658.3333px" preserveAspectRatio="none" style="width:547px;height:658px;" version="1.1" viewBox="0 0 547 658" width="547.9167px" zoomAndPan="magnify"><defs><linearGradient id="g40ugrpl2t5z40" x1="50%" x2="50%" y1="0%" y2="100%"><stop offset="0%" stop-color="#D3F198"/><stop offset="100%" stop-color="#B5E853"/></linearGradient></defs><g><rect fill="#557F91" height="380.4749" style="stroke:#6A9FB5;stroke-width:1.0416666666666667;" width="10.4167" x="192.7083" y="93.925"/><rect fill="#557F91" height="51.65" style="stroke:#6A9FB5;stroke-width:1.0416666666666667;" width="10.4167" x="197.9167" y="142.45"/><rect fill="#557F91" height="51.65" style="stroke:#6A9FB5;stroke-width:1.0416666666666667;" width="10.4167" x="197.9167" y="375.2665"/><rect fill="#557F91" height="85.1583" style="stroke:#6A9FB5;stroke-width:1.0416666666666667;" width="10.4167" x="437.5" y="241.5833"/><rect fill="#151515" height="333.5999" rx="20.8333" ry="20.8333" style="stroke:#B5E853;stroke-width:1.0416666666666667;" width="514.0625" x="21.875" y="257.2083"/><path d="M21.875,482.7332 L535.9375,482.7332 L535.9375,569.9748 A20.8333,20.8333 0 0 1 515.1042,590.8081 L42.7083,590.8081 A20.8333,20.8333 0 0 1 21.875,569.9748 L21.875,482.7332 " fill="#151515" style="stroke:none;stroke-width:1.0416666666666667;"/><line style="stroke:#6A9FB5;stroke-width:1.0416666666666667;stroke-dasharray:5.0,5.0;" x1="197.3958" x2="197.3958" y1="51.65" y2="608.5164"/><line style="stroke:#6A9FB5;stroke-width:1.0416666666666667;stroke-dasharray:5.0,5.0;" x1="442.1875" x2="442.1875" y1="51.65" y2="608.5164"/><rect fill="url(#g40ugrpl2t5z40)" height="40.1917" rx="20.8333" ry="20.8333" style="stroke:#D3F198;stroke-width:2.0833333333333335;" width="82.2917" x="156.7708" y="10.4167"/><text fill="#000000" font-family="Verdana" font-size="12.5" lengthAdjust="spacing" textLength="57.2917" x="169.2708" y="35.4838">Plans:P1</text><rect fill="url(#g40ugrpl2t5z40)" height="40.1917" rx="20.8333" ry="20.8333" style="stroke:#D3F198;stroke-width:2.0833333333333335;" width="82.2917" x="156.7708" y="607.4748"/><text fill="#000000" font-family="Verdana" font-size="12.5" lengthAdjust="spacing" textLength="57.2917" x="169.2708" y="632.5419">Plans:P1</text><rect fill="url(#g40ugrpl2t5z40)" height="40.1917" rx="20.8333" ry="20.8333" style="stroke:#D3F198;stroke-width:2.0833333333333335;" width="82.2917" x="401.5625" y="10.4167"/><text fill="#000000" font-family="Verdana" font-size="12.5" lengthAdjust="spacing" textLength="57.2917" x="414.0625" y="35.4838">Plans:P2</text><rect fill="url(#g40ugrpl2t5z40)" height="40.1917" rx="20.8333" ry="20.8333" style="stroke:#D3F198;stroke-width:2.0833333333333335;" width="82.2917" x="401.5625" y="607.4748"/><text fill="#000000" font-family="Verdana" font-size="12.5" lengthAdjust="spacing" textLength="57.2917" x="414.0625" y="632.5419">Plans:P2</text><rect fill="#557F91" height="380.4749" style="stroke:#6A9FB5;stroke-width:1.0416666666666667;" width="10.4167" x="192.7083" y="93.925"/><rect fill="#557F91" height="51.65" style="stroke:#6A9FB5;stroke-width:1.0416666666666667;" width="10.4167" x="197.9167" y="142.45"/><rect fill="#557F91" height="51.65" style="stroke:#6A9FB5;stroke-width:1.0416666666666667;" width="10.4167" x="197.9167" y="375.2665"/><rect fill="#557F91" height="85.1583" style="stroke:#6A9FB5;stroke-width:1.0416666666666667;" width="10.4167" x="437.5" y="241.5833"/><ellipse cx="18.2292" cy="93.1437" fill="none" rx="4.1667" ry="4.1667" style="stroke:#B5E853;stroke-width:1.5625;"/><polygon fill="#B5E853" points="180.2083,89.7583,190.625,93.925,180.2083,98.0916,184.375,93.925" style="stroke:#B5E853;stroke-width:1.0416666666666667;"/><line style="stroke:#B5E853;stroke-width:3.125;" x1="22.9167" x2="186.4583" y1="93.925" y2="93.925"/><text fill="#808080" font-family="Verdana" font-size="12.5" font-weight="bold" lengthAdjust="spacing" textLength="9.375" x="31.25" y="84.0088">1</text><text fill="#808080" font-family="Verdana" font-size="12.5" lengthAdjust="spacing" textLength="119.7917" x="55.2083" y="84.0088">POST/create(plan)</text><line style="stroke:#B5E853;stroke-width:3.125;" x1="203.125" x2="252.0833" y1="128.9083" y2="128.9083"/><line style="stroke:#B5E853;stroke-width:3.125;" x1="252.0833" x2="252.0833" y1="128.9083" y2="142.45"/><line style="stroke:#B5E853;stroke-width:3.125;" x1="209.375" x2="252.0833" y1="142.45" y2="142.45"/><polygon fill="#B5E853" points="219.7917,138.2833,209.375,142.45,219.7917,146.6166,215.625,142.45" style="stroke:#B5E853;stroke-width:1.0416666666666667;"/><text fill="#808080" font-family="Verdana" font-size="12.5" font-weight="bold" lengthAdjust="spacing" textLength="9.375" x="220.8333" y="118.9921">2</text><text fill="#808080" font-family="Verdana" font-size="12.5" lengthAdjust="spacing" textLength="123.9583" x="244.7917" y="118.9921">findByName(name)</text><line style="stroke:#B5E853;stroke-width:3.125;stroke-dasharray:2.0,2.0;" x1="208.3333" x2="252.0833" y1="193.0583" y2="193.0583"/><line style="stroke:#B5E853;stroke-width:3.125;stroke-dasharray:2.0,2.0;" x1="252.0833" x2="252.0833" y1="193.0583" y2="206.5999"/><line style="stroke:#B5E853;stroke-width:3.125;stroke-dasharray:2.0,2.0;" x1="203.125" x2="252.0833" y1="206.5999" y2="206.5999"/><polygon fill="#B5E853" points="213.5417,202.4333,203.125,206.5999,213.5417,210.7666,209.375,206.5999" style="stroke:#B5E853;stroke-width:1.0416666666666667;"/><text fill="#808080" font-family="Verdana" font-size="12.5" font-weight="bold" lengthAdjust="spacing" textLength="9.375" x="220.8333" y="183.1421">3</text><text fill="#808080" font-family="Verdana" font-size="12.5" lengthAdjust="spacing" textLength="22.9167" x="244.7917" y="183.1421">null</text><polygon fill="#B5E853" points="425,237.4166,435.4167,241.5833,425,245.7499,429.1667,241.5833" style="stroke:#B5E853;stroke-width:1.0416666666666667;"/><line style="stroke:#B5E853;stroke-width:3.125;" x1="203.125" x2="431.25" y1="241.5833" y2="241.5833"/><text fill="#808080" font-family="Verdana" font-size="12.5" font-weight="bold" lengthAdjust="spacing" textLength="9.375" x="215.625" y="231.6671">4</text><text fill="#808080" font-family="Verdana" font-size="12.5" lengthAdjust="spacing" textLength="180.2083" x="239.5833" y="231.6671">GET/internal/name/{name}</text><path d="M42.7083,257.2083 L96.875,257.2083 L96.875,274.4832 L86.4583,284.8999 L21.875,284.8999 L21.875,278.0416 A20.8333,20.8333 0 0 1 42.7083,257.2083 " fill="#151515" style="stroke:#EAEAEA;stroke-width:1.0416666666666667;"/><rect fill="none" height="333.5999" rx="20.8333" ry="20.8333" style="stroke:#B5E853;stroke-width:1.0416666666666667;" width="514.0625" x="21.875" y="257.2083"/><text fill="#808080" font-family="Verdana" font-size="12.5" font-weight="bold" lengthAdjust="spacing" textLength="17.7083" x="42.7083" y="276.0254">alt</text><text fill="#808080" font-family="Verdana" font-size="12.5" font-weight="bold" lengthAdjust="spacing" textLength="110.4167" x="117.7083" y="277.0671">[plan not found]</text><polygon fill="#B5E853" points="214.5833,322.5749,204.1667,326.7415,214.5833,330.9082,210.4167,326.7415" style="stroke:#B5E853;stroke-width:1.0416666666666667;"/><line style="stroke:#B5E853;stroke-width:3.125;stroke-dasharray:2.0,2.0;" x1="208.3333" x2="441.6667" y1="326.7415" y2="326.7415"/><text fill="#808080" font-family="Verdana" font-size="12.5" font-weight="bold" lengthAdjust="spacing" textLength="9.375" x="226.0417" y="316.8254">5</text><text fill="#808080" font-family="Verdana" font-size="12.5" lengthAdjust="spacing" textLength="25" x="250" y="316.8254">404</text><line style="stroke:#B5E853;stroke-width:3.125;" x1="203.125" x2="252.0833" y1="361.7249" y2="361.7249"/><line style="stroke:#B5E853;stroke-width:3.125;" x1="252.0833" x2="252.0833" y1="361.7249" y2="375.2665"/><line style="stroke:#B5E853;stroke-width:3.125;" x1="209.375" x2="252.0833" y1="375.2665" y2="375.2665"/><polygon fill="#B5E853" points="219.7917,371.0999,209.375,375.2665,219.7917,379.4332,215.625,375.2665" style="stroke:#B5E853;stroke-width:1.0416666666666667;"/><text fill="#808080" font-family="Verdana" font-size="12.5" font-weight="bold" lengthAdjust="spacing" textLength="9.375" x="220.8333" y="351.8087">6</text><text fill="#808080" font-family="Verdana" font-size="12.5" lengthAdjust="spacing" textLength="69.7917" x="244.7917" y="351.8087">save(plan)</text><line style="stroke:#B5E853;stroke-width:3.125;stroke-dasharray:2.0,2.0;" x1="208.3333" x2="252.0833" y1="425.8748" y2="425.8748"/><line style="stroke:#B5E853;stroke-width:3.125;stroke-dasharray:2.0,2.0;" x1="252.0833" x2="252.0833" y1="425.8748" y2="439.4165"/><line style="stroke:#B5E853;stroke-width:3.125;stroke-dasharray:2.0,2.0;" x1="203.125" x2="252.0833" y1="439.4165" y2="439.4165"/><polygon fill="#B5E853" points="213.5417,435.2498,203.125,439.4165,213.5417,443.5832,209.375,439.4165" style="stroke:#B5E853;stroke-width:1.0416666666666667;"/><text fill="#808080" font-family="Verdana" font-size="12.5" font-weight="bold" lengthAdjust="spacing" textLength="9.375" x="220.8333" y="415.9587">7</text><text fill="#808080" font-family="Verdana" font-size="12.5" lengthAdjust="spacing" textLength="28.125" x="244.7917" y="415.9587">plan</text><ellipse cx="18.2292" cy="473.6186" fill="none" rx="4.1667" ry="4.1667" style="stroke:#B5E853;stroke-width:1.5625;"/><polygon fill="#B5E853" points="35.9375,470.2332,25.5208,474.3998,35.9375,478.5665,31.7708,474.3998" style="stroke:#B5E853;stroke-width:1.0416666666666667;"/><line style="stroke:#B5E853;stroke-width:3.125;stroke-dasharray:2.0,2.0;" x1="33.8542" x2="196.875" y1="474.3998" y2="474.3998"/><text fill="#808080" font-family="Verdana" font-size="12.5" font-weight="bold" lengthAdjust="spacing" textLength="9.375" x="41.6667" y="464.4836">8</text><text fill="#808080" font-family="Verdana" font-size="12.5" lengthAdjust="spacing" textLength="58.3333" x="65.625" y="464.4836">201/plan</text><line style="stroke:#B5E853;stroke-width:1.0416666666666667;stroke-dasharray:2.0,2.0;" x1="21.875" x2="535.9375" y1="483.7748" y2="483.7748"/><text fill="#808080" font-family="Verdana" font-size="12.5" font-weight="bold" lengthAdjust="spacing" textLength="84.375" x="32.2917" y="501.5503">[plan found]</text><polygon fill="#B5E853" points="209.375,538.1165,198.9583,542.2831,209.375,546.4498,205.2083,542.2831" style="stroke:#B5E853;stroke-width:1.0416666666666667;"/><line style="stroke:#B5E853;stroke-width:3.125;stroke-dasharray:2.0,2.0;" x1="203.125" x2="441.6667" y1="542.2831" y2="542.2831"/><text fill="#808080" font-family="Verdana" font-size="12.5" font-weight="bold" lengthAdjust="spacing" textLength="9.375" x="220.8333" y="532.3669">9</text><text fill="#808080" font-family="Verdana" font-size="12.5" lengthAdjust="spacing" textLength="58.3333" x="244.7917" y="532.3669">200/plan</text><ellipse cx="18.2292" cy="581.6935" fill="none" rx="4.1667" ry="4.1667" style="stroke:#B5E853;stroke-width:1.5625;"/><polygon fill="#B5E853" points="35.9375,578.3081,25.5208,582.4748,35.9375,586.6414,31.7708,582.4748" style="stroke:#B5E853;stroke-width:1.0416666666666667;"/><line style="stroke:#B5E853;stroke-width:3.125;stroke-dasharray:2.0,2.0;" x1="33.8542" x2="196.875" y1="582.4748" y2="582.4748"/><text fill="#808080" font-family="Verdana" font-size="12.5" font-weight="bold" lengthAdjust="spacing" textLength="18.75" x="41.6667" y="572.5586">10</text><text fill="#808080" font-family="Verdana" font-size="12.5" lengthAdjust="spacing" textLength="25" x="75" y="572.5586">4XX</text><!--SRC=[RP4nJyCm48Nt-nL75zeXE8aoHOYX2Bf193fKOZgIAxNgs26sArM8_uwTj3GIzN2o_RrxzopVxfphR2b4fqWxtwgxshJ2yfTdNNFIIFhigGKWxupsxGVtmvPg9m_a68q6k74xRXbtLEy31hkNkgFGXGrloIltRBHxDChqkEhvEE6XEbdBBao-Q9Og-C04uQmAsMnPPJCaYrLs5UOZp07WtIGFGLPYzVgs5dNF8UWylcy1K6LuWbkfc-NnXLgUwr0M0penxPKwI_CILqzh8RNZNfCIKIo-O_q9iu2Km-YDsZZS6gyRgF8_eo8jfZCj7Sv99jFYHKnzdoJ3EK-puJk0bUNH_9zndgQZvj9MR3R0GHNNBm00]--></g></svg>