<?xml version="1.0" encoding="us-ascii" standalone="no"?><svg xmlns="http://www.w3.org/2000/svg" xmlns:xlink="http://www.w3.org/1999/xlink" contentStyleType="text/css" height="879.1667px" preserveAspectRatio="none" style="width:1015px;height:879px;" version="1.1" viewBox="0 0 1015 879" width="1015.625px" zoomAndPan="magnify"><defs><linearGradient id="ghdfkd0avshoz0" x1="50%" x2="50%" y1="0%" y2="100%"><stop offset="0%" stop-color="#D3F198"/><stop offset="100%" stop-color="#B5E853"/></linearGradient><linearGradient id="ghdfkd0avshoz1" x1="50%" x2="50%" y1="0%" y2="100%"><stop offset="0%" stop-color="#BB91B2"/><stop offset="100%" stop-color="#885E7F"/></linearGradient></defs><g><rect fill="#557F91" height="555.3914" style="stroke:#6A9FB5;stroke-width:1.0416666666666667;" width="10.4167" x="403.125" y="247.5749"/><rect fill="#557F91" height="96.6166" style="stroke:#6A9FB5;stroke-width:1.0416666666666667;" width="10.4167" x="408.3333" y="296.0999"/><rect fill="#557F91" height="74.1333" style="stroke:#6A9FB5;stroke-width:1.0416666666666667;" width="10.4167" x="408.3333" y="520.5831"/><rect fill="#557F91" height="120.575" style="stroke:#6A9FB5;stroke-width:1.0416666666666667;" width="10.4167" x="704.1667" y="642.1997"/><rect fill="#557F91" height="40.1917" style="stroke:#6A9FB5;stroke-width:1.0416666666666667;" width="10.4167" x="905.7292" y="440.1998"/><rect fill="#557F91" height="40.1917" style="stroke:#6A9FB5;stroke-width:1.0416666666666667;" width="10.4167" x="905.7292" y="682.3914"/><rect fill="#151515" height="494.3665" rx="20.8333" ry="20.8333" style="stroke:#B5E853;stroke-width:1.0416666666666667;" width="981.7708" x="21.875" y="316.9332"/><path d="M21.875,528.9164 L1003.6458,528.9164 L1003.6458,790.4663 A20.8333,20.8333 0 0 1 982.8125,811.2996 L42.7083,811.2996 A20.8333,20.8333 0 0 1 21.875,790.4663 L21.875,528.9164 " fill="#151515" style="stroke:none;stroke-width:1.0416666666666667;"/><line style="stroke:#6A9FB5;stroke-width:1.0416666666666667;stroke-dasharray:5.0,5.0;" x1="407.8125" x2="407.8125" y1="51.65" y2="829.008"/><line style="stroke:#6A9FB5;stroke-width:1.0416666666666667;stroke-dasharray:5.0,5.0;" x1="708.8542" x2="708.8542" y1="51.65" y2="829.008"/><line style="stroke:#6A9FB5;stroke-width:1.0416666666666667;stroke-dasharray:5.0,5.0;" x1="910.9375" x2="910.9375" y1="51.65" y2="829.008"/><rect fill="url(#ghdfkd0avshoz0)" height="40.1917" rx="20.8333" ry="20.8333" style="stroke:#D3F198;stroke-width:2.0833333333333335;" width="134.375" x="341.1458" y="10.4167"/><text fill="#000000" font-family="Verdana" font-size="12.5" lengthAdjust="spacing" textLength="109.375" x="353.6458" y="35.4838">Subscriptions:S2</text><rect fill="url(#ghdfkd0avshoz0)" height="40.1917" rx="20.8333" ry="20.8333" style="stroke:#D3F198;stroke-width:2.0833333333333335;" width="134.375" x="341.1458" y="827.9663"/><text fill="#000000" font-family="Verdana" font-size="12.5" lengthAdjust="spacing" textLength="109.375" x="353.6458" y="853.0334">Subscriptions:S2</text><rect fill="url(#ghdfkd0avshoz0)" height="40.1917" rx="20.8333" ry="20.8333" style="stroke:#D3F198;stroke-width:2.0833333333333335;" width="134.375" x="642.1875" y="10.4167"/><text fill="#000000" font-family="Verdana" font-size="12.5" lengthAdjust="spacing" textLength="109.375" x="654.6875" y="35.4838">Subscriptions:S1</text><rect fill="url(#ghdfkd0avshoz0)" height="40.1917" rx="20.8333" ry="20.8333" style="stroke:#D3F198;stroke-width:2.0833333333333335;" width="134.375" x="642.1875" y="827.9663"/><text fill="#000000" font-family="Verdana" font-size="12.5" lengthAdjust="spacing" textLength="109.375" x="654.6875" y="853.0334">Subscriptions:S1</text><rect fill="url(#ghdfkd0avshoz0)" height="40.1917" rx="20.8333" ry="20.8333" style="stroke:#D3F198;stroke-width:2.0833333333333335;" width="81.25" x="870.3125" y="10.4167"/><text fill="#000000" font-family="Verdana" font-size="12.5" lengthAdjust="spacing" textLength="56.25" x="882.8125" y="35.4838">Plans:P?</text><rect fill="url(#ghdfkd0avshoz0)" height="40.1917" rx="20.8333" ry="20.8333" style="stroke:#D3F198;stroke-width:2.0833333333333335;" width="81.25" x="870.3125" y="827.9663"/><text fill="#000000" font-family="Verdana" font-size="12.5" lengthAdjust="spacing" textLength="56.25" x="882.8125" y="853.0334">Plans:P?</text><rect fill="#557F91" height="555.3914" style="stroke:#6A9FB5;stroke-width:1.0416666666666667;" width="10.4167" x="403.125" y="247.5749"/><rect fill="#557F91" height="96.6166" style="stroke:#6A9FB5;stroke-width:1.0416666666666667;" width="10.4167" x="408.3333" y="296.0999"/><rect fill="#557F91" height="74.1333" style="stroke:#6A9FB5;stroke-width:1.0416666666666667;" width="10.4167" x="408.3333" y="520.5831"/><rect fill="#557F91" height="120.575" style="stroke:#6A9FB5;stroke-width:1.0416666666666667;" width="10.4167" x="704.1667" y="642.1997"/><rect fill="#557F91" height="40.1917" style="stroke:#6A9FB5;stroke-width:1.0416666666666667;" width="10.4167" x="905.7292" y="440.1998"/><rect fill="#557F91" height="40.1917" style="stroke:#6A9FB5;stroke-width:1.0416666666666667;" width="10.4167" x="905.7292" y="682.3914"/><path d="M15.625,88.1083 L15.625,112.0667 A20.8333,20.8333 0 0 0 36.4583,132.9 L382.2917,132.9 A20.8333,20.8333 0 0 0 403.125,112.0667 L403.125,77.6917 L392.7083,67.275 L36.4583,67.275 A20.8333,20.8333 0 0 0 15.625,88.1083 " fill="url(#ghdfkd0avshoz1)" style="stroke:#885E7F;stroke-width:1.0416666666666667;"/><path d="M392.7083,67.275 L392.7083,67.275 A10.4167,10.4167 0 0 0 403.125,77.6917 L403.125,77.6917 L392.7083,67.275 " fill="url(#ghdfkd0avshoz1)" style="stroke:#885E7F;stroke-width:1.0416666666666667;"/><text fill="#000000" font-family="Verdana" font-size="12.5" lengthAdjust="spacing" textLength="323.9583" x="27.0833" y="90.2588">The username that is used to get the information</text><text fill="#000000" font-family="Verdana" font-size="12.5" lengthAdjust="spacing" textLength="355.2083" x="27.0833" y="105.4504">is extracted from the jwt token, so if the token is valid</text><text fill="#000000" font-family="Verdana" font-size="12.5" lengthAdjust="spacing" textLength="290.625" x="27.0833" y="120.6421">the subscriber exists in one of the instances</text><path d="M593.75,164.9333 L593.75,188.8916 A20.8333,20.8333 0 0 0 614.5833,209.7249 L884.375,209.7249 A20.8333,20.8333 0 0 0 905.2083,188.8916 L905.2083,154.5166 L894.7917,144.0999 L614.5833,144.0999 A20.8333,20.8333 0 0 0 593.75,164.9333 " fill="url(#ghdfkd0avshoz1)" style="stroke:#885E7F;stroke-width:1.0416666666666667;"/><path d="M894.7917,144.0999 L894.7917,144.0999 A10.4167,10.4167 0 0 0 905.2083,154.5166 L905.2083,154.5166 L894.7917,144.0999 " fill="url(#ghdfkd0avshoz1)" style="stroke:#885E7F;stroke-width:1.0416666666666667;"/><text fill="#000000" font-family="Verdana" font-size="12.5" lengthAdjust="spacing" textLength="279.1667" x="605.2083" y="167.0837">Because a subscription can not be created</text><text fill="#000000" font-family="Verdana" font-size="12.5" lengthAdjust="spacing" textLength="279.1667" x="605.2083" y="182.2754">without a valid plan, the return of the plan</text><text fill="#000000" font-family="Verdana" font-size="12.5" lengthAdjust="spacing" textLength="151.0417" x="605.2083" y="197.467">will never be not found</text><ellipse cx="18.2292" cy="246.7936" fill="none" rx="4.1667" ry="4.1667" style="stroke:#B5E853;stroke-width:1.5625;"/><polygon fill="#B5E853" points="390.625,243.4082,401.0417,247.5749,390.625,251.7415,394.7917,247.5749" style="stroke:#B5E853;stroke-width:1.0416666666666667;"/><line style="stroke:#B5E853;stroke-width:3.125;" x1="22.9167" x2="396.875" y1="247.5749" y2="247.5749"/><text fill="#808080" font-family="Verdana" font-size="12.5" font-weight="bold" lengthAdjust="spacing" textLength="9.375" x="31.25" y="237.6587">1</text><text fill="#808080" font-family="Verdana" font-size="12.5" lengthAdjust="spacing" textLength="132.2917" x="55.2083" y="237.6587">GET/userPlanDetails</text><line style="stroke:#B5E853;stroke-width:3.125;" x1="413.5417" x2="462.5" y1="282.5582" y2="282.5582"/><line style="stroke:#B5E853;stroke-width:3.125;" x1="462.5" x2="462.5" y1="282.5582" y2="296.0999"/><line style="stroke:#B5E853;stroke-width:3.125;" x1="419.7917" x2="462.5" y1="296.0999" y2="296.0999"/><polygon fill="#B5E853" points="430.2083,291.9332,419.7917,296.0999,430.2083,300.2665,426.0417,296.0999" style="stroke:#B5E853;stroke-width:1.0416666666666667;"/><text fill="#808080" font-family="Verdana" font-size="12.5" font-weight="bold" lengthAdjust="spacing" textLength="9.375" x="431.25" y="272.642">2</text><text fill="#808080" font-family="Verdana" font-size="12.5" lengthAdjust="spacing" textLength="241.6667" x="455.2083" y="272.642">getDetailsByUsername(username,...)</text><path d="M42.7083,316.9332 L96.875,316.9332 L96.875,334.2082 L86.4583,344.6248 L21.875,344.6248 L21.875,337.7665 A20.8333,20.8333 0 0 1 42.7083,316.9332 " fill="#151515" style="stroke:#EAEAEA;stroke-width:1.0416666666666667;"/><rect fill="none" height="494.3665" rx="20.8333" ry="20.8333" style="stroke:#B5E853;stroke-width:1.0416666666666667;" width="981.7708" x="21.875" y="316.9332"/><text fill="#808080" font-family="Verdana" font-size="12.5" font-weight="bold" lengthAdjust="spacing" textLength="17.7083" x="42.7083" y="335.7503">alt</text><text fill="#808080" font-family="Verdana" font-size="12.5" font-weight="bold" lengthAdjust="spacing" textLength="127.0833" x="117.7083" y="336.792">[subscriber found]</text><line style="stroke:#B5E853;stroke-width:3.125;stroke-dasharray:2.0,2.0;" x1="418.75" x2="462.5" y1="391.6748" y2="391.6748"/><line style="stroke:#B5E853;stroke-width:3.125;stroke-dasharray:2.0,2.0;" x1="462.5" x2="462.5" y1="391.6748" y2="405.2165"/><line style="stroke:#B5E853;stroke-width:3.125;stroke-dasharray:2.0,2.0;" x1="413.5417" x2="462.5" y1="405.2165" y2="405.2165"/><polygon fill="#B5E853" points="423.9583,401.0498,413.5417,405.2165,423.9583,409.3831,419.7917,405.2165" style="stroke:#B5E853;stroke-width:1.0416666666666667;"/><text fill="#808080" font-family="Verdana" font-size="12.5" font-weight="bold" lengthAdjust="spacing" textLength="9.375" x="431.25" y="381.7586">3</text><text fill="#808080" font-family="Verdana" font-size="12.5" lengthAdjust="spacing" textLength="65.625" x="455.2083" y="381.7586">planName</text><polygon fill="#B5E853" points="893.2292,436.0331,903.6458,440.1998,893.2292,444.3665,897.3958,440.1998" style="stroke:#B5E853;stroke-width:1.0416666666666667;"/><line style="stroke:#B5E853;stroke-width:3.125;" x1="413.5417" x2="899.4792" y1="440.1998" y2="440.1998"/><text fill="#808080" font-family="Verdana" font-size="12.5" font-weight="bold" lengthAdjust="spacing" textLength="9.375" x="426.0417" y="430.2836">4</text><text fill="#808080" font-family="Verdana" font-size="12.5" lengthAdjust="spacing" textLength="58.3333" x="450" y="430.2836">GET/plan</text><polygon fill="#B5E853" points="425,476.2248,414.5833,480.3914,425,484.5581,420.8333,480.3914" style="stroke:#B5E853;stroke-width:1.0416666666666667;"/><line style="stroke:#B5E853;stroke-width:3.125;stroke-dasharray:2.0,2.0;" x1="418.75" x2="909.8958" y1="480.3914" y2="480.3914"/><text fill="#808080" font-family="Verdana" font-size="12.5" font-weight="bold" lengthAdjust="spacing" textLength="9.375" x="436.4583" y="470.4753">5</text><text fill="#808080" font-family="Verdana" font-size="12.5" lengthAdjust="spacing" textLength="28.125" x="460.4167" y="470.4753">plan</text><ellipse cx="18.2292" cy="519.8018" fill="none" rx="4.1667" ry="4.1667" style="stroke:#B5E853;stroke-width:1.5625;"/><polygon fill="#B5E853" points="35.9375,516.4164,25.5208,520.5831,35.9375,524.7498,31.7708,520.5831" style="stroke:#B5E853;stroke-width:1.0416666666666667;"/><line style="stroke:#B5E853;stroke-width:3.125;stroke-dasharray:2.0,2.0;" x1="33.8542" x2="402.0833" y1="520.5831" y2="520.5831"/><text fill="#808080" font-family="Verdana" font-size="12.5" font-weight="bold" lengthAdjust="spacing" textLength="9.375" x="41.6667" y="510.6669">6</text><text fill="#808080" font-family="Verdana" font-size="12.5" lengthAdjust="spacing" textLength="58.3333" x="65.625" y="510.6669">200/plan</text><line style="stroke:#B5E853;stroke-width:1.0416666666666667;stroke-dasharray:2.0,2.0;" x1="21.875" x2="1003.6458" y1="529.9581" y2="529.9581"/><text fill="#808080" font-family="Verdana" font-size="12.5" font-weight="bold" lengthAdjust="spacing" textLength="84.375" x="32.2917" y="547.7336">[plan found]</text><line style="stroke:#B5E853;stroke-width:3.125;stroke-dasharray:2.0,2.0;" x1="418.75" x2="462.5" y1="593.6747" y2="593.6747"/><line style="stroke:#B5E853;stroke-width:3.125;stroke-dasharray:2.0,2.0;" x1="462.5" x2="462.5" y1="593.6747" y2="607.2164"/><line style="stroke:#B5E853;stroke-width:3.125;stroke-dasharray:2.0,2.0;" x1="413.5417" x2="462.5" y1="607.2164" y2="607.2164"/><polygon fill="#B5E853" points="423.9583,603.0497,413.5417,607.2164,423.9583,611.3831,419.7917,607.2164" style="stroke:#B5E853;stroke-width:1.0416666666666667;"/><text fill="#808080" font-family="Verdana" font-size="12.5" font-weight="bold" lengthAdjust="spacing" textLength="9.375" x="431.25" y="583.7585">7</text><text fill="#808080" font-family="Verdana" font-size="12.5" lengthAdjust="spacing" textLength="22.9167" x="455.2083" y="583.7585">null</text><polygon fill="#B5E853" points="691.6667,638.033,702.0833,642.1997,691.6667,646.3664,695.8333,642.1997" style="stroke:#B5E853;stroke-width:1.0416666666666667;"/><line style="stroke:#B5E853;stroke-width:3.125;" x1="413.5417" x2="697.9167" y1="642.1997" y2="642.1997"/><text fill="#808080" font-family="Verdana" font-size="12.5" font-weight="bold" lengthAdjust="spacing" textLength="9.375" x="426.0417" y="632.2835">8</text><text fill="#808080" font-family="Verdana" font-size="12.5" lengthAdjust="spacing" textLength="187.5" x="450" y="632.2835">GET/internal/userPlanDetails</text><polygon fill="#B5E853" points="893.2292,678.2247,903.6458,682.3914,893.2292,686.558,897.3958,682.3914" style="stroke:#B5E853;stroke-width:1.0416666666666667;"/><line style="stroke:#B5E853;stroke-width:3.125;" x1="714.5833" x2="899.4792" y1="682.3914" y2="682.3914"/><text fill="#808080" font-family="Verdana" font-size="12.5" font-weight="bold" lengthAdjust="spacing" textLength="9.375" x="727.0833" y="672.4752">9</text><text fill="#808080" font-family="Verdana" font-size="12.5" lengthAdjust="spacing" textLength="58.3333" x="751.0417" y="672.4752">GET/plan</text><polygon fill="#B5E853" points="726.0417,718.4163,715.625,722.583,726.0417,726.7497,721.875,722.583" style="stroke:#B5E853;stroke-width:1.0416666666666667;"/><line style="stroke:#B5E853;stroke-width:3.125;stroke-dasharray:2.0,2.0;" x1="719.7917" x2="909.8958" y1="722.583" y2="722.583"/><text fill="#808080" font-family="Verdana" font-size="12.5" font-weight="bold" lengthAdjust="spacing" textLength="18.75" x="737.5" y="712.6668">10</text><text fill="#808080" font-family="Verdana" font-size="12.5" lengthAdjust="spacing" textLength="28.125" x="770.8333" y="712.6668">plan</text><polygon fill="#B5E853" points="425,758.608,414.5833,762.7747,425,766.9413,420.8333,762.7747" style="stroke:#B5E853;stroke-width:1.0416666666666667;"/><line style="stroke:#B5E853;stroke-width:3.125;stroke-dasharray:2.0,2.0;" x1="418.75" x2="708.3333" y1="762.7747" y2="762.7747"/><text fill="#808080" font-family="Verdana" font-size="12.5" font-weight="bold" lengthAdjust="spacing" textLength="18.75" x="436.4583" y="752.8585">11</text><text fill="#808080" font-family="Verdana" font-size="12.5" lengthAdjust="spacing" textLength="58.3333" x="469.7917" y="752.8585">200/plan</text><ellipse cx="18.2292" cy="802.1851" fill="none" rx="4.1667" ry="4.1667" style="stroke:#B5E853;stroke-width:1.5625;"/><polygon fill="#B5E853" points="35.9375,798.7996,25.5208,802.9663,35.9375,807.133,31.7708,802.9663" style="stroke:#B5E853;stroke-width:1.0416666666666667;"/><line style="stroke:#B5E853;stroke-width:3.125;stroke-dasharray:2.0,2.0;" x1="33.8542" x2="407.2917" y1="802.9663" y2="802.9663"/><text fill="#808080" font-family="Verdana" font-size="12.5" font-weight="bold" lengthAdjust="spacing" textLength="18.75" x="41.6667" y="793.0501">12</text><text fill="#808080" font-family="Verdana" font-size="12.5" lengthAdjust="spacing" textLength="58.3333" x="75" y="793.0501">200/plan</text><!--SRC=[ZLJ9Rjim4BtpAwQvj0MyH3uQHGkuIsw50AMdd6Xf5B6cI9KSEitVTuQI4zamWkfWGCEtpQFWzntH4BVhzM2rezJRLUtxTSG_2LsDoyRenw1xfNGYxrA_nw3KE-gmH-XqVP1NfUB1k44p3XfiTRBqmplwwgqFS1VmUNRElsHgCx3NAsPdMMa6SfxmybJDc71JfNsiWnd8U1UtrUO6T8HgyoQe6475EQZajUEs_98Foq8fCGUBBO5lHHBukUyGKiJWDAzDdIOmKGODa8T799uX6DVwq6jnooI6u5yAkYR6jS7t6VNxYT7-W6u1qODfyp0FX73KrZIPBUCuBi2TivA95Da3l4D9DZf6qdnBKQ5hSciNyNaVqTfXhJajw9DYhWHgxOG4UuGweEQO6VragFE969tJW7mOY-mNa59m9tUPJmHhmU6HOxAKABO-kMOMwi4lFtENMxZxVh-M8gNrRqZQsAYu87DaTobRLHkOe5phXDWz_vgw_t2wXCLgjVfunjIMvdsD2KHjafEqFvcf6hnYM1PZjhpJopdNLnQYS1AOa-LRUV2Vbiiilxcz7SbeurZD565kDelZahNNerHJ5ED8ThLlzCK9gk9_uXVNusVs5EXb0NKMw_gI5y7bfkLlu1y0]--></g></svg>