<?xml version="1.0" encoding="us-ascii" standalone="no"?><svg xmlns="http://www.w3.org/2000/svg" xmlns:xlink="http://www.w3.org/1999/xlink" contentStyleType="text/css" height="609px" preserveAspectRatio="none" style="width:1379px;height:609px;" version="1.1" viewBox="0 0 1379 609" width="1379px" zoomAndPan="magnify"><defs/><g><rect fill="#FFFFFF" height="481.6953" style="stroke:#454645;stroke-width:1.0;" width="10" x="148" y="71.9121"/><rect fill="#FFFFFF" height="419.1133" style="stroke:#454645;stroke-width:1.0;" width="10" x="254.5" y="103.2031"/><rect fill="#FFFFFF" height="262.6582" style="stroke:#454645;stroke-width:1.0;" width="10" x="364" y="134.4941"/><rect fill="#FFFFFF" height="93.873" style="stroke:#454645;stroke-width:1.0;" width="10" x="622" y="228.3672"/><rect fill="#FFFFFF" height="31.291" style="stroke:#454645;stroke-width:1.0;" width="10" x="733.5" y="259.6582"/><rect fill="#FFFFFF" height="31.291" style="stroke:#454645;stroke-width:1.0;" width="10" x="1313" y="165.7852"/><rect fill="#FFFFFF" height="31.291" style="stroke:#454645;stroke-width:1.0;" width="10" x="1313" y="428.4434"/><line style="stroke:#454645;stroke-width:0.5;stroke-dasharray:5.0,5.0;" x1="48" x2="48" y1="38.6211" y2="571.6074"/><line style="stroke:#454645;stroke-width:0.5;stroke-dasharray:5.0,5.0;" x1="153" x2="153" y1="38.6211" y2="571.6074"/><line style="stroke:#454645;stroke-width:0.5;stroke-dasharray:5.0,5.0;" x1="259" x2="259" y1="38.6211" y2="571.6074"/><line style="stroke:#454645;stroke-width:0.5;stroke-dasharray:5.0,5.0;" x1="369" x2="369" y1="38.6211" y2="571.6074"/><line style="stroke:#454645;stroke-width:0.5;stroke-dasharray:5.0,5.0;" x1="489" x2="489" y1="38.6211" y2="571.6074"/><line style="stroke:#454645;stroke-width:0.5;stroke-dasharray:5.0,5.0;" x1="627" x2="627" y1="38.6211" y2="571.6074"/><line style="stroke:#454645;stroke-width:0.5;stroke-dasharray:5.0,5.0;" x1="738" x2="738" y1="38.6211" y2="571.6074"/><line style="stroke:#454645;stroke-width:0.5;stroke-dasharray:5.0,5.0;" x1="1216" x2="1216" y1="362.0508" y2="571.6074"/><line style="stroke:#454645;stroke-width:0.5;stroke-dasharray:5.0,5.0;" x1="1318" x2="1318" y1="38.6211" y2="571.6074"/><rect fill="#FF6F61" height="32.6211" rx="3.5" ry="3.5" style="stroke:#454645;stroke-width:1.5;" width="86" x="5" y="5"/><text fill="#FFFFFF" font-family="sans-serif" font-size="14" lengthAdjust="spacing" textLength="72" x="12" y="27.1074">ClientHTTP</text><rect fill="#FF6F61" height="32.6211" rx="3.5" ry="3.5" style="stroke:#454645;stroke-width:1.5;" width="86" x="5" y="570.6074"/><text fill="#FFFFFF" font-family="sans-serif" font-size="14" lengthAdjust="spacing" textLength="72" x="12" y="592.7148">ClientHTTP</text><rect fill="#FF6F61" height="32.6211" rx="3.5" ry="3.5" style="stroke:#454645;stroke-width:1.5;" width="104" x="101" y="5"/><text fill="#FFFFFF" font-family="sans-serif" font-size="14" lengthAdjust="spacing" textLength="90" x="108" y="27.1074">PlanController</text><rect fill="#FF6F61" height="32.6211" rx="3.5" ry="3.5" style="stroke:#454645;stroke-width:1.5;" width="104" x="101" y="570.6074"/><text fill="#FFFFFF" font-family="sans-serif" font-size="14" lengthAdjust="spacing" textLength="90" x="108" y="592.7148">PlanController</text><rect fill="#FF6F61" height="32.6211" rx="3.5" ry="3.5" style="stroke:#454645;stroke-width:1.5;" width="89" x="215" y="5"/><text fill="#FFFFFF" font-family="sans-serif" font-size="14" lengthAdjust="spacing" textLength="75" x="222" y="27.1074">PlanService</text><rect fill="#FF6F61" height="32.6211" rx="3.5" ry="3.5" style="stroke:#454645;stroke-width:1.5;" width="89" x="215" y="570.6074"/><text fill="#FFFFFF" font-family="sans-serif" font-size="14" lengthAdjust="spacing" textLength="75" x="222" y="592.7148">PlanService</text><rect fill="#FF6F61" height="32.6211" rx="3.5" ry="3.5" style="stroke:#454645;stroke-width:1.5;" width="110" x="314" y="5"/><text fill="#FFFFFF" font-family="sans-serif" font-size="14" lengthAdjust="spacing" textLength="96" x="321" y="27.1074">PlanRepository</text><rect fill="#FF6F61" height="32.6211" rx="3.5" ry="3.5" style="stroke:#454645;stroke-width:1.5;" width="110" x="314" y="570.6074"/><text fill="#FFFFFF" font-family="sans-serif" font-size="14" lengthAdjust="spacing" textLength="96" x="321" y="592.7148">PlanRepository</text><rect fill="#FF6F61" height="32.6211" rx="3.5" ry="3.5" style="stroke:#454645;stroke-width:1.5;" width="110" x="434" y="5"/><text fill="#FFFFFF" font-family="sans-serif" font-size="14" lengthAdjust="spacing" textLength="96" x="441" y="27.1074">PlanRepository</text><rect fill="#FF6F61" height="32.6211" rx="3.5" ry="3.5" style="stroke:#454645;stroke-width:1.5;" width="110" x="434" y="570.6074"/><text fill="#FFFFFF" font-family="sans-serif" font-size="14" lengthAdjust="spacing" textLength="96" x="441" y="592.7148">PlanRepository</text><rect fill="#FF6F61" height="32.6211" rx="3.5" ry="3.5" style="stroke:#454645;stroke-width:1.5;" width="146" x="554" y="5"/><text fill="#FFFFFF" font-family="sans-serif" font-size="14" lengthAdjust="spacing" textLength="132" x="561" y="27.1074">PlanHTTPRepository</text><rect fill="#FF6F61" height="32.6211" rx="3.5" ry="3.5" style="stroke:#454645;stroke-width:1.5;" width="146" x="554" y="570.6074"/><text fill="#FFFFFF" font-family="sans-serif" font-size="14" lengthAdjust="spacing" textLength="132" x="561" y="592.7148">PlanHTTPRepository</text><rect fill="#FF6F61" height="32.6211" rx="3.5" ry="3.5" style="stroke:#454645;stroke-width:1.5;" width="57" x="710" y="5"/><text fill="#FFFFFF" font-family="sans-serif" font-size="14" lengthAdjust="spacing" textLength="43" x="717" y="27.1074">Plans2</text><rect fill="#FF6F61" height="32.6211" rx="3.5" ry="3.5" style="stroke:#454645;stroke-width:1.5;" width="57" x="710" y="570.6074"/><text fill="#FFFFFF" font-family="sans-serif" font-size="14" lengthAdjust="spacing" textLength="43" x="717" y="592.7148">Plans2</text><rect fill="#FF6F61" height="32.6211" rx="3.5" ry="3.5" style="stroke:#454645;stroke-width:1.5;" width="73" x="1180" y="570.6074"/><text fill="#FFFFFF" font-family="sans-serif" font-size="14" lengthAdjust="spacing" textLength="59" x="1187" y="592.7148">planJPA:Plan</text><rect fill="#FF6F61" height="32.6211" rx="3.5" ry="3.5" style="stroke:#454645;stroke-width:1.5;" width="110" x="1263" y="5"/><text fill="#FFFFFF" font-family="sans-serif" font-size="14" lengthAdjust="spacing" textLength="96" x="1270" y="27.1074">PlanRepository</text><rect fill="#FF6F61" height="32.6211" rx="3.5" ry="3.5" style="stroke:#454645;stroke-width:1.5;" width="110" x="1263" y="570.6074"/><text fill="#FFFFFF" font-family="sans-serif" font-size="14" lengthAdjust="spacing" textLength="96" x="1270" y="592.7148">PlanRepository</text><rect fill="#FFFFFF" height="481.6953" style="stroke:#454645;stroke-width:1.0;" width="10" x="148" y="71.9121"/><rect fill="#FFFFFF" height="419.1133" style="stroke:#454645;stroke-width:1.0;" width="10" x="254.5" y="103.2031"/><rect fill="#FFFFFF" height="262.6582" style="stroke:#454645;stroke-width:1.0;" width="10" x="364" y="134.4941"/><rect fill="#FFFFFF" height="93.873" style="stroke:#454645;stroke-width:1.0;" width="10" x="622" y="228.3672"/><rect fill="#FFFFFF" height="31.291" style="stroke:#454645;stroke-width:1.0;" width="10" x="733.5" y="259.6582"/><rect fill="#FFFFFF" height="31.291" style="stroke:#454645;stroke-width:1.0;" width="10" x="1313" y="165.7852"/><rect fill="#FFFFFF" height="31.291" style="stroke:#454645;stroke-width:1.0;" width="10" x="1313" y="428.4434"/><polygon fill="#454645" points="136,67.9121,146,71.9121,136,75.9121,140,71.9121" style="stroke:#454645;stroke-width:1.0;"/><line style="stroke:#454645;stroke-width:1.0;" x1="48" x2="142" y1="71.9121" y2="71.9121"/><text fill="#000000" font-family="sans-serif" font-size="13" font-weight="bold" lengthAdjust="spacing" textLength="7" x="55" y="66.6494">1</text><text fill="#000000" font-family="sans-serif" font-size="13" lengthAdjust="spacing" textLength="67" x="66" y="66.6494">Post/create</text><polygon fill="#454645" points="242.5,99.2031,252.5,103.2031,242.5,107.2031,246.5,103.2031" style="stroke:#454645;stroke-width:1.0;"/><line style="stroke:#454645;stroke-width:1.0;" x1="158" x2="248.5" y1="103.2031" y2="103.2031"/><text fill="#000000" font-family="sans-serif" font-size="13" font-weight="bold" lengthAdjust="spacing" textLength="7" x="165" y="97.9404">2</text><text fill="#000000" font-family="sans-serif" font-size="13" lengthAdjust="spacing" textLength="36" x="176" y="97.9404">create</text><polygon fill="#454645" points="352,130.4941,362,134.4941,352,138.4941,356,134.4941" style="stroke:#454645;stroke-width:1.0;"/><line style="stroke:#454645;stroke-width:1.0;" x1="264.5" x2="358" y1="134.4941" y2="134.4941"/><text fill="#000000" font-family="sans-serif" font-size="13" font-weight="bold" lengthAdjust="spacing" textLength="7" x="271.5" y="129.2314">3</text><text fill="#000000" font-family="sans-serif" font-size="13" lengthAdjust="spacing" textLength="68" x="282.5" y="129.2314">create(planJPA)</text><polygon fill="#454645" points="1301,161.7852,1311,165.7852,1301,169.7852,1305,165.7852" style="stroke:#454645;stroke-width:1.0;"/><line style="stroke:#454645;stroke-width:1.0;" x1="374" x2="1307" y1="165.7852" y2="165.7852"/><text fill="#000000" font-family="sans-serif" font-size="13" font-weight="bold" lengthAdjust="spacing" textLength="7" x="381" y="160.5225">4</text><text fill="#000000" font-family="sans-serif" font-size="13" lengthAdjust="spacing" textLength="166" x="392" y="160.5225">findByName(planJPA.getName())</text><polygon fill="#454645" points="385,193.0762,375,197.0762,385,201.0762,381,197.0762" style="stroke:#454645;stroke-width:1.0;"/><line style="stroke:#454645;stroke-width:1.0;stroke-dasharray:2.0,2.0;" x1="379" x2="1317" y1="197.0762" y2="197.0762"/><text fill="#000000" font-family="sans-serif" font-size="13" font-weight="bold" lengthAdjust="spacing" textLength="7" x="391" y="191.8135">5</text><text fill="#000000" font-family="sans-serif" font-size="13" lengthAdjust="spacing" textLength="36" x="402" y="191.8135">empty</text><polygon fill="#454645" points="610,224.3672,620,228.3672,610,232.3672,614,228.3672" style="stroke:#454645;stroke-width:1.0;"/><line style="stroke:#454645;stroke-width:1.0;" x1="374" x2="616" y1="228.3672" y2="228.3672"/><text fill="#000000" font-family="sans-serif" font-size="13" font-weight="bold" lengthAdjust="spacing" textLength="7" x="381" y="223.1045">6</text><text fill="#000000" font-family="sans-serif" font-size="13" lengthAdjust="spacing" textLength="190" x="392" y="223.1045">getPlanByName(planJPA.getName())</text><polygon fill="#454645" points="721.5,255.6582,731.5,259.6582,721.5,263.6582,725.5,259.6582" style="stroke:#454645;stroke-width:1.0;"/><line style="stroke:#454645;stroke-width:1.0;" x1="632" x2="727.5" y1="259.6582" y2="259.6582"/><text fill="#000000" font-family="sans-serif" font-size="13" font-weight="bold" lengthAdjust="spacing" textLength="7" x="639" y="254.3955">7</text><text fill="#000000" font-family="sans-serif" font-size="13" lengthAdjust="spacing" textLength="70" x="650" y="254.3955">GET/{name}</text><polygon fill="#454645" points="643,286.9492,633,290.9492,643,294.9492,639,290.9492" style="stroke:#454645;stroke-width:1.0;"/><line style="stroke:#454645;stroke-width:1.0;stroke-dasharray:2.0,2.0;" x1="637" x2="737.5" y1="290.9492" y2="290.9492"/><text fill="#000000" font-family="sans-serif" font-size="13" font-weight="bold" lengthAdjust="spacing" textLength="7" x="649" y="285.6865">8</text><text fill="#000000" font-family="sans-serif" font-size="13" lengthAdjust="spacing" textLength="21" x="660" y="285.6865">404</text><polygon fill="#454645" points="385,318.2402,375,322.2402,385,326.2402,381,322.2402" style="stroke:#454645;stroke-width:1.0;"/><line style="stroke:#454645;stroke-width:1.0;stroke-dasharray:2.0,2.0;" x1="379" x2="626" y1="322.2402" y2="322.2402"/><text fill="#000000" font-family="sans-serif" font-size="13" font-weight="bold" lengthAdjust="spacing" textLength="7" x="391" y="316.9775">9</text><text fill="#000000" font-family="sans-serif" font-size="13" lengthAdjust="spacing" textLength="20" x="402" y="316.9775">null</text><polygon fill="#454645" points="1168,349.5313,1178,353.5313,1168,357.5313,1172,353.5313" style="stroke:#454645;stroke-width:1.0;"/><line style="stroke:#454645;stroke-width:1.0;" x1="374" x2="1174" y1="353.5313" y2="353.5313"/><text fill="#000000" font-family="sans-serif" font-size="13" font-weight="bold" lengthAdjust="spacing" textLength="14" x="381" y="348.2686">10</text><text fill="#000000" font-family="sans-serif" font-size="13" lengthAdjust="spacing" textLength="764" x="399" y="348.2686">Plan(name,description,numberOfMinutes, MusicSuggestions.fromString(musicSuggestions),musicCollections,monthlyFee,anualFee)</text><rect fill="#FF6F61" height="32.6211" rx="3.5" ry="3.5" style="stroke:#454645;stroke-width:1.5;" width="73" x="1180" y="330.2402"/><text fill="#FFFFFF" font-family="sans-serif" font-size="14" lengthAdjust="spacing" textLength="59" x="1187" y="352.3477">planJPA:Plan</text><polygon fill="#454645" points="275.5,393.1523,265.5,397.1523,275.5,401.1523,271.5,397.1523" style="stroke:#454645;stroke-width:1.0;"/><line style="stroke:#454645;stroke-width:1.0;stroke-dasharray:2.0,2.0;" x1="269.5" x2="368" y1="397.1523" y2="397.1523"/><text fill="#000000" font-family="sans-serif" font-size="13" font-weight="bold" lengthAdjust="spacing" textLength="14" x="281.5" y="391.8896">11</text><text fill="#000000" font-family="sans-serif" font-size="13" lengthAdjust="spacing" textLength="24" x="299.5" y="391.8896">planJPA</text><polygon fill="#454645" points="1301,424.4434,1311,428.4434,1301,432.4434,1305,428.4434" style="stroke:#454645;stroke-width:1.0;"/><line style="stroke:#454645;stroke-width:1.0;" x1="369" x2="1307" y1="428.4434" y2="428.4434"/><text fill="#000000" font-family="sans-serif" font-size="13" font-weight="bold" lengthAdjust="spacing" textLength="14" x="376" y="423.1807">12</text><text fill="#000000" font-family="sans-serif" font-size="13" lengthAdjust="spacing" textLength="58" x="394" y="423.1807">save(planJPA)</text><polygon fill="#454645" points="380,455.7344,370,459.7344,380,463.7344,376,459.7344" style="stroke:#454645;stroke-width:1.0;"/><line style="stroke:#454645;stroke-width:1.0;stroke-dasharray:2.0,2.0;" x1="374" x2="1317" y1="459.7344" y2="459.7344"/><text fill="#000000" font-family="sans-serif" font-size="13" font-weight="bold" lengthAdjust="spacing" textLength="14" x="386" y="454.4717">13</text><text fill="#000000" font-family="sans-serif" font-size="13" lengthAdjust="spacing" textLength="24" x="404" y="454.4717">planJPA</text><polygon fill="#454645" points="275.5,487.0254,265.5,491.0254,275.5,495.0254,271.5,491.0254" style="stroke:#454645;stroke-width:1.0;"/><line style="stroke:#454645;stroke-width:1.0;stroke-dasharray:2.0,2.0;" x1="269.5" x2="368" y1="491.0254" y2="491.0254"/><text fill="#000000" font-family="sans-serif" font-size="13" font-weight="bold" lengthAdjust="spacing" textLength="14" x="281.5" y="485.7627">14</text><text fill="#000000" font-family="sans-serif" font-size="13" lengthAdjust="spacing" textLength="24" x="299.5" y="485.7627">planJPA</text><polygon fill="#454645" points="169,518.3164,159,522.3164,169,526.3164,165,522.3164" style="stroke:#454645;stroke-width:1.0;"/><line style="stroke:#454645;stroke-width:1.0;stroke-dasharray:2.0,2.0;" x1="163" x2="258.5" y1="522.3164" y2="522.3164"/><text fill="#000000" font-family="sans-serif" font-size="13" font-weight="bold" lengthAdjust="spacing" textLength="14" x="175" y="517.0537">15</text><text fill="#000000" font-family="sans-serif" font-size="13" lengthAdjust="spacing" textLength="24" x="193" y="517.0537">planJPA</text><polygon fill="#454645" points="59,549.6074,49,553.6074,59,557.6074,55,553.6074" style="stroke:#454645;stroke-width:1.0;"/><line style="stroke:#454645;stroke-width:1.0;stroke-dasharray:2.0,2.0;" x1="53" x2="152" y1="553.6074" y2="553.6074"/><text fill="#000000" font-family="sans-serif" font-size="13" font-weight="bold" lengthAdjust="spacing" textLength="14" x="65" y="548.3447">16</text><text fill="#000000" font-family="sans-serif" font-size="13" lengthAdjust="spacing" textLength="49" x="83" y="548.3447">201/planJPA</text><!--SRC=[ZPHBS-8m3CVl_XHUBaiwWNIPddBeeNGVbtQPXI_W6X4yzIDhoynaEltkTKmWv46dkIIMVfBbl-HytoEMBi-oKZADNiavDofpyD-3vZ3R2bPOfWXX7etswWLi_6GSnO4XKAC9-OPxK43HLCIz2bso445V67yjhF5wkpJIMBgnJBlW0eqal51mKOOTwLAAOFgpsQmeStJIBYSTR1NAMngDraW9Dg9Tqn1VWpq83cUsMG_1Vr0Q9z3Owj6AmqNsrZ4CUdnelLyAgCyq4j8r3yFSueownT0TdNNlyder8UH2pzbzJxQShep3Z5i8hICzIHkwKIcd5zH9oGRfwvKVqMbTHa965Hr4vZkXjm_LCrF7k7a161T9GYoWjvg2Ah7wD5rNkpoagArNiX8Qdf56DBdS8gU_VswoDntuTtB4JnsOZMz8xsxlhgQz9fRsKhR5N3lQpKriwBIk9js2urQKA8nEZvVmx-v9Q8_WKlhadU1hNnJWQi3DTzQeDLgXYwdg-P8qMfPrntcqf2fCm5vMlm1IfZsJuIE9rJLTg6NyhDfUMwbZXzCaV3rBV_Ow-7dwHkQv0ruESs3Rcv3JnUsF-8Vx0000]--></g></svg>
