<?xml version="1.0" encoding="us-ascii" standalone="no"?><svg xmlns="http://www.w3.org/2000/svg" xmlns:xlink="http://www.w3.org/1999/xlink" contentStyleType="text/css" height="466px" preserveAspectRatio="none" style="width:354px;height:466px;" version="1.1" viewBox="0 0 354 466" width="354px" zoomAndPan="magnify"><defs/><g><rect fill="#DDDDDD" height="454.4434" rx="3.5" ry="3.5" style="stroke:#181818;stroke-width:0.5;" width="206" x="136.5" y="6"/><text fill="#000000" font-family="sans-serif" font-size="13" font-weight="bold" lengthAdjust="spacing" textLength="43" x="218" y="20.0283">system</text><rect fill="#FFFFFF" height="320.6191" style="stroke:#454645;stroke-width:1.0;" width="10" x="160" y="94.2031"/><rect fill="#FFFFFF" height="265.3281" style="stroke:#454645;stroke-width:1.0;" width="10" x="165" y="133.4941"/><rect fill="#FFFFFF" height="36.291" style="stroke:#454645;stroke-width:1.0;" width="10" x="170" y="266.6582"/><rect fill="#FFFFFF" height="57.582" style="stroke:#454645;stroke-width:1.0;" width="10" x="305" y="169.7852"/><rect fill="none" height="126.1641" rx="3.5" ry="3.5" style="stroke:#454645;stroke-width:1.0;" width="338.5" x="10" y="184.7852"/><rect fill="none" height="81.873" rx="3.5" ry="3.5" style="stroke:#454645;stroke-width:1.0;" width="338.5" x="10" y="324.9492"/><line style="stroke:#454645;stroke-width:0.5;stroke-dasharray:5.0,5.0;" x1="63" x2="63" y1="60.9121" y2="423.8223"/><line style="stroke:#454645;stroke-width:0.5;stroke-dasharray:5.0,5.0;" x1="164.5" x2="164.5" y1="60.9121" y2="423.8223"/><line style="stroke:#454645;stroke-width:0.5;stroke-dasharray:5.0,5.0;" x1="309.5" x2="309.5" y1="60.9121" y2="423.8223"/><rect fill="#FF6F61" height="32.6211" rx="3.5" ry="3.5" style="stroke:#454645;stroke-width:1.5;" width="86" x="20" y="27.291"/><text fill="#FFFFFF" font-family="sans-serif" font-size="14" lengthAdjust="spacing" textLength="72" x="27" y="49.3984">ClientHTTP</text><rect fill="#FF6F61" height="32.6211" rx="3.5" ry="3.5" style="stroke:#454645;stroke-width:1.5;" width="86" x="20" y="422.8223"/><text fill="#FFFFFF" font-family="sans-serif" font-size="14" lengthAdjust="spacing" textLength="72" x="27" y="444.9297">ClientHTTP</text><rect fill="#FF6F61" height="32.6211" rx="3.5" ry="3.5" style="stroke:#454645;stroke-width:1.5;" width="49" x="140.5" y="27.291"/><text fill="#FFFFFF" font-family="sans-serif" font-size="14" lengthAdjust="spacing" textLength="35" x="147.5" y="49.3984">Plans</text><rect fill="#FF6F61" height="32.6211" rx="3.5" ry="3.5" style="stroke:#454645;stroke-width:1.5;" width="49" x="140.5" y="422.8223"/><text fill="#FFFFFF" font-family="sans-serif" font-size="14" lengthAdjust="spacing" textLength="35" x="147.5" y="444.9297">Plans</text><rect fill="#FF6F61" height="32.6211" rx="3.5" ry="3.5" style="stroke:#454645;stroke-width:1.5;" width="57" x="281.5" y="27.291"/><text fill="#FFFFFF" font-family="sans-serif" font-size="14" lengthAdjust="spacing" textLength="43" x="288.5" y="49.3984">Plans2</text><rect fill="#FF6F61" height="32.6211" rx="3.5" ry="3.5" style="stroke:#454645;stroke-width:1.5;" width="57" x="281.5" y="422.8223"/><text fill="#FFFFFF" font-family="sans-serif" font-size="14" lengthAdjust="spacing" textLength="43" x="288.5" y="444.9297">Plans2</text><rect fill="#FFFFFF" height="320.6191" style="stroke:#454645;stroke-width:1.0;" width="10" x="160" y="94.2031"/><rect fill="#FFFFFF" height="265.3281" style="stroke:#454645;stroke-width:1.0;" width="10" x="165" y="133.4941"/><rect fill="#FFFFFF" height="36.291" style="stroke:#454645;stroke-width:1.0;" width="10" x="170" y="266.6582"/><rect fill="#FFFFFF" height="57.582" style="stroke:#454645;stroke-width:1.0;" width="10" x="305" y="169.7852"/><polygon fill="#454645" points="148,90.2031,158,94.2031,148,98.2031,152,94.2031" style="stroke:#454645;stroke-width:1.0;"/><line style="stroke:#454645;stroke-width:1.0;" x1="63" x2="154" y1="94.2031" y2="94.2031"/><text fill="#000000" font-family="sans-serif" font-size="13" font-weight="bold" lengthAdjust="spacing" textLength="7" x="70" y="88.9404">1</text><text fill="#000000" font-family="sans-serif" font-size="13" lengthAdjust="spacing" textLength="67" x="81" y="88.9404">Post/create</text><line style="stroke:#454645;stroke-width:1.0;" x1="170" x2="217" y1="120.4941" y2="120.4941"/><line style="stroke:#454645;stroke-width:1.0;" x1="217" x2="217" y1="120.4941" y2="133.4941"/><line style="stroke:#454645;stroke-width:1.0;" x1="176" x2="217" y1="133.4941" y2="133.4941"/><polygon fill="#454645" points="186,129.4941,176,133.4941,186,137.4941,182,133.4941" style="stroke:#454645;stroke-width:1.0;"/><text fill="#000000" font-family="sans-serif" font-size="13" font-weight="bold" lengthAdjust="spacing" textLength="7" x="182" y="115.2314">2</text><text fill="#000000" font-family="sans-serif" font-size="13" lengthAdjust="spacing" textLength="107" x="193" y="115.2314">checkLocalRules()</text><polygon fill="#454645" points="293,165.7852,303,169.7852,293,173.7852,297,169.7852" style="stroke:#454645;stroke-width:1.0;"/><line style="stroke:#454645;stroke-width:1.0;" x1="175" x2="299" y1="169.7852" y2="169.7852"/><text fill="#000000" font-family="sans-serif" font-size="13" font-weight="bold" lengthAdjust="spacing" textLength="7" x="182" y="164.5225">3</text><text fill="#000000" font-family="sans-serif" font-size="13" lengthAdjust="spacing" textLength="100" x="193" y="164.5225">Get plans/{name}</text><path d="M13.5,184.7852 L71,184.7852 L71,194.0762 L61,204.0762 L10,204.0762 L10,188.2852 A3.5,3.5 0 0 1 13.5,184.7852 " fill="#EEEEEE" style="stroke:#454645;stroke-width:1.5;"/><rect fill="none" height="126.1641" rx="3.5" ry="3.5" style="stroke:#454645;stroke-width:1.0;" width="338.5" x="10" y="184.7852"/><text fill="#454645" font-family="sans-serif" font-size="13" font-weight="bold" lengthAdjust="spacing" textLength="16" x="25" y="199.8135">alt</text><polygon fill="#454645" points="186,223.3672,176,227.3672,186,231.3672,182,227.3672" style="stroke:#454645;stroke-width:1.0;"/><line style="stroke:#454645;stroke-width:1.0;stroke-dasharray:2.0,2.0;" x1="180" x2="309" y1="227.3672" y2="227.3672"/><text fill="#000000" font-family="sans-serif" font-size="13" font-weight="bold" lengthAdjust="spacing" textLength="7" x="192" y="222.1045">4</text><text fill="#000000" font-family="sans-serif" font-size="13" lengthAdjust="spacing" textLength="21" x="203" y="222.1045">404</text><line style="stroke:#454645;stroke-width:1.0;" x1="175" x2="222" y1="253.6582" y2="253.6582"/><line style="stroke:#454645;stroke-width:1.0;" x1="222" x2="222" y1="253.6582" y2="266.6582"/><line style="stroke:#454645;stroke-width:1.0;" x1="181" x2="222" y1="266.6582" y2="266.6582"/><polygon fill="#454645" points="191,262.6582,181,266.6582,191,270.6582,187,266.6582" style="stroke:#454645;stroke-width:1.0;"/><text fill="#000000" font-family="sans-serif" font-size="13" font-weight="bold" lengthAdjust="spacing" textLength="7" x="187" y="248.3955">5</text><text fill="#000000" font-family="sans-serif" font-size="13" lengthAdjust="spacing" textLength="29" x="198" y="248.3955">store</text><polygon fill="#454645" points="74,298.9492,64,302.9492,74,306.9492,70,302.9492" style="stroke:#454645;stroke-width:1.0;"/><line style="stroke:#454645;stroke-width:1.0;stroke-dasharray:2.0,2.0;" x1="68" x2="164" y1="302.9492" y2="302.9492"/><text fill="#000000" font-family="sans-serif" font-size="13" font-weight="bold" lengthAdjust="spacing" textLength="7" x="80" y="297.6865">6</text><text fill="#000000" font-family="sans-serif" font-size="13" lengthAdjust="spacing" textLength="21" x="91" y="297.6865">201</text><path d="M13.5,324.9492 L71,324.9492 L71,334.2402 L61,344.2402 L10,344.2402 L10,328.4492 A3.5,3.5 0 0 1 13.5,324.9492 " fill="#EEEEEE" style="stroke:#454645;stroke-width:1.5;"/><rect fill="none" height="81.873" rx="3.5" ry="3.5" style="stroke:#454645;stroke-width:1.0;" width="338.5" x="10" y="324.9492"/><text fill="#454645" font-family="sans-serif" font-size="13" font-weight="bold" lengthAdjust="spacing" textLength="16" x="25" y="339.9775">alt</text><polygon fill="#454645" points="186,363.5313,176,367.5313,186,371.5313,182,367.5313" style="stroke:#454645;stroke-width:1.0;"/><line style="stroke:#454645;stroke-width:1.0;stroke-dasharray:2.0,2.0;" x1="180" x2="309" y1="367.5313" y2="367.5313"/><text fill="#000000" font-family="sans-serif" font-size="13" font-weight="bold" lengthAdjust="spacing" textLength="7" x="192" y="362.2686">7</text><text fill="#000000" font-family="sans-serif" font-size="13" lengthAdjust="spacing" textLength="21" x="203" y="362.2686">200</text><polygon fill="#454645" points="74,394.8223,64,398.8223,74,402.8223,70,398.8223" style="stroke:#454645;stroke-width:1.0;"/><line style="stroke:#454645;stroke-width:1.0;stroke-dasharray:2.0,2.0;" x1="68" x2="159" y1="398.8223" y2="398.8223"/><text fill="#000000" font-family="sans-serif" font-size="13" font-weight="bold" lengthAdjust="spacing" textLength="7" x="80" y="393.5596">8</text><text fill="#000000" font-family="sans-serif" font-size="13" lengthAdjust="spacing" textLength="21" x="91" y="393.5596">422</text><!--SRC=[TOynJyCm48Lt_ugZ2p041ojJXYuTO628KFw0uvmQAxOls6T4XVZlEAsg8gfwyUdvlU_yxYVc9RLIBau7pjuz6V8ouKV6OB0QhTv7xONGcIbaFs0yZjgm_TICG468EvxG8p0TH9fjM7H9mA3Dl8-KmxWZHn7wg4CgJnXOx9mjrslVTr1jeIkRKmiT9POcOg6AWRvWamw9qMz42R4rTYd_Etcl5INMSnp_4Cs4PduZezrxTfWU7lzRL0iloB1MJ_8xQ8y_fQdZaqr1TM4rTNF5JqmHpsgHBxLQKFMpm332Ihk1L7KjRgGRfSxfNm00]--></g></svg>