<?xml version="1.0" encoding="us-ascii" standalone="no"?><svg xmlns="http://www.w3.org/2000/svg" xmlns:xlink="http://www.w3.org/1999/xlink" contentStyleType="text/css" height="511px" preserveAspectRatio="none" style="width:390px;height:511px;" version="1.1" viewBox="0 0 390 511" width="390px" zoomAndPan="magnify"><defs/><g><rect fill="#FFFFFF" height="297.3281" style="stroke:#454645;stroke-width:1.0;" width="10" x="145" y="71.9121"/><rect fill="#FFFFFF" height="42.291" style="stroke:#454645;stroke-width:1.0;" width="10" x="150" y="111.2031"/><rect fill="#FFFFFF" height="42.291" style="stroke:#454645;stroke-width:1.0;" width="10" x="150" y="288.6582"/><rect fill="#FFFFFF" height="57.582" style="stroke:#454645;stroke-width:1.0;" width="10" x="337" y="191.7852"/><rect fill="none" height="249.668" rx="3.5" ry="3.5" style="stroke:#454645;stroke-width:1.0;" width="372.5" x="11" y="206.7852"/><line style="stroke:#454645;stroke-width:0.5;stroke-dasharray:5.0,5.0;" x1="149.5" x2="149.5" y1="38.6211" y2="473.4531"/><line style="stroke:#454645;stroke-width:0.5;stroke-dasharray:5.0,5.0;" x1="341.5" x2="341.5" y1="38.6211" y2="473.4531"/><rect fill="#FF6F61" height="32.6211" rx="3.5" ry="3.5" style="stroke:#454645;stroke-width:1.5;" width="63" x="118.5" y="5"/><text fill="#FFFFFF" font-family="sans-serif" font-size="14" lengthAdjust="spacing" textLength="49" x="125.5" y="27.1074">P1:Plan</text><rect fill="#FF6F61" height="32.6211" rx="3.5" ry="3.5" style="stroke:#454645;stroke-width:1.5;" width="63" x="118.5" y="472.4531"/><text fill="#FFFFFF" font-family="sans-serif" font-size="14" lengthAdjust="spacing" textLength="49" x="125.5" y="494.5605">P1:Plan</text><rect fill="#FF6F61" height="32.6211" rx="3.5" ry="3.5" style="stroke:#454645;stroke-width:1.5;" width="63" x="310.5" y="5"/><text fill="#FFFFFF" font-family="sans-serif" font-size="14" lengthAdjust="spacing" textLength="49" x="317.5" y="27.1074">P2:Plan</text><rect fill="#FF6F61" height="32.6211" rx="3.5" ry="3.5" style="stroke:#454645;stroke-width:1.5;" width="63" x="310.5" y="472.4531"/><text fill="#FFFFFF" font-family="sans-serif" font-size="14" lengthAdjust="spacing" textLength="49" x="317.5" y="494.5605">P2:Plan</text><rect fill="#FFFFFF" height="297.3281" style="stroke:#454645;stroke-width:1.0;" width="10" x="145" y="71.9121"/><rect fill="#FFFFFF" height="42.291" style="stroke:#454645;stroke-width:1.0;" width="10" x="150" y="111.2031"/><rect fill="#FFFFFF" height="42.291" style="stroke:#454645;stroke-width:1.0;" width="10" x="150" y="288.6582"/><rect fill="#FFFFFF" height="57.582" style="stroke:#454645;stroke-width:1.0;" width="10" x="337" y="191.7852"/><ellipse cx="7.5" cy="71.1621" fill="none" rx="4" ry="4" style="stroke:#454645;stroke-width:1.5;"/><polygon fill="#454645" points="133,67.9121,143,71.9121,133,75.9121,137,71.9121" style="stroke:#454645;stroke-width:1.0;"/><line style="stroke:#454645;stroke-width:1.0;" x1="12" x2="139" y1="71.9121" y2="71.9121"/><text fill="#000000" font-family="sans-serif" font-size="13" font-weight="bold" lengthAdjust="spacing" textLength="7" x="15" y="66.6494">1</text><text fill="#000000" font-family="sans-serif" font-size="13" lengthAdjust="spacing" textLength="107" x="26" y="66.6494">POST/create(planJPA)</text><line style="stroke:#454645;stroke-width:1.0;" x1="155" x2="202" y1="98.2031" y2="98.2031"/><line style="stroke:#454645;stroke-width:1.0;" x1="202" x2="202" y1="98.2031" y2="111.2031"/><line style="stroke:#454645;stroke-width:1.0;" x1="161" x2="202" y1="111.2031" y2="111.2031"/><polygon fill="#454645" points="171,107.2031,161,111.2031,171,115.2031,167,111.2031" style="stroke:#454645;stroke-width:1.0;"/><text fill="#000000" font-family="sans-serif" font-size="13" font-weight="bold" lengthAdjust="spacing" textLength="7" x="167" y="92.9404">2</text><text fill="#000000" font-family="sans-serif" font-size="13" lengthAdjust="spacing" textLength="110" x="178" y="92.9404">findByName(name)</text><line style="stroke:#454645;stroke-width:1.0;stroke-dasharray:2.0,2.0;" x1="160" x2="202" y1="152.4941" y2="152.4941"/><line style="stroke:#454645;stroke-width:1.0;stroke-dasharray:2.0,2.0;" x1="202" x2="202" y1="152.4941" y2="165.4941"/><line style="stroke:#454645;stroke-width:1.0;stroke-dasharray:2.0,2.0;" x1="155" x2="202" y1="165.4941" y2="165.4941"/><polygon fill="#454645" points="165,161.4941,155,165.4941,165,169.4941,161,165.4941" style="stroke:#454645;stroke-width:1.0;"/><text fill="#000000" font-family="sans-serif" font-size="13" font-weight="bold" lengthAdjust="spacing" textLength="7" x="167" y="147.2314">3</text><text fill="#000000" font-family="sans-serif" font-size="13" lengthAdjust="spacing" textLength="20" x="178" y="147.2314">null</text><polygon fill="#454645" points="325,187.7852,335,191.7852,325,195.7852,329,191.7852" style="stroke:#454645;stroke-width:1.0;"/><line style="stroke:#454645;stroke-width:1.0;" x1="155" x2="331" y1="191.7852" y2="191.7852"/><text fill="#000000" font-family="sans-serif" font-size="13" font-weight="bold" lengthAdjust="spacing" textLength="7" x="162" y="186.5225">4</text><text fill="#000000" font-family="sans-serif" font-size="13" lengthAdjust="spacing" textLength="152" x="173" y="186.5225">GET/internal/name/{name}</text><path d="M14.5,206.7852 L72,206.7852 L72,216.0762 L62,226.0762 L11,226.0762 L11,210.2852 A3.5,3.5 0 0 1 14.5,206.7852 " fill="#EEEEEE" style="stroke:#454645;stroke-width:1.5;"/><rect fill="none" height="249.668" rx="3.5" ry="3.5" style="stroke:#454645;stroke-width:1.0;" width="372.5" x="11" y="206.7852"/><text fill="#454645" font-family="sans-serif" font-size="13" font-weight="bold" lengthAdjust="spacing" textLength="16" x="26" y="221.8135">alt</text><text fill="#454645" font-family="sans-serif" font-size="11" font-weight="bold" lengthAdjust="spacing" textLength="87" x="87" y="220.6553">[planJPA not found]</text><polygon fill="#454645" points="166,245.3672,156,249.3672,166,253.3672,162,249.3672" style="stroke:#454645;stroke-width:1.0;"/><line style="stroke:#454645;stroke-width:1.0;stroke-dasharray:2.0,2.0;" x1="160" x2="341" y1="249.3672" y2="249.3672"/><text fill="#000000" font-family="sans-serif" font-size="13" font-weight="bold" lengthAdjust="spacing" textLength="7" x="172" y="244.1045">5</text><text fill="#000000" font-family="sans-serif" font-size="13" lengthAdjust="spacing" textLength="21" x="183" y="244.1045">404</text><line style="stroke:#454645;stroke-width:1.0;" x1="155" x2="202" y1="275.6582" y2="275.6582"/><line style="stroke:#454645;stroke-width:1.0;" x1="202" x2="202" y1="275.6582" y2="288.6582"/><line style="stroke:#454645;stroke-width:1.0;" x1="161" x2="202" y1="288.6582" y2="288.6582"/><polygon fill="#454645" points="171,284.6582,161,288.6582,171,292.6582,167,288.6582" style="stroke:#454645;stroke-width:1.0;"/><text fill="#000000" font-family="sans-serif" font-size="13" font-weight="bold" lengthAdjust="spacing" textLength="7" x="167" y="270.3955">6</text><text fill="#000000" font-family="sans-serif" font-size="13" lengthAdjust="spacing" textLength="58" x="178" y="270.3955">save(planJPA)</text><line style="stroke:#454645;stroke-width:1.0;stroke-dasharray:2.0,2.0;" x1="160" x2="202" y1="329.9492" y2="329.9492"/><line style="stroke:#454645;stroke-width:1.0;stroke-dasharray:2.0,2.0;" x1="202" x2="202" y1="329.9492" y2="342.9492"/><line style="stroke:#454645;stroke-width:1.0;stroke-dasharray:2.0,2.0;" x1="155" x2="202" y1="342.9492" y2="342.9492"/><polygon fill="#454645" points="165,338.9492,155,342.9492,165,346.9492,161,342.9492" style="stroke:#454645;stroke-width:1.0;"/><text fill="#000000" font-family="sans-serif" font-size="13" font-weight="bold" lengthAdjust="spacing" textLength="7" x="167" y="324.6865">7</text><text fill="#000000" font-family="sans-serif" font-size="13" lengthAdjust="spacing" textLength="24" x="178" y="324.6865">planJPA</text><ellipse cx="7.5" cy="368.4902" fill="none" rx="4" ry="4" style="stroke:#454645;stroke-width:1.5;"/><polygon fill="#454645" points="24.5,365.2402,14.5,369.2402,24.5,373.2402,20.5,369.2402" style="stroke:#454645;stroke-width:1.0;"/><line style="stroke:#454645;stroke-width:1.0;stroke-dasharray:2.0,2.0;" x1="22.5" x2="149" y1="369.2402" y2="369.2402"/><text fill="#000000" font-family="sans-serif" font-size="13" font-weight="bold" lengthAdjust="spacing" textLength="7" x="25" y="363.9775">8</text><text fill="#000000" font-family="sans-serif" font-size="13" lengthAdjust="spacing" textLength="49" x="36" y="363.9775">201/planJPA</text><line style="stroke:#454645;stroke-width:1.0;stroke-dasharray:2.0,2.0;" x1="11" x2="383.5" y1="378.2402" y2="378.2402"/><text fill="#454645" font-family="sans-serif" font-size="11" font-weight="bold" lengthAdjust="spacing" textLength="66" x="16" y="390.1104">[planJPA found]</text><polygon fill="#454645" points="161,413.1621,151,417.1621,161,421.1621,157,417.1621" style="stroke:#454645;stroke-width:1.0;"/><line style="stroke:#454645;stroke-width:1.0;stroke-dasharray:2.0,2.0;" x1="155" x2="341" y1="417.1621" y2="417.1621"/><text fill="#000000" font-family="sans-serif" font-size="13" font-weight="bold" lengthAdjust="spacing" textLength="7" x="167" y="411.8994">9</text><text fill="#000000" font-family="sans-serif" font-size="13" lengthAdjust="spacing" textLength="49" x="178" y="411.8994">200/planJPA</text><ellipse cx="7.5" cy="447.7031" fill="none" rx="4" ry="4" style="stroke:#454645;stroke-width:1.5;"/><polygon fill="#454645" points="24.5,444.4531,14.5,448.4531,24.5,452.4531,20.5,448.4531" style="stroke:#454645;stroke-width:1.0;"/><line style="stroke:#454645;stroke-width:1.0;stroke-dasharray:2.0,2.0;" x1="22.5" x2="149" y1="448.4531" y2="448.4531"/><text fill="#000000" font-family="sans-serif" font-size="13" font-weight="bold" lengthAdjust="spacing" textLength="14" x="25" y="443.1904">10</text><text fill="#000000" font-family="sans-serif" font-size="13" lengthAdjust="spacing" textLength="21" x="43" y="443.1904">4XX</text><!--SRC=[PL2nJiCm4DtlAuukj4Dm4cMA40C8iK4aEbHYkgRNrgfp3hPJgKByEtRQGaKzdCz-xzvxzkqsXDxNIlM690oTkMjjfpn_3YmjPojD6qST00t1oj0jsOqjjK7lAJ1Q0RW9M-uOWpq0-9sMdk88BgdTRPmTPFLaZNKuToG-GYm1uXPqg_jeYPEcg9jeFa7os1J_iF82Am7WmsOFaLLZy_O-LwtZ66AQiiy0cW9Fu5hBwl7mIXrF9PRP29qm6OmvKyiQNvxdIajW9sHK8gklLB-Z5v09cBHHRC1rUWeqvQzGbLUNdfxsvoGNRkaYfRxFil5SviNurS36yr7yIhZCyoFdRwnQB80ZAwqV]--></g></svg>
