<?xml version="1.0" encoding="us-ascii" standalone="no"?><svg xmlns="http://www.w3.org/2000/svg" xmlns:xlink="http://www.w3.org/1999/xlink" contentStyleType="text/css" height="455.2083px" preserveAspectRatio="none" style="width:1488px;height:455px;" version="1.1" viewBox="0 0 1488 455" width="1488.5417px" zoomAndPan="magnify"><defs><linearGradient id="g1r7fxdktvmcib0" x1="0%" x2="100%" y1="0%" y2="100%"><stop offset="0%" stop-color="#F8DE7E"/><stop offset="100%" stop-color="#00FFFF"/></linearGradient><linearGradient id="g1r7fxdktvmcib1" x1="50%" x2="50%" y1="0%" y2="100%"><stop offset="0%" stop-color="#151515"/><stop offset="100%" stop-color="#000000"/></linearGradient><linearGradient id="g1r7fxdktvmcib2" x1="50%" x2="50%" y1="0%" y2="100%"><stop offset="0%" stop-color="#BB91B2"/><stop offset="100%" stop-color="#885E7F"/></linearGradient><linearGradient id="g1r7fxdktvmcib3" x1="50%" x2="50%" y1="0%" y2="100%"><stop offset="0%" stop-color="#BD6768"/><stop offset="100%" stop-color="#AC4142"/></linearGradient></defs><g><!--cluster  --><g id="cluster_ "><rect fill="#808080" height="273.9583" rx="20.8333" ry="20.8333" style="stroke:#B5E853;stroke-width:1.0416666666666667;" width="1227.0833" x="250.5208" y="169.7917"/><rect fill="#808080" height="10.4167" style="stroke:#B5E853;stroke-width:1.0416666666666667;" width="15.625" x="1456.7708" y="175"/><rect fill="#808080" height="2.0833" style="stroke:#B5E853;stroke-width:1.0416666666666667;" width="4.1667" x="1454.6875" y="177.0833"/><rect fill="#808080" height="2.0833" style="stroke:#B5E853;stroke-width:1.0416666666666667;" width="4.1667" x="1454.6875" y="181.25"/><text fill="#151515" font-family="Verdana" font-size="12.5" font-style="italic" lengthAdjust="spacing" textLength="179.1667" x="774.4792" y="201.1088">&#171;Subscription Management&#187;</text><text fill="#151515" font-family="Verdana" font-size="12.5" font-weight="bold" lengthAdjust="spacing" textLength="4.1667" x="861.9792" y="226.7171">&#160;</text></g><text fill="#151515" font-family="Verdana" font-size="12.5" lengthAdjust="spacing" textLength="97.9167" x="282.2917" y="143.2088">REST API Plans</text><rect fill="none" height="12.5" style="stroke:#6D8B32;stroke-width:1.5625;" width="12.5" x="325" y="163.5417"/><text fill="#151515" font-family="Verdana" font-size="12.5" lengthAdjust="spacing" textLength="150" x="418.75" y="143.2088">REST API Subscriptions</text><rect fill="none" height="12.5" style="stroke:#6D8B32;stroke-width:1.5625;" width="12.5" x="487.5" y="163.5417"/><text fill="#151515" font-family="Verdana" font-size="12.5" lengthAdjust="spacing" textLength="100" x="617.7083" y="143.2088">REST API Users</text><rect fill="none" height="12.5" style="stroke:#6D8B32;stroke-width:1.5625;" width="12.5" x="661.4583" y="163.5417"/><text fill="#151515" font-family="Verdana" font-size="12.5" lengthAdjust="spacing" textLength="106.25" x="762.5" y="143.2088">REST API Plans2</text><rect fill="none" height="12.5" style="stroke:#6D8B32;stroke-width:1.5625;" width="12.5" x="809.375" y="163.5417"/><text fill="#151515" font-family="Verdana" font-size="12.5" lengthAdjust="spacing" textLength="158.3333" x="908.3333" y="143.2088">REST API Subscriptions2</text><rect fill="none" height="12.5" style="stroke:#6D8B32;stroke-width:1.5625;" width="12.5" x="981.25" y="163.5417"/><text fill="#151515" font-family="Verdana" font-size="12.5" lengthAdjust="spacing" textLength="108.3333" x="1162.5" y="143.2088">REST API Users2</text><rect fill="none" height="12.5" style="stroke:#6D8B32;stroke-width:1.5625;" width="12.5" x="1210.4167" y="163.5417"/><!--entity plans--><g id="elem_plans"><rect fill="url(#g1r7fxdktvmcib0)" height="56.8583" rx="4.1667" ry="4.1667" style="stroke:#D3F198;stroke-width:1.0416666666666667;" width="109.375" x="267.7083" y="251.0417"/><rect fill="url(#g1r7fxdktvmcib0)" height="10.4167" style="stroke:#D3F198;stroke-width:1.0416666666666667;" width="15.625" x="356.25" y="256.25"/><rect fill="url(#g1r7fxdktvmcib0)" height="2.0833" style="stroke:#D3F198;stroke-width:1.0416666666666667;" width="4.1667" x="354.1667" y="258.3333"/><rect fill="url(#g1r7fxdktvmcib0)" height="2.0833" style="stroke:#D3F198;stroke-width:1.0416666666666667;" width="4.1667" x="354.1667" y="262.5"/><text fill="#151515" font-family="Verdana" font-size="12.5" lengthAdjust="spacing" textLength="57.2917" x="288.5417" y="289.6505">Plans:P1</text></g><!--entity subscriptions--><g id="elem_subscriptions"><rect fill="url(#g1r7fxdktvmcib0)" height="56.8583" rx="4.1667" ry="4.1667" style="stroke:#D3F198;stroke-width:1.0416666666666667;" width="161.4583" x="413.5417" y="251.0417"/><rect fill="url(#g1r7fxdktvmcib0)" height="10.4167" style="stroke:#D3F198;stroke-width:1.0416666666666667;" width="15.625" x="554.1667" y="256.25"/><rect fill="url(#g1r7fxdktvmcib0)" height="2.0833" style="stroke:#D3F198;stroke-width:1.0416666666666667;" width="4.1667" x="552.0833" y="258.3333"/><rect fill="url(#g1r7fxdktvmcib0)" height="2.0833" style="stroke:#D3F198;stroke-width:1.0416666666666667;" width="4.1667" x="552.0833" y="262.5"/><text fill="#151515" font-family="Verdana" font-size="12.5" lengthAdjust="spacing" textLength="109.375" x="434.375" y="289.6505">Subscriptions:S1</text></g><!--entity users--><g id="elem_users"><rect fill="url(#g1r7fxdktvmcib0)" height="56.8583" rx="4.1667" ry="4.1667" style="stroke:#D3F198;stroke-width:1.0416666666666667;" width="112.5" x="611.9792" y="251.0417"/><rect fill="url(#g1r7fxdktvmcib0)" height="10.4167" style="stroke:#D3F198;stroke-width:1.0416666666666667;" width="15.625" x="703.6458" y="256.25"/><rect fill="url(#g1r7fxdktvmcib0)" height="2.0833" style="stroke:#D3F198;stroke-width:1.0416666666666667;" width="4.1667" x="701.5625" y="258.3333"/><rect fill="url(#g1r7fxdktvmcib0)" height="2.0833" style="stroke:#D3F198;stroke-width:1.0416666666666667;" width="4.1667" x="701.5625" y="262.5"/><text fill="#151515" font-family="Verdana" font-size="12.5" lengthAdjust="spacing" textLength="60.4167" x="632.8125" y="289.6505">Users:U1</text></g><!--entity dbplans--><g id="elem_dbplans"><path d="M278.125,381.25 C278.125,370.8333 322.3958,370.8333 322.3958,370.8333 C322.3958,370.8333 366.6667,370.8333 366.6667,381.25 L366.6667,416.2333 C366.6667,426.65 322.3958,426.65 322.3958,426.65 C322.3958,426.65 278.125,426.65 278.125,416.2333 L278.125,381.25 " fill="url(#g1r7fxdktvmcib1)" style="stroke:#D3F198;stroke-width:1.0416666666666667;"/><path d="M278.125,381.25 C278.125,391.6667 322.3958,391.6667 322.3958,391.6667 C322.3958,391.6667 366.6667,391.6667 366.6667,381.25 " fill="none" style="stroke:#D3F198;stroke-width:1.0416666666666667;"/><text fill="#EAEAEA" font-family="Verdana" font-size="12.5" lengthAdjust="spacing" textLength="57.2917" x="293.75" y="413.6088">db-plans</text></g><!--entity dbusers--><g id="elem_dbusers"><path d="M623.4375,381.25 C623.4375,370.8333 668.2292,370.8333 668.2292,370.8333 C668.2292,370.8333 713.0208,370.8333 713.0208,381.25 L713.0208,416.2333 C713.0208,426.65 668.2292,426.65 668.2292,426.65 C668.2292,426.65 623.4375,426.65 623.4375,416.2333 L623.4375,381.25 " fill="url(#g1r7fxdktvmcib1)" style="stroke:#D3F198;stroke-width:1.0416666666666667;"/><path d="M623.4375,381.25 C623.4375,391.6667 668.2292,391.6667 668.2292,391.6667 C668.2292,391.6667 713.0208,391.6667 713.0208,381.25 " fill="none" style="stroke:#D3F198;stroke-width:1.0416666666666667;"/><text fill="#EAEAEA" font-family="Verdana" font-size="12.5" lengthAdjust="spacing" textLength="58.3333" x="639.0625" y="413.6088">db-users</text></g><!--entity dbsub--><g id="elem_dbsub"><path d="M424.4792,381.25 C424.4792,370.8333 494.2708,370.8333 494.2708,370.8333 C494.2708,370.8333 564.0625,370.8333 564.0625,381.25 L564.0625,416.2333 C564.0625,426.65 494.2708,426.65 494.2708,426.65 C494.2708,426.65 424.4792,426.65 424.4792,416.2333 L424.4792,381.25 " fill="url(#g1r7fxdktvmcib1)" style="stroke:#D3F198;stroke-width:1.0416666666666667;"/><path d="M424.4792,381.25 C424.4792,391.6667 494.2708,391.6667 494.2708,391.6667 C494.2708,391.6667 564.0625,391.6667 564.0625,381.25 " fill="none" style="stroke:#D3F198;stroke-width:1.0416666666666667;"/><text fill="#EAEAEA" font-family="Verdana" font-size="12.5" lengthAdjust="spacing" textLength="108.3333" x="440.1042" y="413.6088">db-subscriptions</text></g><!--entity plans2--><g id="elem_plans2"><rect fill="url(#g1r7fxdktvmcib0)" height="56.8583" rx="4.1667" ry="4.1667" style="stroke:#D3F198;stroke-width:1.0416666666666667;" width="109.375" x="761.4583" y="251.0417"/><rect fill="url(#g1r7fxdktvmcib0)" height="10.4167" style="stroke:#D3F198;stroke-width:1.0416666666666667;" width="15.625" x="850" y="256.25"/><rect fill="url(#g1r7fxdktvmcib0)" height="2.0833" style="stroke:#D3F198;stroke-width:1.0416666666666667;" width="4.1667" x="847.9167" y="258.3333"/><rect fill="url(#g1r7fxdktvmcib0)" height="2.0833" style="stroke:#D3F198;stroke-width:1.0416666666666667;" width="4.1667" x="847.9167" y="262.5"/><text fill="#151515" font-family="Verdana" font-size="12.5" lengthAdjust="spacing" textLength="57.2917" x="782.2917" y="289.6505">Plans:P2</text></g><!--entity subscriptions2--><g id="elem_subscriptions2"><rect fill="url(#g1r7fxdktvmcib0)" height="56.8583" rx="4.1667" ry="4.1667" style="stroke:#D3F198;stroke-width:1.0416666666666667;" width="161.4583" x="907.2917" y="251.0417"/><rect fill="url(#g1r7fxdktvmcib0)" height="10.4167" style="stroke:#D3F198;stroke-width:1.0416666666666667;" width="15.625" x="1047.9167" y="256.25"/><rect fill="url(#g1r7fxdktvmcib0)" height="2.0833" style="stroke:#D3F198;stroke-width:1.0416666666666667;" width="4.1667" x="1045.8333" y="258.3333"/><rect fill="url(#g1r7fxdktvmcib0)" height="2.0833" style="stroke:#D3F198;stroke-width:1.0416666666666667;" width="4.1667" x="1045.8333" y="262.5"/><text fill="#151515" font-family="Verdana" font-size="12.5" lengthAdjust="spacing" textLength="109.375" x="928.125" y="289.6505">Subscriptions:S2</text></g><!--entity users2--><g id="elem_users2"><rect fill="url(#g1r7fxdktvmcib0)" height="56.8583" rx="4.1667" ry="4.1667" style="stroke:#D3F198;stroke-width:1.0416666666666667;" width="112.5" x="1348.4375" y="251.0417"/><rect fill="url(#g1r7fxdktvmcib0)" height="10.4167" style="stroke:#D3F198;stroke-width:1.0416666666666667;" width="15.625" x="1440.1042" y="256.25"/><rect fill="url(#g1r7fxdktvmcib0)" height="2.0833" style="stroke:#D3F198;stroke-width:1.0416666666666667;" width="4.1667" x="1438.0208" y="258.3333"/><rect fill="url(#g1r7fxdktvmcib0)" height="2.0833" style="stroke:#D3F198;stroke-width:1.0416666666666667;" width="4.1667" x="1438.0208" y="262.5"/><text fill="#151515" font-family="Verdana" font-size="12.5" lengthAdjust="spacing" textLength="60.4167" x="1369.2708" y="289.6505">Users:U2</text></g><!--entity dbplans2--><g id="elem_dbplans2"><path d="M767.7083,381.25 C767.7083,370.8333 816.1458,370.8333 816.1458,370.8333 C816.1458,370.8333 864.5833,370.8333 864.5833,381.25 L864.5833,416.2333 C864.5833,426.65 816.1458,426.65 816.1458,426.65 C816.1458,426.65 767.7083,426.65 767.7083,416.2333 L767.7083,381.25 " fill="url(#g1r7fxdktvmcib1)" style="stroke:#D3F198;stroke-width:1.0416666666666667;"/><path d="M767.7083,381.25 C767.7083,391.6667 816.1458,391.6667 816.1458,391.6667 C816.1458,391.6667 864.5833,391.6667 864.5833,381.25 " fill="none" style="stroke:#D3F198;stroke-width:1.0416666666666667;"/><text fill="#EAEAEA" font-family="Verdana" font-size="12.5" lengthAdjust="spacing" textLength="65.625" x="783.3333" y="413.6088">db-plans2</text></g><!--entity dbusers2--><g id="elem_dbusers2"><path d="M1355.7292,381.25 C1355.7292,370.8333 1404.6875,370.8333 1404.6875,370.8333 C1404.6875,370.8333 1453.6458,370.8333 1453.6458,381.25 L1453.6458,416.2333 C1453.6458,426.65 1404.6875,426.65 1404.6875,426.65 C1404.6875,426.65 1355.7292,426.65 1355.7292,416.2333 L1355.7292,381.25 " fill="url(#g1r7fxdktvmcib1)" style="stroke:#D3F198;stroke-width:1.0416666666666667;"/><path d="M1355.7292,381.25 C1355.7292,391.6667 1404.6875,391.6667 1404.6875,391.6667 C1404.6875,391.6667 1453.6458,391.6667 1453.6458,381.25 " fill="none" style="stroke:#D3F198;stroke-width:1.0416666666666667;"/><text fill="#EAEAEA" font-family="Verdana" font-size="12.5" lengthAdjust="spacing" textLength="66.6667" x="1371.3542" y="413.6088">db-users2</text></g><!--entity dbsub2--><g id="elem_dbsub2"><path d="M914.0625,381.25 C914.0625,370.8333 988.0208,370.8333 988.0208,370.8333 C988.0208,370.8333 1061.9792,370.8333 1061.9792,381.25 L1061.9792,416.2333 C1061.9792,426.65 988.0208,426.65 988.0208,426.65 C988.0208,426.65 914.0625,426.65 914.0625,416.2333 L914.0625,381.25 " fill="url(#g1r7fxdktvmcib1)" style="stroke:#D3F198;stroke-width:1.0416666666666667;"/><path d="M914.0625,381.25 C914.0625,391.6667 988.0208,391.6667 988.0208,391.6667 C988.0208,391.6667 1061.9792,391.6667 1061.9792,381.25 " fill="none" style="stroke:#D3F198;stroke-width:1.0416666666666667;"/><text fill="#EAEAEA" font-family="Verdana" font-size="12.5" lengthAdjust="spacing" textLength="116.6667" x="929.6875" y="413.6088">db-subscriptions2</text></g><g id="elem_Note"><path d="M16.6667,37.5 L16.6667,62.2416 A20.8333,20.8333 0 0 0 37.5,83.075 L223.9583,83.075 A20.8333,20.8333 0 0 0 244.7917,62.2416 L244.7917,27.0833 L234.375,16.6667 L37.5,16.6667 A20.8333,20.8333 0 0 0 16.6667,37.5 " fill="url(#g1r7fxdktvmcib2)" style="stroke:#885E7F;stroke-width:1.0416666666666667;"/><path d="M234.375,16.6667 L234.375,16.6667 A10.4167,10.4167 0 0 0 244.7917,27.0833 L244.7917,27.0833 L234.375,16.6667 " fill="url(#g1r7fxdktvmcib2)" style="stroke:#885E7F;stroke-width:1.0416666666666667;"/><text fill="#FFFFFF" font-family="Verdana" font-size="12.5" lengthAdjust="spacing" textLength="134.375" x="28.125" y="39.6505">If an instance needs</text><text fill="#FFFFFF" font-family="Verdana" font-size="12.5" lengthAdjust="spacing" textLength="195.8333" x="28.125" y="54.8421">to communicate with another,</text><text fill="#FFFFFF" font-family="Verdana" font-size="12.5" lengthAdjust="spacing" textLength="84.375" x="28.125" y="70.0338">it uses HTTP.</text></g><!--entity HTTPa--><g id="elem_HTTPa"><ellipse cx="331.7708" cy="50" fill="url(#g1r7fxdktvmcib3)" rx="8.3333" ry="8.3333" style="stroke:#BD6768;stroke-width:1.0416666666666667;"/><text fill="#000000" font-family="Verdana" font-size="12.5" lengthAdjust="spacing" textLength="73.9583" x="294.7917" y="85.4838">HTTP Client</text></g><!--entity HTTPb--><g id="elem_HTTPb"><ellipse cx="494.2708" cy="50" fill="url(#g1r7fxdktvmcib3)" rx="8.3333" ry="8.3333" style="stroke:#BD6768;stroke-width:1.0416666666666667;"/><text fill="#000000" font-family="Verdana" font-size="12.5" lengthAdjust="spacing" textLength="73.9583" x="457.2917" y="85.4838">HTTP Client</text></g><!--entity HTTPc--><g id="elem_HTTPc"><ellipse cx="668.2292" cy="50" fill="url(#g1r7fxdktvmcib3)" rx="8.3333" ry="8.3333" style="stroke:#BD6768;stroke-width:1.0416666666666667;"/><text fill="#000000" font-family="Verdana" font-size="12.5" lengthAdjust="spacing" textLength="73.9583" x="631.25" y="85.4838">HTTP Client</text></g><!--entity HTTPa2--><g id="elem_HTTPa2"><ellipse cx="816.1458" cy="50" fill="url(#g1r7fxdktvmcib3)" rx="8.3333" ry="8.3333" style="stroke:#BD6768;stroke-width:1.0416666666666667;"/><text fill="#000000" font-family="Verdana" font-size="12.5" lengthAdjust="spacing" textLength="73.9583" x="779.1667" y="85.4838">HTTP Client</text></g><!--entity HTTPb2--><g id="elem_HTTPb2"><ellipse cx="988.0208" cy="50" fill="url(#g1r7fxdktvmcib3)" rx="8.3333" ry="8.3333" style="stroke:#BD6768;stroke-width:1.0416666666666667;"/><text fill="#000000" font-family="Verdana" font-size="12.5" lengthAdjust="spacing" textLength="73.9583" x="951.0417" y="85.4838">HTTP Client</text></g><!--entity HTTPc2--><g id="elem_HTTPc2"><ellipse cx="1217.1875" cy="50" fill="url(#g1r7fxdktvmcib3)" rx="8.3333" ry="8.3333" style="stroke:#BD6768;stroke-width:1.0416666666666667;"/><text fill="#000000" font-family="Verdana" font-size="12.5" lengthAdjust="spacing" textLength="73.9583" x="1180.2083" y="85.4838">HTTP Client</text></g><!--link apiP to plans--><g id="link_apiP_plans"><path d="M331.2917,176.3229 C330.125,189.8021 327.5831,219.0027 325.3748,244.3985 " fill="none" id="apiP-to-plans" style="stroke:#B5E853;stroke-width:3.125;"/><polygon fill="#B5E853" points="324.8333,250.625,329.7965,241.6462,325.2845,245.4362,321.4945,240.9243,324.8333,250.625" style="stroke:#B5E853;stroke-width:3.125;"/></g><!--link apiS to subscriptions--><g id="link_apiS_subscriptions"><path d="M494.2708,176.3229 C494.2708,189.8021 494.2708,218.9792 494.2708,244.375 " fill="none" id="apiS-to-subscriptions" style="stroke:#B5E853;stroke-width:3.125;"/><polygon fill="#B5E853" points="494.2708,250.625,498.4375,241.25,494.2708,245.4167,490.1042,241.25,494.2708,250.625" style="stroke:#B5E853;stroke-width:3.125;"/></g><!--link apiU to users--><g id="link_apiU_users"><path d="M668.2292,176.3229 C668.2292,189.8021 668.2292,218.9792 668.2292,244.375 " fill="none" id="apiU-to-users" style="stroke:#B5E853;stroke-width:3.125;"/><polygon fill="#B5E853" points="668.2292,250.625,672.3958,241.25,668.2292,245.4167,664.0625,241.25,668.2292,250.625" style="stroke:#B5E853;stroke-width:3.125;"/></g><!--link HTTPa to apiP--><g id="link_HTTPa_apiP"><path d="M331.7708,59.5104 C331.7708,82.2813 331.7708,144.3958 331.7708,163.25 " fill="none" id="HTTPa-apiP" style="stroke:#B5E853;stroke-width:3.125;"/></g><!--link HTTPb to apiS--><g id="link_HTTPb_apiS"><path d="M494.2708,59.5104 C494.2708,82.2813 494.2708,144.3958 494.2708,163.25 " fill="none" id="HTTPb-apiS" style="stroke:#B5E853;stroke-width:3.125;"/></g><!--link HTTPc to apiU--><g id="link_HTTPc_apiU"><path d="M668.2292,59.5104 C668.2292,82.2813 668.2292,144.3958 668.2292,163.25 " fill="none" id="HTTPc-apiU" style="stroke:#B5E853;stroke-width:3.125;"/></g><!--link plans to dbplans--><g id="link_plans_dbplans"><path d="M322.3958,308.5 C322.3958,327.3125 322.3958,352.0625 322.3958,370.75 " fill="none" id="plans-dbplans" style="stroke:#B5E853;stroke-width:3.125;"/></g><!--link users to dbusers--><g id="link_users_dbusers"><path d="M668.2292,308.5 C668.2292,327.3125 668.2292,352.0625 668.2292,370.75 " fill="none" id="users-dbusers" style="stroke:#B5E853;stroke-width:3.125;"/></g><!--link subscriptions to dbsub--><g id="link_subscriptions_dbsub"><path d="M494.2708,308.5 C494.2708,327.3125 494.2708,352.0625 494.2708,370.75 " fill="none" id="subscriptions-dbsub" style="stroke:#B5E853;stroke-width:3.125;"/></g><!--link apiP2 to plans2--><g id="link_apiP2_plans2"><path d="M816.1458,176.3229 C816.1458,189.8021 816.1458,218.9792 816.1458,244.375 " fill="none" id="apiP2-to-plans2" style="stroke:#B5E853;stroke-width:3.125;"/><polygon fill="#B5E853" points="816.1458,250.625,820.3125,241.25,816.1458,245.4167,811.9792,241.25,816.1458,250.625" style="stroke:#B5E853;stroke-width:3.125;"/></g><!--link apiS2 to subscriptions2--><g id="link_apiS2_subscriptions2"><path d="M988.0208,176.3229 C988.0208,189.8021 988.0208,218.9792 988.0208,244.375 " fill="none" id="apiS2-to-subscriptions2" style="stroke:#B5E853;stroke-width:3.125;"/><polygon fill="#B5E853" points="988.0208,250.625,992.1875,241.25,988.0208,245.4167,983.8542,241.25,988.0208,250.625" style="stroke:#B5E853;stroke-width:3.125;"/></g><!--link apiU2 to users2--><g id="link_apiU2_users2"><path d="M1223,174.1771 C1242.9063,185.625 1304.2176,220.8735 1350.9989,247.7798 " fill="none" id="apiU2-to-users2" style="stroke:#B5E853;stroke-width:3.125;"/><polygon fill="#B5E853" points="1356.4167,250.8958,1350.3673,242.6099,1351.9018,248.2991,1346.2126,249.8336,1356.4167,250.8958" style="stroke:#B5E853;stroke-width:3.125;"/></g><!--link HTTPa2 to apiP2--><g id="link_HTTPa2_apiP2"><path d="M816.1458,59.5104 C816.1458,82.2813 816.1458,144.3958 816.1458,163.25 " fill="none" id="HTTPa2-apiP2" style="stroke:#B5E853;stroke-width:3.125;"/></g><!--link HTTPb2 to apiS2--><g id="link_HTTPb2_apiS2"><path d="M988.0208,59.5104 C988.0208,82.2813 988.0208,144.3958 988.0208,163.25 " fill="none" id="HTTPb2-apiS2" style="stroke:#B5E853;stroke-width:3.125;"/></g><!--link HTTPc2 to apiU2--><g id="link_HTTPc2_apiU2"><path d="M1217.1875,59.5104 C1217.1875,82.2813 1217.1875,144.3958 1217.1875,163.25 " fill="none" id="HTTPc2-apiU2" style="stroke:#B5E853;stroke-width:3.125;"/></g><!--link plans2 to dbplans2--><g id="link_plans2_dbplans2"><path d="M816.1458,308.5 C816.1458,327.3125 816.1458,352.0625 816.1458,370.75 " fill="none" id="plans2-dbplans2" style="stroke:#B5E853;stroke-width:3.125;"/></g><!--link users2 to dbusers2--><g id="link_users2_dbusers2"><path d="M1404.6875,308.5 C1404.6875,327.3125 1404.6875,352.0625 1404.6875,370.75 " fill="none" id="users2-dbusers2" style="stroke:#B5E853;stroke-width:3.125;"/></g><!--link subscriptions2 to dbsub2--><g id="link_subscriptions2_dbsub2"><path d="M988.0208,308.5 C988.0208,327.3125 988.0208,352.0625 988.0208,370.75 " fill="none" id="subscriptions2-dbsub2" style="stroke:#B5E853;stroke-width:3.125;"/></g><!--SRC=[ZLJ1Rjim3BthAxZiiClITBni28e0QvjWFMm8vlW3P5jDXDgIOSaOXc7_FefoxAHEwZa8RDAFvFEJdZuSlA_TSh6eIsbyMvKtkQqMzA-jKSRF2ottZQp4EtzGbOA3p5zK8uHxqQQMz0AqyQfvbhdQMECVR6aRk2y99UZgsy2CVdTtIPkvlD6rrzR0TsdaddeQlrh17m5qrRRnsi3ivphPmTVj4so9b9i1I0UorjlBeDEk18xOv38sTQhfCIbZhW_6OJ9UXvwDntx-6nLCeaUcA1Xw8XPFNsu_CIGiZ8Ftco-Fwy_hnUtjXgxN1MSSbaaiTAV9YGPCQPd6mZO4bmeAwMKcdO9PaSthk3Q4Bp9-7aFQNkqYu-Snn8qMhyWe9thrnhBW80jUOlcsDZZMvd-wT0BX8D3Lgh5AU2eJNWQsmwRenBe2TEFznfBHDlhB5SPw5R8_wCw9fsUGXepgl3Iv0gDK4LV2s_29LMjqBgdcb_O7GbgoUlEH0Tg7RtNmRRVRtWXb2cv-Qlz1ecZXZAo_RsnhYdWMx1lrctY9_fY0MMW63wMc8cOVOZa5oAO0-VGCd1moYSXHXEC0vlDLt84XJ3WyMvUGJZaTzxrW0fI8vnWFwwA4exoBKY6YuIay-YhwaHEnsxcp-GLxXhdXG8x99ZYcnozI70XYnn2F535oFCP9ZFDZ70wjpe43KHITCGQgA5uvxKWM_m40]--></g></svg>