<?xml version="1.0" encoding="us-ascii" standalone="no"?><svg xmlns="http://www.w3.org/2000/svg" xmlns:xlink="http://www.w3.org/1999/xlink" contentStyleType="text/css" height="368px" preserveAspectRatio="none" style="width:1144px;height:368px;" version="1.1" viewBox="0 0 1144 368" width="1144px" zoomAndPan="magnify"><defs><linearGradient id="g1qeon5rf9z7l30" x1="0%" x2="100%" y1="0%" y2="100%"><stop offset="0%" stop-color="#F8DE7E"/><stop offset="100%" stop-color="#00FFFF"/></linearGradient></defs><g><!--cluster  --><g id="cluster_ "><rect fill="#EFEFFF" height="239" rx="3.5" ry="3.5" style="stroke:#454645;stroke-width:1.0;" width="1131" x="7" y="123"/><rect fill="#EFEFFF" height="10" style="stroke:#454645;stroke-width:1.0;" width="15" x="1118" y="128"/><rect fill="#EFEFFF" height="2" style="stroke:#454645;stroke-width:1.0;" width="4" x="1116" y="130"/><rect fill="#EFEFFF" height="2" style="stroke:#454645;stroke-width:1.0;" width="4" x="1116" y="134"/><text fill="#454645" font-family="sans-serif" font-size="14" font-style="italic" lengthAdjust="spacing" textLength="181" x="482" y="151.1074">&#171;Subscription Management&#187;</text><text fill="#000000" font-family="sans-serif" font-size="14" font-weight="bold" lengthAdjust="spacing" textLength="4" x="570.5" y="169.7285">&#160;</text></g><text fill="#000000" font-family="sans-serif" font-size="14" lengthAdjust="spacing" textLength="94" x="145" y="101.4863">REST API Plan</text><rect fill="#F1F1F1" height="12" style="stroke:#181818;stroke-width:1.5;" width="12" x="186" y="117"/><text fill="#000000" font-family="sans-serif" font-size="14" lengthAdjust="spacing" textLength="102" x="25" y="101.4863">REST API Plan2</text><rect fill="#F1F1F1" height="12" style="stroke:#181818;stroke-width:1.5;" width="12" x="70" y="117"/><text fill="#000000" font-family="sans-serif" font-size="14" lengthAdjust="spacing" textLength="144" x="322.5" y="101.4863">REST API Subscription</text><rect fill="#F1F1F1" height="12" style="stroke:#181818;stroke-width:1.5;" width="12" x="388.5" y="117"/><text fill="#000000" font-family="sans-serif" font-size="14" lengthAdjust="spacing" textLength="152" x="492.5" y="101.4863">REST API Subscription2</text><rect fill="#F1F1F1" height="12" style="stroke:#181818;stroke-width:1.5;" width="12" x="562.5" y="117"/><text fill="#000000" font-family="sans-serif" font-size="14" lengthAdjust="spacing" textLength="95" x="671" y="101.4863">REST API User</text><rect fill="#F1F1F1" height="12" style="stroke:#181818;stroke-width:1.5;" width="12" x="712.5" y="117"/><text fill="#000000" font-family="sans-serif" font-size="14" lengthAdjust="spacing" textLength="103" x="853" y="101.4863">REST API User2</text><rect fill="#F1F1F1" height="12" style="stroke:#181818;stroke-width:1.5;" width="12" x="898.5" y="117"/><!--entity plansJPA--><g id="elem_plans"><rect fill="url(#g1qeon5rf9z7l30)" height="48.6211" rx="3.5" ry="3.5" style="stroke:#181818;stroke-width:0.5;" width="89" x="147.5" y="201"/><rect fill="url(#g1qeon5rf9z7l30)" height="10" style="stroke:#181818;stroke-width:0.5;" width="15" x="216.5" y="206"/><rect fill="url(#g1qeon5rf9z7l30)" height="2" style="stroke:#181818;stroke-width:0.5;" width="4" x="214.5" y="208"/><rect fill="url(#g1qeon5rf9z7l30)" height="2" style="stroke:#181818;stroke-width:0.5;" width="4" x="214.5" y="212"/><text fill="#000000" font-family="sans-serif" font-size="14" lengthAdjust="spacing" textLength="49" x="162.5" y="236.1074">P1:Plan</text></g><!--entity plans2--><g id="elem_plans2"><rect fill="url(#g1qeon5rf9z7l30)" height="48.6211" rx="3.5" ry="3.5" style="stroke:#181818;stroke-width:0.5;" width="89" x="23.5" y="201"/><rect fill="url(#g1qeon5rf9z7l30)" height="10" style="stroke:#181818;stroke-width:0.5;" width="15" x="92.5" y="206"/><rect fill="url(#g1qeon5rf9z7l30)" height="2" style="stroke:#181818;stroke-width:0.5;" width="4" x="90.5" y="208"/><rect fill="url(#g1qeon5rf9z7l30)" height="2" style="stroke:#181818;stroke-width:0.5;" width="4" x="90.5" y="212"/><text fill="#000000" font-family="sans-serif" font-size="14" lengthAdjust="spacing" textLength="49" x="38.5" y="236.1074">P2:Plan</text></g><!--entity subscriptions--><g id="elem_subscriptions"><rect fill="url(#g1qeon5rf9z7l30)" height="48.6211" rx="3.5" ry="3.5" style="stroke:#181818;stroke-width:0.5;" width="139" x="325.5" y="201"/><rect fill="url(#g1qeon5rf9z7l30)" height="10" style="stroke:#181818;stroke-width:0.5;" width="15" x="444.5" y="206"/><rect fill="url(#g1qeon5rf9z7l30)" height="2" style="stroke:#181818;stroke-width:0.5;" width="4" x="442.5" y="208"/><rect fill="url(#g1qeon5rf9z7l30)" height="2" style="stroke:#181818;stroke-width:0.5;" width="4" x="442.5" y="212"/><text fill="#000000" font-family="sans-serif" font-size="14" lengthAdjust="spacing" textLength="99" x="340.5" y="236.1074">S1:Subscription</text></g><!--entity subscriptions2--><g id="elem_subscriptions2"><rect fill="url(#g1qeon5rf9z7l30)" height="48.6211" rx="3.5" ry="3.5" style="stroke:#181818;stroke-width:0.5;" width="139" x="499.5" y="201"/><rect fill="url(#g1qeon5rf9z7l30)" height="10" style="stroke:#181818;stroke-width:0.5;" width="15" x="618.5" y="206"/><rect fill="url(#g1qeon5rf9z7l30)" height="2" style="stroke:#181818;stroke-width:0.5;" width="4" x="616.5" y="208"/><rect fill="url(#g1qeon5rf9z7l30)" height="2" style="stroke:#181818;stroke-width:0.5;" width="4" x="616.5" y="212"/><text fill="#000000" font-family="sans-serif" font-size="14" lengthAdjust="spacing" textLength="99" x="514.5" y="236.1074">S2:Subscription</text></g><!--entity users--><g id="elem_users"><rect fill="url(#g1qeon5rf9z7l30)" height="48.6211" rx="3.5" ry="3.5" style="stroke:#181818;stroke-width:0.5;" width="90" x="674" y="201"/><rect fill="url(#g1qeon5rf9z7l30)" height="10" style="stroke:#181818;stroke-width:0.5;" width="15" x="744" y="206"/><rect fill="url(#g1qeon5rf9z7l30)" height="2" style="stroke:#181818;stroke-width:0.5;" width="4" x="742" y="208"/><rect fill="url(#g1qeon5rf9z7l30)" height="2" style="stroke:#181818;stroke-width:0.5;" width="4" x="742" y="212"/><text fill="#000000" font-family="sans-serif" font-size="14" lengthAdjust="spacing" textLength="50" x="689" y="236.1074">U1:User</text></g><!--entity users2--><g id="elem_users2"><rect fill="url(#g1qeon5rf9z7l30)" height="48.6211" rx="3.5" ry="3.5" style="stroke:#181818;stroke-width:0.5;" width="90" x="1032" y="201"/><rect fill="url(#g1qeon5rf9z7l30)" height="10" style="stroke:#181818;stroke-width:0.5;" width="15" x="1102" y="206"/><rect fill="url(#g1qeon5rf9z7l30)" height="2" style="stroke:#181818;stroke-width:0.5;" width="4" x="1100" y="208"/><rect fill="url(#g1qeon5rf9z7l30)" height="2" style="stroke:#181818;stroke-width:0.5;" width="4" x="1100" y="212"/><text fill="#000000" font-family="sans-serif" font-size="14" lengthAdjust="spacing" textLength="50" x="1047" y="236.1074">U2:User</text></g><!--entity inter1--><g id="elem_inter1"><ellipse cx="281" cy="225.5" fill="#F1F1F1" rx="8" ry="8" style="stroke:#181818;stroke-width:0.5;"/></g><!--entity inter2--><g id="elem_inter2"><ellipse cx="270" cy="328" fill="#F1F1F1" rx="8" ry="8" style="stroke:#181818;stroke-width:0.5;"/></g><!--entity inter3--><g id="elem_inter3"><ellipse cx="633" cy="328" fill="#F1F1F1" rx="8" ry="8" style="stroke:#181818;stroke-width:0.5;"/></g><!--entity inter4--><g id="elem_inter4"><ellipse cx="437" cy="328" fill="#F1F1F1" rx="8" ry="8" style="stroke:#181818;stroke-width:0.5;"/></g><!--entity inter5--><g id="elem_inter5"><ellipse cx="786" cy="328" fill="#F1F1F1" rx="8" ry="8" style="stroke:#181818;stroke-width:0.5;"/></g><!--entity inter6--><g id="elem_inter6"><ellipse cx="1009" cy="328" fill="#F1F1F1" rx="8" ry="8" style="stroke:#181818;stroke-width:0.5;"/></g><!--entity HTTPa--><g id="elem_HTTPa"><ellipse cx="198" cy="14" fill="#F1F1F1" rx="8" ry="8" style="stroke:#181818;stroke-width:0.5;"/><text fill="#000000" font-family="sans-serif" font-size="14" lengthAdjust="spacing" textLength="76" x="160" y="46.1074">HTTP Client</text></g><!--entity HTTPb--><g id="elem_HTTPb"><ellipse cx="395" cy="14" fill="#F1F1F1" rx="8" ry="8" style="stroke:#181818;stroke-width:0.5;"/><text fill="#000000" font-family="sans-serif" font-size="14" lengthAdjust="spacing" textLength="76" x="357" y="46.1074">HTTP Client</text></g><!--entity HTTPc--><g id="elem_HTTPc"><ellipse cx="719" cy="14" fill="#F1F1F1" rx="8" ry="8" style="stroke:#181818;stroke-width:0.5;"/><text fill="#000000" font-family="sans-serif" font-size="14" lengthAdjust="spacing" textLength="76" x="681" y="46.1074">HTTP Client</text></g><!--entity HTTPa2--><g id="elem_HTTPa2"><ellipse cx="71" cy="14" fill="#F1F1F1" rx="8" ry="8" style="stroke:#181818;stroke-width:0.5;"/><text fill="#000000" font-family="sans-serif" font-size="14" lengthAdjust="spacing" textLength="76" x="33" y="46.1074">HTTP Client</text></g><!--entity HTTPb2--><g id="elem_HTTPb2"><ellipse cx="569" cy="14" fill="#F1F1F1" rx="8" ry="8" style="stroke:#181818;stroke-width:0.5;"/><text fill="#000000" font-family="sans-serif" font-size="14" lengthAdjust="spacing" textLength="76" x="531" y="46.1074">HTTP Client</text></g><!--entity HTTPc2--><g id="elem_HTTPc2"><ellipse cx="905" cy="14" fill="#F1F1F1" rx="8" ry="8" style="stroke:#181818;stroke-width:0.5;"/><text fill="#000000" font-family="sans-serif" font-size="14" lengthAdjust="spacing" textLength="76" x="867" y="46.1074">HTTP Client</text></g><!--link apiP to plansJPA--><g id="link_apiP_plans"><path d="M192,129.12 C192,142.08 192,176.83 192,200.61 " fill="none" id="apiP-plansJPA" style="stroke:#454645;stroke-width:1.0;"/></g><!--link apiS to subscriptions--><g id="link_apiS_subscriptions"><path d="M395,129.12 C395,142.08 395,176.83 395,200.61 " fill="none" id="apiS-subscriptions" style="stroke:#454645;stroke-width:1.0;"/></g><!--link apiU to users--><g id="link_apiU_users"><path d="M719,129.12 C719,142.08 719,176.83 719,200.61 " fill="none" id="apiU-users" style="stroke:#454645;stroke-width:1.0;"/></g><!--link HTTPa to apiP--><g id="link_HTTPa_apiP"><path d="M197.55,23.04 C196.38,43.94 193.26,99.54 192.29,116.81 " fill="none" id="HTTPa-apiP" style="stroke:#454645;stroke-width:1.0;"/></g><!--link HTTPb to apiS--><g id="link_HTTPb_apiS"><path d="M395,23.04 C395,43.94 395,99.54 395,116.81 " fill="none" id="HTTPb-apiS" style="stroke:#454645;stroke-width:1.0;"/></g><!--link HTTPc to apiU--><g id="link_HTTPc_apiU"><path d="M719,23.04 C719,43.94 719,99.54 719,116.81 " fill="none" id="HTTPc-apiU" style="stroke:#454645;stroke-width:1.0;"/></g><!--link apiP2 to plans2--><g id="link_apiP2_plans2"><path d="M75.59,129.12 C74.56,142.08 71.79,176.83 69.9,200.61 " fill="none" id="apiP2-plans2" style="stroke:#454645;stroke-width:1.0;"/></g><!--link apiS2 to subscriptions2--><g id="link_apiS2_subscriptions2"><path d="M569,129.12 C569,142.08 569,176.83 569,200.61 " fill="none" id="apiS2-subscriptions2" style="stroke:#454645;stroke-width:1.0;"/></g><!--link apiU2 to users2--><g id="link_apiU2_users2"><path d="M910.72,127.34 C930.02,138.62 993.86,175.92 1036.59,200.89 " fill="none" id="apiU2-users2" style="stroke:#454645;stroke-width:1.0;"/></g><!--link HTTPa2 to apiP2--><g id="link_HTTPa2_apiP2"><path d="M71.38,23.04 C72.35,43.94 74.95,99.54 75.76,116.81 " fill="none" id="HTTPa2-apiP2" style="stroke:#454645;stroke-width:1.0;"/></g><!--link HTTPb2 to apiS2--><g id="link_HTTPb2_apiS2"><path d="M569,23.04 C569,43.94 569,99.54 569,116.81 " fill="none" id="HTTPb2-apiS2" style="stroke:#454645;stroke-width:1.0;"/></g><!--link HTTPc2 to apiU2--><g id="link_HTTPc2_apiU2"><path d="M905,23.04 C905,43.94 905,99.54 905,116.81 " fill="none" id="HTTPc2-apiU2" style="stroke:#454645;stroke-width:1.0;"/></g><!--link plansJPA to inter1--><g id="link_plans_inter1"><path d="M236.85,225.5 C248.46,225.5 250.07,225.5 261.69,225.5 " fill="none" id="plansJPA-to-inter1" style="stroke:#454645;stroke-width:1.0;"/><path d="M268.6118,217.0428 A9,9 0 0 0 268.6118 233.9572" fill="none" style="stroke:#454645;stroke-width:1.5;"/></g><!--link inter1 to plans2--><g id="link_inter1_plans2"><path d="M277.21,216.25 C271.02,202.53 257.31,177.32 236.5,167 C201.06,149.43 185.08,154.66 147.5,167 C126.99,173.73 107.41,188.01 92.81,200.77 " fill="none" id="inter1-plans2" style="stroke:#454645;stroke-width:1.0;"/></g><!--link plansJPA to inter2--><g id="link_plans_inter2"><path d="M210.29,250.06 C227.4,272.11 252,303.81 263.55,318.69 " fill="none" id="plansJPA-inter2" style="stroke:#454645;stroke-width:1.0;"/></g><!--link subscriptions to inter2--><g id="link_subscriptions_inter2"><path d="M365.69,250.06 C337.69,272.57 304.9743,298.8851 286.9843,313.3451 " fill="none" id="subscriptions-to-inter2" style="stroke:#454645;stroke-width:1.0;"/><path d="M286.8876,324.2734 A9,9 0 0 0 276.2909 311.0897" fill="none" style="stroke:#454645;stroke-width:1.5;"/></g><!--link subscriptions2 to inter2--><g id="link_subscriptions2_inter2"><path d="M499.28,249.94 C424.38,275.11 321.1992,309.795 288.6092,320.745 " fill="none" id="subscriptions2-to-inter2" style="stroke:#454645;stroke-width:1.0;"/><path d="M284.7415,330.9664 A9,9 0 0 0 279.3543 314.9328" fill="none" style="stroke:#454645;stroke-width:1.5;"/></g><!--link plans2 to inter2--><g id="link_plans2_inter2"><path d="M112.83,248.8 C161.42,272.98 226.4759,305.3475 252.0159,318.0475 " fill="none" id="plans2-to-inter2" style="stroke:#454645;stroke-width:1.0;"/><path d="M261.9794,313.5568 A9,9 0 0 0 254.4482 328.7021" fill="none" style="stroke:#454645;stroke-width:1.5;"/></g><!--link subscriptions to inter3--><g id="link_subscriptions_inter3"><path d="M450.8,250.06 C509.06,274.66 595.78,311.28 623.87,323.14 " fill="none" id="subscriptions-inter3" style="stroke:#454645;stroke-width:1.0;"/></g><!--link subscriptions2 to inter3--><g id="link_subscriptions2_inter3"><path d="M584.01,250.06 C598.04,272.11 612.8568,295.3762 622.3368,310.2562 " fill="none" id="subscriptions2-to-inter3" style="stroke:#454645;stroke-width:1.0;"/><path d="M633.1887,311.5497 A9,9 0 0 0 618.9234 320.6381" fill="none" style="stroke:#454645;stroke-width:1.5;"/></g><!--link subscriptions to inter4--><g id="link_subscriptions_inter4"><path d="M404.85,250.06 C414.06,272.11 423.4533,294.5836 429.6733,309.4636 " fill="none" id="subscriptions-to-inter4" style="stroke:#454645;stroke-width:1.0;"/><path d="M440.1458,312.5882 A9,9 0 0 0 424.5399 319.1117" fill="none" style="stroke:#454645;stroke-width:1.5;"/></g><!--link subscriptions2 to inter4--><g id="link_subscriptions2_inter4"><path d="M538.05,250.06 C508.18,272.81 464.82,305.82 446.13,320.05 " fill="none" id="subscriptions2-inter4" style="stroke:#454645;stroke-width:1.0;"/></g><!--link users to inter5--><g id="link_users_inter5"><path d="M734.71,250.06 C749.41,272.11 770.54,303.81 780.46,318.69 " fill="none" id="users-inter5" style="stroke:#454645;stroke-width:1.0;"/></g><!--link users2 to inter5--><g id="link_users2_inter5"><path d="M1031.98,243.49 C1025.95,245.71 1019.83,247.93 1014,250 C929.36,280.07 835.5772,310.8396 804.6672,320.9196 " fill="none" id="users2-to-inter5" style="stroke:#454645;stroke-width:1.0;"/><path d="M800.7086,331.1061 A9,9 0 0 0 795.4644 315.0252" fill="none" style="stroke:#454645;stroke-width:1.5;"/></g><!--link users to inter6--><g id="link_users_inter6"><path d="M764.02,243.48 C770.06,245.7 776.17,247.92 782,250 C866.29,280.01 959.6088,310.8013 990.3788,320.9013 " fill="none" id="users-to-inter6" style="stroke:#454645;stroke-width:1.0;"/><path d="M999.5929,315.0246 A9,9 0 0 0 994.3178 331.0954" fill="none" style="stroke:#454645;stroke-width:1.5;"/></g><!--link users2 to inter6--><g id="link_users2_inter6"><path d="M1061.06,250.06 C1046.14,272.11 1024.69,303.81 1014.62,318.69 " fill="none" id="users2-inter6" style="stroke:#454645;stroke-width:1.0;"/></g><!--link users to inter3--><g id="link_users_inter3"><path d="M698.84,250.06 C679.97,272.11 659.3408,296.2113 646.6108,311.0913 " fill="none" id="users-to-inter3" style="stroke:#454645;stroke-width:1.0;"/><path d="M648.5374,321.8488 A9,9 0 0 0 635.6847 310.8531" fill="none" style="stroke:#454645;stroke-width:1.5;"/></g><!--link users2 to inter3--><g id="link_users2_inter3"><path d="M1031.86,244.31 C1025.9,246.37 1019.84,248.33 1014,250 C868.33,291.61 695.0364,318.0241 652.1664,324.2441 " fill="none" id="users2-to-inter3" style="stroke:#454645;stroke-width:1.0;"/><path d="M646.5306,333.6076 A9,9 0 0 0 644.1019 316.8684" fill="none" style="stroke:#454645;stroke-width:1.5;"/></g><!--SRC=[ZLFTJuCm47_lNt7E1tt1RPrJinWJFsRSWuu8-Dunt8XR8RHxCCR_tQDGrfK1bX2ukzz7ANTdQobJCUdtqmtZShVTN8J9jeztcl28IsSPirN6jkH4hgDj13Bv9aHynJnbc8K52xzMMRBZoyTaasJWPumBB27JG5Lg3nRyTUxFFkxzsVoDL1ZeuNLxw-qM8ipYLCO9XrV6sGhjkRoxWny2kD8aap67tllKy-7UdO6B- -y1C04iZLs5QSJHFP2IutAcVwy4Uysg9fnM-2RnG4IP1WNDeZci4WjACUEWtE6a-6f4vBzFmEdppTFqUjeV39vnLSecXreSQfDi5syugHs6C1B_SVLeXqRdBeBXf3gr7Rw8emIRH2rItKRHOYwZx9E5aMe-1Al4iAL6MsgZbjfbIstSKhiYlxXNOXHVVD-5nqsC7wfWUSow08ikGDZjGJjDEX4Xzd8-VE0ugWVpm0Fdi2NoP819zUC8KTv8ACPR-PIHfwAmZ0AYbffjP1SzhWoexQ3I0TKUj3IXseKMDZhsYZZKSJwHnTY1SwvRfdZiZKk4itHquv33uN4qbn9h8enAEQb6fgQYUwz9PDHeV5ddw08XnQpfp9YKOrIHntl8kMxL2gCJDcHKandz0G00]--></g></svg>
