<?xml version="1.0" encoding="us-ascii" standalone="no"?><svg xmlns="http://www.w3.org/2000/svg" xmlns:xlink="http://www.w3.org/1999/xlink" contentStyleType="text/css" height="380px" preserveAspectRatio="none" style="width:1132px;height:380px;" version="1.1" viewBox="0 0 1132 380" width="1132px" zoomAndPan="magnify"><defs><linearGradient id="gfmmlun1vg4gn0" x1="0%" x2="100%" y1="0%" y2="100%"><stop offset="0%" stop-color="#F8DE7E"/><stop offset="100%" stop-color="#00FFFF"/></linearGradient></defs><g><!--cluster  --><g id="cluster_ "><rect fill="#EFEFFF" height="251" rx="3.5" ry="3.5" style="stroke:#454645;stroke-width:1.0;" width="1119" x="7" y="123"/><rect fill="#EFEFFF" height="10" style="stroke:#454645;stroke-width:1.0;" width="15" x="1106" y="128"/><rect fill="#EFEFFF" height="2" style="stroke:#454645;stroke-width:1.0;" width="4" x="1104" y="130"/><rect fill="#EFEFFF" height="2" style="stroke:#454645;stroke-width:1.0;" width="4" x="1104" y="134"/><text fill="#454645" font-family="sans-serif" font-size="14" font-style="italic" lengthAdjust="spacing" textLength="181" x="476" y="151.1074">&#171;Subscription Management&#187;</text><text fill="#000000" font-family="sans-serif" font-size="14" font-weight="bold" lengthAdjust="spacing" textLength="4" x="564.5" y="169.7285">&#160;</text></g><text fill="#000000" font-family="sans-serif" font-size="14" lengthAdjust="spacing" textLength="101" x="26.5" y="101.4863">REST API Plans</text><rect fill="#F1F1F1" height="12" style="stroke:#181818;stroke-width:1.5;" width="12" x="71" y="117"/><text fill="#000000" font-family="sans-serif" font-size="14" lengthAdjust="spacing" textLength="151" x="151" y="101.4863">REST API Subscriptions</text><rect fill="#F1F1F1" height="12" style="stroke:#181818;stroke-width:1.5;" width="12" x="220.5" y="117"/><text fill="#000000" font-family="sans-serif" font-size="14" lengthAdjust="spacing" textLength="102" x="333" y="101.4863">REST API Users</text><rect fill="#F1F1F1" height="12" style="stroke:#181818;stroke-width:1.5;" width="12" x="378" y="117"/><text fill="#000000" font-family="sans-serif" font-size="14" lengthAdjust="spacing" textLength="109" x="461.5" y="101.4863">REST API Plans2</text><rect fill="#F1F1F1" height="12" style="stroke:#181818;stroke-width:1.5;" width="12" x="510" y="117"/><text fill="#000000" font-family="sans-serif" font-size="14" lengthAdjust="spacing" textLength="159" x="592" y="101.4863">REST API Subscriptions2</text><rect fill="#F1F1F1" height="12" style="stroke:#181818;stroke-width:1.5;" width="12" x="665.5" y="117"/><text fill="#000000" font-family="sans-serif" font-size="14" lengthAdjust="spacing" textLength="110" x="831" y="101.4863">REST API Users2</text><rect fill="#F1F1F1" height="12" style="stroke:#181818;stroke-width:1.5;" width="12" x="880" y="117"/><!--entity plans--><g id="elem_plans"><rect fill="url(#gfmmlun1vg4gn0)" height="48.6211" rx="3.5" ry="3.5" style="stroke:#181818;stroke-width:0.5;" width="96" x="23" y="201"/><rect fill="url(#gfmmlun1vg4gn0)" height="10" style="stroke:#181818;stroke-width:0.5;" width="15" x="99" y="206"/><rect fill="url(#gfmmlun1vg4gn0)" height="2" style="stroke:#181818;stroke-width:0.5;" width="4" x="97" y="208"/><rect fill="url(#gfmmlun1vg4gn0)" height="2" style="stroke:#181818;stroke-width:0.5;" width="4" x="97" y="212"/><text fill="#000000" font-family="sans-serif" font-size="14" lengthAdjust="spacing" textLength="56" x="38" y="236.1074">Plans:P1</text></g><!--entity subscriptions--><g id="elem_subscriptions"><rect fill="url(#gfmmlun1vg4gn0)" height="48.6211" rx="3.5" ry="3.5" style="stroke:#181818;stroke-width:0.5;" width="146" x="154" y="201"/><rect fill="url(#gfmmlun1vg4gn0)" height="10" style="stroke:#181818;stroke-width:0.5;" width="15" x="280" y="206"/><rect fill="url(#gfmmlun1vg4gn0)" height="2" style="stroke:#181818;stroke-width:0.5;" width="4" x="278" y="208"/><rect fill="url(#gfmmlun1vg4gn0)" height="2" style="stroke:#181818;stroke-width:0.5;" width="4" x="278" y="212"/><text fill="#000000" font-family="sans-serif" font-size="14" lengthAdjust="spacing" textLength="106" x="169" y="236.1074">Subscriptions:S1</text></g><!--entity users--><g id="elem_users"><rect fill="url(#gfmmlun1vg4gn0)" height="48.6211" rx="3.5" ry="3.5" style="stroke:#181818;stroke-width:0.5;" width="97" x="335.5" y="201"/><rect fill="url(#gfmmlun1vg4gn0)" height="10" style="stroke:#181818;stroke-width:0.5;" width="15" x="412.5" y="206"/><rect fill="url(#gfmmlun1vg4gn0)" height="2" style="stroke:#181818;stroke-width:0.5;" width="4" x="410.5" y="208"/><rect fill="url(#gfmmlun1vg4gn0)" height="2" style="stroke:#181818;stroke-width:0.5;" width="4" x="410.5" y="212"/><text fill="#000000" font-family="sans-serif" font-size="14" lengthAdjust="spacing" textLength="57" x="350.5" y="236.1074">Users:U1</text></g><!--entity dbplans--><g id="elem_dbplans"><path d="M33.5,320 C33.5,310 71,310 71,310 C71,310 108.5,310 108.5,320 L108.5,347.6211 C108.5,357.6211 71,357.6211 71,357.6211 C71,357.6211 33.5,357.6211 33.5,347.6211 L33.5,320 " fill="#98DDDE" style="stroke:#454645;stroke-width:0.5;"/><path d="M33.5,320 C33.5,330 71,330 71,330 C71,330 108.5,330 108.5,320 " fill="none" style="stroke:#454645;stroke-width:0.5;"/><text fill="#454645" font-family="sans-serif" font-size="14" lengthAdjust="spacing" textLength="55" x="43.5" y="349.1074">db-plans</text></g><!--entity dbusers--><g id="elem_dbusers"><path d="M346,320 C346,310 384,310 384,310 C384,310 422,310 422,320 L422,347.6211 C422,357.6211 384,357.6211 384,357.6211 C384,357.6211 346,357.6211 346,347.6211 L346,320 " fill="#98DDDE" style="stroke:#454645;stroke-width:0.5;"/><path d="M346,320 C346,330 384,330 384,330 C384,330 422,330 422,320 " fill="none" style="stroke:#454645;stroke-width:0.5;"/><text fill="#454645" font-family="sans-serif" font-size="14" lengthAdjust="spacing" textLength="56" x="356" y="349.1074">db-users</text></g><!--entity dbsub--><g id="elem_dbsub"><path d="M165,320 C165,310 227,310 227,310 C227,310 289,310 289,320 L289,347.6211 C289,357.6211 227,357.6211 227,357.6211 C227,357.6211 165,357.6211 165,347.6211 L165,320 " fill="#98DDDE" style="stroke:#454645;stroke-width:0.5;"/><path d="M165,320 C165,330 227,330 227,330 C227,330 289,330 289,320 " fill="none" style="stroke:#454645;stroke-width:0.5;"/><text fill="#454645" font-family="sans-serif" font-size="14" lengthAdjust="spacing" textLength="104" x="175" y="349.1074">db-subscriptions</text></g><!--entity plans2--><g id="elem_plans2"><rect fill="url(#gfmmlun1vg4gn0)" height="48.6211" rx="3.5" ry="3.5" style="stroke:#181818;stroke-width:0.5;" width="96" x="468" y="201"/><rect fill="url(#gfmmlun1vg4gn0)" height="10" style="stroke:#181818;stroke-width:0.5;" width="15" x="544" y="206"/><rect fill="url(#gfmmlun1vg4gn0)" height="2" style="stroke:#181818;stroke-width:0.5;" width="4" x="542" y="208"/><rect fill="url(#gfmmlun1vg4gn0)" height="2" style="stroke:#181818;stroke-width:0.5;" width="4" x="542" y="212"/><text fill="#000000" font-family="sans-serif" font-size="14" lengthAdjust="spacing" textLength="56" x="483" y="236.1074">Plans:P2</text></g><!--entity subscriptions2--><g id="elem_subscriptions2"><rect fill="url(#gfmmlun1vg4gn0)" height="48.6211" rx="3.5" ry="3.5" style="stroke:#181818;stroke-width:0.5;" width="146" x="599" y="201"/><rect fill="url(#gfmmlun1vg4gn0)" height="10" style="stroke:#181818;stroke-width:0.5;" width="15" x="725" y="206"/><rect fill="url(#gfmmlun1vg4gn0)" height="2" style="stroke:#181818;stroke-width:0.5;" width="4" x="723" y="208"/><rect fill="url(#gfmmlun1vg4gn0)" height="2" style="stroke:#181818;stroke-width:0.5;" width="4" x="723" y="212"/><text fill="#000000" font-family="sans-serif" font-size="14" lengthAdjust="spacing" textLength="106" x="614" y="236.1074">Subscriptions:S2</text></g><!--entity users2--><g id="elem_users2"><rect fill="url(#gfmmlun1vg4gn0)" height="48.6211" rx="3.5" ry="3.5" style="stroke:#181818;stroke-width:0.5;" width="97" x="1012.5" y="201"/><rect fill="url(#gfmmlun1vg4gn0)" height="10" style="stroke:#181818;stroke-width:0.5;" width="15" x="1089.5" y="206"/><rect fill="url(#gfmmlun1vg4gn0)" height="2" style="stroke:#181818;stroke-width:0.5;" width="4" x="1087.5" y="208"/><rect fill="url(#gfmmlun1vg4gn0)" height="2" style="stroke:#181818;stroke-width:0.5;" width="4" x="1087.5" y="212"/><text fill="#000000" font-family="sans-serif" font-size="14" lengthAdjust="spacing" textLength="57" x="1027.5" y="236.1074">Users:U2</text></g><!--entity dbplans2--><g id="elem_dbplans2"><path d="M474.5,320 C474.5,310 516,310 516,310 C516,310 557.5,310 557.5,320 L557.5,347.6211 C557.5,357.6211 516,357.6211 516,357.6211 C516,357.6211 474.5,357.6211 474.5,347.6211 L474.5,320 " fill="#98DDDE" style="stroke:#454645;stroke-width:0.5;"/><path d="M474.5,320 C474.5,330 516,330 516,330 C516,330 557.5,330 557.5,320 " fill="none" style="stroke:#454645;stroke-width:0.5;"/><text fill="#454645" font-family="sans-serif" font-size="14" lengthAdjust="spacing" textLength="63" x="484.5" y="349.1074">db-plans2</text></g><!--entity dbusers2--><g id="elem_dbusers2"><path d="M1019,320 C1019,310 1061,310 1061,310 C1061,310 1103,310 1103,320 L1103,347.6211 C1103,357.6211 1061,357.6211 1061,357.6211 C1061,357.6211 1019,357.6211 1019,347.6211 L1019,320 " fill="#98DDDE" style="stroke:#454645;stroke-width:0.5;"/><path d="M1019,320 C1019,330 1061,330 1061,330 C1061,330 1103,330 1103,320 " fill="none" style="stroke:#454645;stroke-width:0.5;"/><text fill="#454645" font-family="sans-serif" font-size="14" lengthAdjust="spacing" textLength="64" x="1029" y="349.1074">db-users2</text></g><!--entity dbsub2--><g id="elem_dbsub2"><path d="M606,320 C606,310 672,310 672,310 C672,310 738,310 738,320 L738,347.6211 C738,357.6211 672,357.6211 672,357.6211 C672,357.6211 606,357.6211 606,347.6211 L606,320 " fill="#98DDDE" style="stroke:#454645;stroke-width:0.5;"/><path d="M606,320 C606,330 672,330 672,330 C672,330 738,330 738,320 " fill="none" style="stroke:#454645;stroke-width:0.5;"/><text fill="#454645" font-family="sans-serif" font-size="14" lengthAdjust="spacing" textLength="112" x="616" y="349.1074">db-subscriptions2</text></g><!--entity HTTPa--><g id="elem_HTTPa"><ellipse cx="77" cy="14" fill="#F1F1F1" rx="8" ry="8" style="stroke:#181818;stroke-width:0.5;"/><text fill="#000000" font-family="sans-serif" font-size="14" lengthAdjust="spacing" textLength="76" x="39" y="46.1074">HTTP Client</text></g><!--entity HTTPb--><g id="elem_HTTPb"><ellipse cx="227" cy="14" fill="#F1F1F1" rx="8" ry="8" style="stroke:#181818;stroke-width:0.5;"/><text fill="#000000" font-family="sans-serif" font-size="14" lengthAdjust="spacing" textLength="76" x="189" y="46.1074">HTTP Client</text></g><!--entity HTTPc--><g id="elem_HTTPc"><ellipse cx="384" cy="14" fill="#F1F1F1" rx="8" ry="8" style="stroke:#181818;stroke-width:0.5;"/><text fill="#000000" font-family="sans-serif" font-size="14" lengthAdjust="spacing" textLength="76" x="346" y="46.1074">HTTP Client</text></g><!--entity HTTPa2--><g id="elem_HTTPa2"><ellipse cx="516" cy="14" fill="#F1F1F1" rx="8" ry="8" style="stroke:#181818;stroke-width:0.5;"/><text fill="#000000" font-family="sans-serif" font-size="14" lengthAdjust="spacing" textLength="76" x="478" y="46.1074">HTTP Client</text></g><!--entity HTTPb2--><g id="elem_HTTPb2"><ellipse cx="672" cy="14" fill="#F1F1F1" rx="8" ry="8" style="stroke:#181818;stroke-width:0.5;"/><text fill="#000000" font-family="sans-serif" font-size="14" lengthAdjust="spacing" textLength="76" x="634" y="46.1074">HTTP Client</text></g><!--entity HTTPc2--><g id="elem_HTTPc2"><ellipse cx="886" cy="14" fill="#F1F1F1" rx="8" ry="8" style="stroke:#181818;stroke-width:0.5;"/><text fill="#000000" font-family="sans-serif" font-size="14" lengthAdjust="spacing" textLength="76" x="848" y="46.1074">HTTP Client</text></g><!--link apiP to plans--><g id="link_apiP_plans"><path d="M76.69,129.12 C75.92,142.08 74.2076,170.8407 72.7876,194.6207 " fill="none" id="apiP-to-plans" style="stroke:#454645;stroke-width:1.0;"/><polygon fill="#454645" points="72.43,200.61,76.9594,191.8644,72.728,195.6189,68.9736,191.3876,72.43,200.61" style="stroke:#454645;stroke-width:1.0;"/></g><!--link apiS to subscriptions--><g id="link_apiS_subscriptions"><path d="M227,129.12 C227,142.08 227,170.83 227,194.61 " fill="none" id="apiS-to-subscriptions" style="stroke:#454645;stroke-width:1.0;"/><polygon fill="#454645" points="227,200.61,231,191.61,227,195.61,223,191.61,227,200.61" style="stroke:#454645;stroke-width:1.0;"/></g><!--link apiU to users--><g id="link_apiU_users"><path d="M384,129.12 C384,142.08 384,170.83 384,194.61 " fill="none" id="apiU-to-users" style="stroke:#454645;stroke-width:1.0;"/><polygon fill="#454645" points="384,200.61,388,191.61,384,195.61,380,191.61,384,200.61" style="stroke:#454645;stroke-width:1.0;"/></g><!--link HTTPa to apiP--><g id="link_HTTPa_apiP"><path d="M77,23.04 C77,43.94 77,99.54 77,116.81 " fill="none" id="HTTPa-apiP" style="stroke:#454645;stroke-width:1.0;"/></g><!--link HTTPb to apiS--><g id="link_HTTPb_apiS"><path d="M227,23.04 C227,43.94 227,99.54 227,116.81 " fill="none" id="HTTPb-apiS" style="stroke:#454645;stroke-width:1.0;"/></g><!--link HTTPc to apiU--><g id="link_HTTPc_apiU"><path d="M384,23.04 C384,43.94 384,99.54 384,116.81 " fill="none" id="HTTPc-apiU" style="stroke:#454645;stroke-width:1.0;"/></g><!--link plans to dbplans--><g id="link_plans_dbplans"><path d="M71,250.14 C71,267.91 71,292.13 71,309.8 " fill="none" id="plans-dbplans" style="stroke:#454645;stroke-width:1.0;"/></g><!--link users to dbusers--><g id="link_users_dbusers"><path d="M384,250.14 C384,267.91 384,292.13 384,309.8 " fill="none" id="users-dbusers" style="stroke:#454645;stroke-width:1.0;"/></g><!--link subscriptions to dbsub--><g id="link_subscriptions_dbsub"><path d="M227,250.14 C227,267.91 227,292.13 227,309.8 " fill="none" id="subscriptions-dbsub" style="stroke:#454645;stroke-width:1.0;"/></g><!--link apiP2 to plans2--><g id="link_apiP2_plans2"><path d="M516,129.12 C516,142.08 516,170.83 516,194.61 " fill="none" id="apiP2-to-plans2" style="stroke:#454645;stroke-width:1.0;"/><polygon fill="#454645" points="516,200.61,520,191.61,516,195.61,512,191.61,516,200.61" style="stroke:#454645;stroke-width:1.0;"/></g><!--link apiS2 to subscriptions2--><g id="link_apiS2_subscriptions2"><path d="M672,129.12 C672,142.08 672,170.83 672,194.61 " fill="none" id="apiS2-to-subscriptions2" style="stroke:#454645;stroke-width:1.0;"/><polygon fill="#454645" points="672,200.61,676,191.61,672,195.61,668,191.61,672,200.61" style="stroke:#454645;stroke-width:1.0;"/></g><!--link apiU2 to users2--><g id="link_apiU2_users2"><path d="M892.23,127.58 C912.32,139.12 971.4171,173.0518 1014.5971,197.8518 " fill="none" id="apiU2-to-users2" style="stroke:#454645;stroke-width:1.0;"/><polygon fill="#454645" points="1019.8,200.84,1013.9878,192.889,1015.4642,198.3498,1010.0035,199.8262,1019.8,200.84" style="stroke:#454645;stroke-width:1.0;"/></g><!--link HTTPa2 to apiP2--><g id="link_HTTPa2_apiP2"><path d="M516,23.04 C516,43.94 516,99.54 516,116.81 " fill="none" id="HTTPa2-apiP2" style="stroke:#454645;stroke-width:1.0;"/></g><!--link HTTPb2 to apiS2--><g id="link_HTTPb2_apiS2"><path d="M672,23.04 C672,43.94 672,99.54 672,116.81 " fill="none" id="HTTPb2-apiS2" style="stroke:#454645;stroke-width:1.0;"/></g><!--link HTTPc2 to apiU2--><g id="link_HTTPc2_apiU2"><path d="M886,23.04 C886,43.94 886,99.54 886,116.81 " fill="none" id="HTTPc2-apiU2" style="stroke:#454645;stroke-width:1.0;"/></g><!--link plans2 to dbplans2--><g id="link_plans2_dbplans2"><path d="M516,250.14 C516,267.91 516,292.13 516,309.8 " fill="none" id="plans2-dbplans2" style="stroke:#454645;stroke-width:1.0;"/></g><!--link users2 to dbusers2--><g id="link_users2_dbusers2"><path d="M1061,250.14 C1061,267.91 1061,292.13 1061,309.8 " fill="none" id="users2-dbusers2" style="stroke:#454645;stroke-width:1.0;"/></g><!--link subscriptions2 to dbsub2--><g id="link_subscriptions2_dbsub2"><path d="M672,250.14 C672,267.91 672,292.13 672,309.8 " fill="none" id="subscriptions2-dbsub2" style="stroke:#454645;stroke-width:1.0;"/></g><!--SRC=[ZLHDJ-D03BtFh_2M0wTkmHTM5Qg4e8WUW8WaUvzyK2BQIPIP713Yl-DuaapQf8HKbV8yp_RJ6pldRyOKUhbO53kfJBNV_Otp_OB-HQvIPUP99hUbt8i_vYtTfs3o3o7qUwOAIL68PFo-BVDA9RVvBYyXAANIT4IPegi1C_fTN_jLfECoAqoMAtYKIcwfe3Ah5NmAeAV8IvCfcBsi_G1kl0ruf4ZF0AG6MMJUEAbVbSYMwuzpGvsM7ITapkd6w3hZQUf1U-pw_v318ZfcY8AfFREu-zAxP4fzAnhExl_ThQ_MYukBUtgE4muqB7sRgFl1YG8iQHdQnAe6Omc9D3AIEeLP4iqBUpV4Jo9-7rAgpkqaulSXHGykBuae9ZhtXhQWimN7LFxi3Gwz-KsLnY1q1ftC6hg4VPjmd5YveMZCEa7KmtbZosYClaH_Cvrwkrt7c_hu76p-tmIRvwSwCLCcBLzbJ4qUWi23srr6gLo-ndAA44qHukaUEDbaaX6ZgFSLvlEL7P4Q-WmFZAl38OVjO0eMG07xeU5c3V8PnGqAXR0RIR0TVBim7B3L3bUF3tYeMHiwSIpMnw4yFWZH2SH68ROIqMfiiMzntEBwgzAiY1EAefbS9nN5qIgqOl4R]--></g></svg>