<?xml version="1.0" encoding="us-ascii" standalone="no"?><svg xmlns="http://www.w3.org/2000/svg" xmlns:xlink="http://www.w3.org/1999/xlink" contentStyleType="text/css" height="370.8333px" preserveAspectRatio="none" style="width:1033px;height:370px;" version="1.1" viewBox="0 0 1033 370" width="1033.3333px" zoomAndPan="magnify"><defs><linearGradient id="g1j5ah5hywrekw0" x1="50%" x2="50%" y1="0%" y2="100%"><stop offset="0%" stop-color="#D3F198"/><stop offset="100%" stop-color="#B5E853"/></linearGradient><linearGradient id="g1j5ah5hywrekw1" x1="50%" x2="50%" y1="0%" y2="100%"><stop offset="0%" stop-color="#151515"/><stop offset="100%" stop-color="#000000"/></linearGradient></defs><g><!--cluster sisdi--><g id="cluster_sisdi"><polygon fill="#151515" points="27.0833,27.0833,37.5,16.6667,1010.4167,16.6667,1010.4167,337.5,1000,347.9167,27.0833,347.9167,27.0833,27.0833" style="stroke:#B5E853;stroke-width:1.0416666666666667;"/><line style="stroke:#B5E853;stroke-width:1.0416666666666667;" x1="1000" x2="1010.4167" y1="27.0833" y2="16.6667"/><line style="stroke:#B5E853;stroke-width:1.0416666666666667;" x1="27.0833" x2="1000" y1="27.0833" y2="27.0833"/><line style="stroke:#B5E853;stroke-width:1.0416666666666667;" x1="1000" x2="1000" y1="27.0833" y2="347.9167"/><text fill="#EAEAEA" font-family="Verdana" font-size="12.5" font-weight="bold" lengthAdjust="spacing" textLength="131.25" x="448.9583" y="47.9838">Personal Computer</text></g><!--cluster h2--><g id="cluster_h2"><rect fill="#151515" height="117.7083" rx="20.8333" ry="20.8333" style="stroke:#B5E853;stroke-width:2.0833333333333335;" width="877.0833" x="82.2917" y="205.2083"/><text fill="#6D8B32" font-family="Verdana" font-size="12.5" font-weight="bold" lengthAdjust="spacing" textLength="19.7917" x="510.9375" y="225.0671">H2</text></g><!--entity p1--><g id="elem_p1"><rect fill="url(#g1j5ah5hywrekw0)" height="56.8583" rx="4.1667" ry="4.1667" style="stroke:#D3F198;stroke-width:1.0416666666666667;" width="109.375" x="883.8542" y="66.6667"/><rect fill="url(#g1j5ah5hywrekw0)" height="10.4167" style="stroke:#D3F198;stroke-width:1.0416666666666667;" width="15.625" x="972.3958" y="71.875"/><rect fill="url(#g1j5ah5hywrekw0)" height="2.0833" style="stroke:#D3F198;stroke-width:1.0416666666666667;" width="4.1667" x="970.3125" y="73.9583"/><rect fill="url(#g1j5ah5hywrekw0)" height="2.0833" style="stroke:#D3F198;stroke-width:1.0416666666666667;" width="4.1667" x="970.3125" y="78.125"/><text fill="#151515" font-family="Verdana" font-size="12.5" lengthAdjust="spacing" textLength="57.2917" x="904.6875" y="105.2755">Plans:P1</text></g><!--entity p2--><g id="elem_p2"><rect fill="url(#g1j5ah5hywrekw0)" height="56.8583" rx="4.1667" ry="4.1667" style="stroke:#D3F198;stroke-width:1.0416666666666667;" width="109.375" x="738.0208" y="66.6667"/><rect fill="url(#g1j5ah5hywrekw0)" height="10.4167" style="stroke:#D3F198;stroke-width:1.0416666666666667;" width="15.625" x="826.5625" y="71.875"/><rect fill="url(#g1j5ah5hywrekw0)" height="2.0833" style="stroke:#D3F198;stroke-width:1.0416666666666667;" width="4.1667" x="824.4792" y="73.9583"/><rect fill="url(#g1j5ah5hywrekw0)" height="2.0833" style="stroke:#D3F198;stroke-width:1.0416666666666667;" width="4.1667" x="824.4792" y="78.125"/><text fill="#151515" font-family="Verdana" font-size="12.5" lengthAdjust="spacing" textLength="57.2917" x="758.8542" y="105.2755">Plans:P2</text></g><!--entity s1--><g id="elem_s1"><rect fill="url(#g1j5ah5hywrekw0)" height="56.8583" rx="4.1667" ry="4.1667" style="stroke:#D3F198;stroke-width:1.0416666666666667;" width="161.4583" x="540.1042" y="66.6667"/><rect fill="url(#g1j5ah5hywrekw0)" height="10.4167" style="stroke:#D3F198;stroke-width:1.0416666666666667;" width="15.625" x="680.7292" y="71.875"/><rect fill="url(#g1j5ah5hywrekw0)" height="2.0833" style="stroke:#D3F198;stroke-width:1.0416666666666667;" width="4.1667" x="678.6458" y="73.9583"/><rect fill="url(#g1j5ah5hywrekw0)" height="2.0833" style="stroke:#D3F198;stroke-width:1.0416666666666667;" width="4.1667" x="678.6458" y="78.125"/><text fill="#151515" font-family="Verdana" font-size="12.5" lengthAdjust="spacing" textLength="109.375" x="560.9375" y="105.2755">Subscriptions:S1</text></g><!--entity s2--><g id="elem_s2"><rect fill="url(#g1j5ah5hywrekw0)" height="56.8583" rx="4.1667" ry="4.1667" style="stroke:#D3F198;stroke-width:1.0416666666666667;" width="161.4583" x="342.1875" y="66.6667"/><rect fill="url(#g1j5ah5hywrekw0)" height="10.4167" style="stroke:#D3F198;stroke-width:1.0416666666666667;" width="15.625" x="482.8125" y="71.875"/><rect fill="url(#g1j5ah5hywrekw0)" height="2.0833" style="stroke:#D3F198;stroke-width:1.0416666666666667;" width="4.1667" x="480.7292" y="73.9583"/><rect fill="url(#g1j5ah5hywrekw0)" height="2.0833" style="stroke:#D3F198;stroke-width:1.0416666666666667;" width="4.1667" x="480.7292" y="78.125"/><text fill="#151515" font-family="Verdana" font-size="12.5" lengthAdjust="spacing" textLength="109.375" x="363.0208" y="105.2755">Subscriptions:S2</text></g><!--entity u1--><g id="elem_u1"><rect fill="url(#g1j5ah5hywrekw0)" height="56.8583" rx="4.1667" ry="4.1667" style="stroke:#D3F198;stroke-width:1.0416666666666667;" width="112.5" x="192.7083" y="66.6667"/><rect fill="url(#g1j5ah5hywrekw0)" height="10.4167" style="stroke:#D3F198;stroke-width:1.0416666666666667;" width="15.625" x="284.375" y="71.875"/><rect fill="url(#g1j5ah5hywrekw0)" height="2.0833" style="stroke:#D3F198;stroke-width:1.0416666666666667;" width="4.1667" x="282.2917" y="73.9583"/><rect fill="url(#g1j5ah5hywrekw0)" height="2.0833" style="stroke:#D3F198;stroke-width:1.0416666666666667;" width="4.1667" x="282.2917" y="78.125"/><text fill="#151515" font-family="Verdana" font-size="12.5" lengthAdjust="spacing" textLength="60.4167" x="213.5417" y="105.2755">Users:U1</text></g><!--entity u2--><g id="elem_u2"><rect fill="url(#g1j5ah5hywrekw0)" height="56.8583" rx="4.1667" ry="4.1667" style="stroke:#D3F198;stroke-width:1.0416666666666667;" width="112.5" x="43.75" y="66.6667"/><rect fill="url(#g1j5ah5hywrekw0)" height="10.4167" style="stroke:#D3F198;stroke-width:1.0416666666666667;" width="15.625" x="135.4167" y="71.875"/><rect fill="url(#g1j5ah5hywrekw0)" height="2.0833" style="stroke:#D3F198;stroke-width:1.0416666666666667;" width="4.1667" x="133.3333" y="73.9583"/><rect fill="url(#g1j5ah5hywrekw0)" height="2.0833" style="stroke:#D3F198;stroke-width:1.0416666666666667;" width="4.1667" x="133.3333" y="78.125"/><text fill="#151515" font-family="Verdana" font-size="12.5" lengthAdjust="spacing" textLength="60.4167" x="64.5833" y="105.2755">Users:U2</text></g><!--entity dbp--><g id="elem_dbp"><path d="M853.6458,260.4167 C853.6458,250 897.9167,250 897.9167,250 C897.9167,250 942.1875,250 942.1875,260.4167 L942.1875,295.4 C942.1875,305.8167 897.9167,305.8167 897.9167,305.8167 C897.9167,305.8167 853.6458,305.8167 853.6458,295.4 L853.6458,260.4167 " fill="url(#g1j5ah5hywrekw1)" style="stroke:#D3F198;stroke-width:1.0416666666666667;"/><path d="M853.6458,260.4167 C853.6458,270.8333 897.9167,270.8333 897.9167,270.8333 C897.9167,270.8333 942.1875,270.8333 942.1875,260.4167 " fill="none" style="stroke:#D3F198;stroke-width:1.0416666666666667;"/><text fill="#EAEAEA" font-family="Verdana" font-size="12.5" lengthAdjust="spacing" textLength="57.2917" x="869.2708" y="292.7755">db-plans</text></g><!--entity dbp2--><g id="elem_dbp2"><path d="M720.3125,260.4167 C720.3125,250 768.75,250 768.75,250 C768.75,250 817.1875,250 817.1875,260.4167 L817.1875,295.4 C817.1875,305.8167 768.75,305.8167 768.75,305.8167 C768.75,305.8167 720.3125,305.8167 720.3125,295.4 L720.3125,260.4167 " fill="url(#g1j5ah5hywrekw1)" style="stroke:#D3F198;stroke-width:1.0416666666666667;"/><path d="M720.3125,260.4167 C720.3125,270.8333 768.75,270.8333 768.75,270.8333 C768.75,270.8333 817.1875,270.8333 817.1875,260.4167 " fill="none" style="stroke:#D3F198;stroke-width:1.0416666666666667;"/><text fill="#EAEAEA" font-family="Verdana" font-size="12.5" lengthAdjust="spacing" textLength="65.625" x="735.9375" y="292.7755">db-plans2</text></g><!--entity dbs--><g id="elem_dbs"><path d="M543.75,260.4167 C543.75,250 613.5417,250 613.5417,250 C613.5417,250 683.3333,250 683.3333,260.4167 L683.3333,295.4 C683.3333,305.8167 613.5417,305.8167 613.5417,305.8167 C613.5417,305.8167 543.75,305.8167 543.75,295.4 L543.75,260.4167 " fill="url(#g1j5ah5hywrekw1)" style="stroke:#D3F198;stroke-width:1.0416666666666667;"/><path d="M543.75,260.4167 C543.75,270.8333 613.5417,270.8333 613.5417,270.8333 C613.5417,270.8333 683.3333,270.8333 683.3333,260.4167 " fill="none" style="stroke:#D3F198;stroke-width:1.0416666666666667;"/><text fill="#EAEAEA" font-family="Verdana" font-size="12.5" lengthAdjust="spacing" textLength="108.3333" x="559.375" y="292.7755">db-subscriptions</text></g><!--entity dbs2--><g id="elem_dbs2"><path d="M359.375,260.4167 C359.375,250 433.3333,250 433.3333,250 C433.3333,250 507.2917,250 507.2917,260.4167 L507.2917,295.4 C507.2917,305.8167 433.3333,305.8167 433.3333,305.8167 C433.3333,305.8167 359.375,305.8167 359.375,295.4 L359.375,260.4167 " fill="url(#g1j5ah5hywrekw1)" style="stroke:#D3F198;stroke-width:1.0416666666666667;"/><path d="M359.375,260.4167 C359.375,270.8333 433.3333,270.8333 433.3333,270.8333 C433.3333,270.8333 507.2917,270.8333 507.2917,260.4167 " fill="none" style="stroke:#D3F198;stroke-width:1.0416666666666667;"/><text fill="#EAEAEA" font-family="Verdana" font-size="12.5" lengthAdjust="spacing" textLength="116.6667" x="375" y="292.7755">db-subscriptions2</text></g><!--entity dbu--><g id="elem_dbu"><path d="M233.3333,260.4167 C233.3333,250 278.125,250 278.125,250 C278.125,250 322.9167,250 322.9167,260.4167 L322.9167,295.4 C322.9167,305.8167 278.125,305.8167 278.125,305.8167 C278.125,305.8167 233.3333,305.8167 233.3333,295.4 L233.3333,260.4167 " fill="url(#g1j5ah5hywrekw1)" style="stroke:#D3F198;stroke-width:1.0416666666666667;"/><path d="M233.3333,260.4167 C233.3333,270.8333 278.125,270.8333 278.125,270.8333 C278.125,270.8333 322.9167,270.8333 322.9167,260.4167 " fill="none" style="stroke:#D3F198;stroke-width:1.0416666666666667;"/><text fill="#EAEAEA" font-family="Verdana" font-size="12.5" lengthAdjust="spacing" textLength="58.3333" x="248.9583" y="292.7755">db-users</text></g><!--entity dbu2--><g id="elem_dbu2"><path d="M98.9583,260.4167 C98.9583,250 147.9167,250 147.9167,250 C147.9167,250 196.875,250 196.875,260.4167 L196.875,295.4 C196.875,305.8167 147.9167,305.8167 147.9167,305.8167 C147.9167,305.8167 98.9583,305.8167 98.9583,295.4 L98.9583,260.4167 " fill="url(#g1j5ah5hywrekw1)" style="stroke:#D3F198;stroke-width:1.0416666666666667;"/><path d="M98.9583,260.4167 C98.9583,270.8333 147.9167,270.8333 147.9167,270.8333 C147.9167,270.8333 196.875,270.8333 196.875,260.4167 " fill="none" style="stroke:#D3F198;stroke-width:1.0416666666666667;"/><text fill="#EAEAEA" font-family="Verdana" font-size="12.5" lengthAdjust="spacing" textLength="66.6667" x="114.5833" y="292.7755">db-users2</text></g><!--link p1 to dbp--><g id="link_p1_dbp"><path d="M932.2813,124.1979 C924.6042,158.3542 911.6667,215.8958 904.0521,249.8021 " fill="none" id="p1-dbp" style="stroke:#B5E853;stroke-width:3.125;"/></g><!--link p2 to dbp2--><g id="link_p2_dbp2"><path d="M789.0208,124.1979 C784.4896,158.3542 776.8646,215.8958 772.3646,249.8021 " fill="none" id="p2-dbp2" style="stroke:#B5E853;stroke-width:3.125;"/></g><!--link s1 to dbs--><g id="link_s1_dbs"><path d="M619.7083,124.1979 C618.3333,158.3542 616.0104,215.8958 614.6458,249.8021 " fill="none" id="s1-dbs" style="stroke:#B5E853;stroke-width:3.125;"/></g><!--link s2 to dbs2--><g id="link_s2_dbs2"><path d="M424.5208,124.1979 C426.4896,158.3542 429.8021,215.8958 431.7604,249.8021 " fill="none" id="s2-dbs2" style="stroke:#B5E853;stroke-width:3.125;"/></g><!--link u1 to dbu--><g id="link_u1_dbu"><path d="M253.4479,124.1979 C258.9688,158.3542 268.25,215.8958 273.7188,249.8021 " fill="none" id="u1-dbu" style="stroke:#B5E853;stroke-width:3.125;"/></g><!--link u2 to dbu2--><g id="link_u2_dbu2"><path d="M107.3854,124.1979 C116.4375,158.3542 131.6979,215.8958 140.6875,249.8021 " fill="none" id="u2-dbu2" style="stroke:#B5E853;stroke-width:3.125;"/></g><!--SRC=[ZP2xRiCm34LtVeMQfPDhIAFNBXq31Fa0sH9YezO3eZW4HVwzj6K1GLgdvIJm7Xth-dNCEMBNjd7MFfERtuRWMcFZ7AxE-joOIL-ITW0lURJEYb4FdpO1-62iE1njmk3rBDw3YvHjEWYD0YSqa_W2mSEw63oR6EPFO7UKAnFbJgnAh1xZ4_Kuf2dcAJ1sAXQKVs35XZziP-INT-TY8RaJbzkaOCsJ7RBsbvbxVvHaL6AhkOpHMVSQEJPzi_nFN27JnoU8gepw7SBxFXkB_q2h5tUyj3JS67g2L0yLpmrkm1EbQ9fchHPLFIh0kaR0kkO7K5qJK5spxni0]--></g></svg>