<?xml version="1.0" encoding="us-ascii" standalone="no"?><svg xmlns="http://www.w3.org/2000/svg" xmlns:xlink="http://www.w3.org/1999/xlink" contentStyleType="text/css" height="367px" preserveAspectRatio="none" style="width:941px;height:367px;" version="1.1" viewBox="0 0 941 367" width="941px" zoomAndPan="magnify"><defs/><g><!--cluster sisdi--><g id="cluster_sisdi"><polygon fill="#EFEFFF" points="16,16,26,6,924,6,924,340,914,350,16,350,16,16" style="stroke:#454645;stroke-width:1.0;"/><line style="stroke:#454645;stroke-width:1.0;" x1="914" x2="924" y1="16" y2="6"/><line style="stroke:#454645;stroke-width:1.0;" x1="16" x2="914" y1="16" y2="16"/><line style="stroke:#454645;stroke-width:1.0;" x1="914" x2="914" y1="16" y2="350"/><text fill="#000000" font-family="sans-serif" font-size="14" font-weight="bold" lengthAdjust="spacing" textLength="135" x="398.5" y="34.1074">Personal Computer</text></g><!--cluster h2--><g id="cluster_h2"><rect fill="none" height="102" rx="3.5" ry="3.5" style="stroke:#454645;stroke-width:1.0;" width="860" x="40" y="224"/><text fill="#000000" font-family="sans-serif" font-size="14" font-weight="bold" lengthAdjust="spacing" textLength="18" x="461" y="241.1074">H2</text></g><!--entity p1--><g id="elem_p1"><rect fill="#F1F1F1" height="48.6211" rx="3.5" ry="3.5" style="stroke:#181818;stroke-width:0.5;" width="89" x="795.5" y="48"/><rect fill="#F1F1F1" height="10" style="stroke:#181818;stroke-width:0.5;" width="15" x="864.5" y="53"/><rect fill="#F1F1F1" height="2" style="stroke:#181818;stroke-width:0.5;" width="4" x="862.5" y="55"/><rect fill="#F1F1F1" height="2" style="stroke:#181818;stroke-width:0.5;" width="4" x="862.5" y="59"/><text fill="#000000" font-family="sans-serif" font-size="14" lengthAdjust="spacing" textLength="49" x="810.5" y="83.1074">P1:Plan</text></g><!--entity p2--><g id="elem_p2"><rect fill="#F1F1F1" height="48.6211" rx="3.5" ry="3.5" style="stroke:#181818;stroke-width:0.5;" width="89" x="668.5" y="48"/><rect fill="#F1F1F1" height="10" style="stroke:#181818;stroke-width:0.5;" width="15" x="737.5" y="53"/><rect fill="#F1F1F1" height="2" style="stroke:#181818;stroke-width:0.5;" width="4" x="735.5" y="55"/><rect fill="#F1F1F1" height="2" style="stroke:#181818;stroke-width:0.5;" width="4" x="735.5" y="59"/><text fill="#000000" font-family="sans-serif" font-size="14" lengthAdjust="spacing" textLength="49" x="683.5" y="83.1074">P2:Plan</text></g><!--entity s1--><g id="elem_s1"><rect fill="#F1F1F1" height="48.6211" rx="3.5" ry="3.5" style="stroke:#181818;stroke-width:0.5;" width="139" x="491.5" y="48"/><rect fill="#F1F1F1" height="10" style="stroke:#181818;stroke-width:0.5;" width="15" x="610.5" y="53"/><rect fill="#F1F1F1" height="2" style="stroke:#181818;stroke-width:0.5;" width="4" x="608.5" y="55"/><rect fill="#F1F1F1" height="2" style="stroke:#181818;stroke-width:0.5;" width="4" x="608.5" y="59"/><text fill="#000000" font-family="sans-serif" font-size="14" lengthAdjust="spacing" textLength="99" x="506.5" y="83.1074">S1:Subscription</text></g><!--entity s2--><g id="elem_s2"><rect fill="#F1F1F1" height="48.6211" rx="3.5" ry="3.5" style="stroke:#181818;stroke-width:0.5;" width="139" x="315.5" y="48"/><rect fill="#F1F1F1" height="10" style="stroke:#181818;stroke-width:0.5;" width="15" x="434.5" y="53"/><rect fill="#F1F1F1" height="2" style="stroke:#181818;stroke-width:0.5;" width="4" x="432.5" y="55"/><rect fill="#F1F1F1" height="2" style="stroke:#181818;stroke-width:0.5;" width="4" x="432.5" y="59"/><text fill="#000000" font-family="sans-serif" font-size="14" lengthAdjust="spacing" textLength="99" x="330.5" y="83.1074">S2:Subscription</text></g><!--entity u1--><g id="elem_u1"><rect fill="#F1F1F1" height="48.6211" rx="3.5" ry="3.5" style="stroke:#181818;stroke-width:0.5;" width="90" x="188" y="48"/><rect fill="#F1F1F1" height="10" style="stroke:#181818;stroke-width:0.5;" width="15" x="258" y="53"/><rect fill="#F1F1F1" height="2" style="stroke:#181818;stroke-width:0.5;" width="4" x="256" y="55"/><rect fill="#F1F1F1" height="2" style="stroke:#181818;stroke-width:0.5;" width="4" x="256" y="59"/><text fill="#000000" font-family="sans-serif" font-size="14" lengthAdjust="spacing" textLength="50" x="203" y="83.1074">U1:User</text></g><!--entity u2--><g id="elem_u2"><rect fill="#F1F1F1" height="48.6211" rx="3.5" ry="3.5" style="stroke:#181818;stroke-width:0.5;" width="90" x="60" y="48"/><rect fill="#F1F1F1" height="10" style="stroke:#181818;stroke-width:0.5;" width="15" x="130" y="53"/><rect fill="#F1F1F1" height="2" style="stroke:#181818;stroke-width:0.5;" width="4" x="128" y="55"/><rect fill="#F1F1F1" height="2" style="stroke:#181818;stroke-width:0.5;" width="4" x="128" y="59"/><text fill="#000000" font-family="sans-serif" font-size="14" lengthAdjust="spacing" textLength="50" x="75" y="83.1074">U2:User</text></g><!--entity dbp--><g id="elem_dbp"><rect fill="#F1F1F1" height="48.6211" rx="3.5" ry="3.5" style="stroke:#181818;stroke-width:0.5;" width="88" x="796" y="261"/><rect fill="#F1F1F1" height="10" style="stroke:#181818;stroke-width:0.5;" width="15" x="864" y="266"/><rect fill="#F1F1F1" height="2" style="stroke:#181818;stroke-width:0.5;" width="4" x="862" y="268"/><rect fill="#F1F1F1" height="2" style="stroke:#181818;stroke-width:0.5;" width="4" x="862" y="272"/><text fill="#000000" font-family="sans-serif" font-size="14" lengthAdjust="spacing" textLength="48" x="811" y="296.1074">db-planJPA</text></g><!--entity dbp2--><g id="elem_dbp2"><rect fill="#F1F1F1" height="48.6211" rx="3.5" ry="3.5" style="stroke:#181818;stroke-width:0.5;" width="96" x="665" y="261"/><rect fill="#F1F1F1" height="10" style="stroke:#181818;stroke-width:0.5;" width="15" x="741" y="266"/><rect fill="#F1F1F1" height="2" style="stroke:#181818;stroke-width:0.5;" width="4" x="739" y="268"/><rect fill="#F1F1F1" height="2" style="stroke:#181818;stroke-width:0.5;" width="4" x="739" y="272"/><text fill="#000000" font-family="sans-serif" font-size="14" lengthAdjust="spacing" textLength="56" x="680" y="296.1074">db-plan2</text></g><!--entity dbs--><g id="elem_dbs"><rect fill="#F1F1F1" height="48.6211" rx="3.5" ry="3.5" style="stroke:#181818;stroke-width:0.5;" width="137" x="492.5" y="261"/><rect fill="#F1F1F1" height="10" style="stroke:#181818;stroke-width:0.5;" width="15" x="609.5" y="266"/><rect fill="#F1F1F1" height="2" style="stroke:#181818;stroke-width:0.5;" width="4" x="607.5" y="268"/><rect fill="#F1F1F1" height="2" style="stroke:#181818;stroke-width:0.5;" width="4" x="607.5" y="272"/><text fill="#000000" font-family="sans-serif" font-size="14" lengthAdjust="spacing" textLength="97" x="507.5" y="296.1074">db-subscription</text></g><!--entity dbs2--><g id="elem_dbs2"><rect fill="#F1F1F1" height="48.6211" rx="3.5" ry="3.5" style="stroke:#181818;stroke-width:0.5;" width="145" x="312.5" y="261"/><rect fill="#F1F1F1" height="10" style="stroke:#181818;stroke-width:0.5;" width="15" x="437.5" y="266"/><rect fill="#F1F1F1" height="2" style="stroke:#181818;stroke-width:0.5;" width="4" x="435.5" y="268"/><rect fill="#F1F1F1" height="2" style="stroke:#181818;stroke-width:0.5;" width="4" x="435.5" y="272"/><text fill="#000000" font-family="sans-serif" font-size="14" lengthAdjust="spacing" textLength="105" x="327.5" y="296.1074">db-subscription2</text></g><!--entity dbu--><g id="elem_dbu"><rect fill="#F1F1F1" height="48.6211" rx="3.5" ry="3.5" style="stroke:#181818;stroke-width:0.5;" width="89" x="188.5" y="261"/><rect fill="#F1F1F1" height="10" style="stroke:#181818;stroke-width:0.5;" width="15" x="257.5" y="266"/><rect fill="#F1F1F1" height="2" style="stroke:#181818;stroke-width:0.5;" width="4" x="255.5" y="268"/><rect fill="#F1F1F1" height="2" style="stroke:#181818;stroke-width:0.5;" width="4" x="255.5" y="272"/><text fill="#000000" font-family="sans-serif" font-size="14" lengthAdjust="spacing" textLength="49" x="203.5" y="296.1074">db-user</text></g><!--entity dbu2--><g id="elem_dbu2"><rect fill="#F1F1F1" height="48.6211" rx="3.5" ry="3.5" style="stroke:#181818;stroke-width:0.5;" width="97" x="56.5" y="261"/><rect fill="#F1F1F1" height="10" style="stroke:#181818;stroke-width:0.5;" width="15" x="133.5" y="266"/><rect fill="#F1F1F1" height="2" style="stroke:#181818;stroke-width:0.5;" width="4" x="131.5" y="268"/><rect fill="#F1F1F1" height="2" style="stroke:#181818;stroke-width:0.5;" width="4" x="131.5" y="272"/><text fill="#000000" font-family="sans-serif" font-size="14" lengthAdjust="spacing" textLength="57" x="71.5" y="296.1074">db-user2</text></g><!--link p1 to dbp--><g id="link_p1_dbp"><path d="M840,97.29 C840,137.93 840,220.22 840,260.79 " fill="none" id="p1-dbp" style="stroke:#454645;stroke-width:1.0;"/><text fill="#000000" font-family="sans-serif" font-size="13" lengthAdjust="spacing" textLength="53" x="841" y="173.0283">database</text></g><!--link p2 to dbp2--><g id="link_p2_dbp2"><path d="M713,97.29 C713,137.93 713,220.22 713,260.79 " fill="none" id="p2-dbp2" style="stroke:#454645;stroke-width:1.0;"/><text fill="#000000" font-family="sans-serif" font-size="13" lengthAdjust="spacing" textLength="53" x="714" y="173.0283">database</text></g><!--link s1 to dbs--><g id="link_s1_dbs"><path d="M561,97.29 C561,137.93 561,220.22 561,260.79 " fill="none" id="s1-dbs" style="stroke:#454645;stroke-width:1.0;"/><text fill="#000000" font-family="sans-serif" font-size="13" lengthAdjust="spacing" textLength="53" x="562" y="173.0283">database</text></g><!--link s2 to dbs2--><g id="link_s2_dbs2"><path d="M385,97.29 C385,137.93 385,220.22 385,260.79 " fill="none" id="s2-dbs2" style="stroke:#454645;stroke-width:1.0;"/><text fill="#000000" font-family="sans-serif" font-size="13" lengthAdjust="spacing" textLength="53" x="386" y="173.0283">database</text></g><!--link u1 to dbu--><g id="link_u1_dbu"><path d="M233,97.29 C233,137.93 233,220.22 233,260.79 " fill="none" id="u1-dbu" style="stroke:#454645;stroke-width:1.0;"/><text fill="#000000" font-family="sans-serif" font-size="13" lengthAdjust="spacing" textLength="53" x="234" y="173.0283">database</text></g><!--link u2 to dbu2--><g id="link_u2_dbu2"><path d="M105,97.29 C105,137.93 105,220.22 105,260.79 " fill="none" id="u2-dbu2" style="stroke:#454645;stroke-width:1.0;"/><text fill="#000000" font-family="sans-serif" font-size="13" lengthAdjust="spacing" textLength="53" x="106" y="173.0283">database</text></g><!--SRC=[ZOynRuCm58Ht_uhNB9qemYDRcwKPqaG2kjlO0XImBJzxYAhyzpeabYneehxnxdkdkzVUEODbdfkHAUUdyQtLKowa6VLvaifbOc2TPHCXBwwNamIdpuJWQL261HauQq-TrLw9hHwrXTeoXS4Ahmcbj90V2t9_g7VVx_Nky4MkDcoEqg9MR8Ijdentqcw08U20Oe0V0k52DQDLY0vmKHv3unannSgbYKkNRbMKbUVOsi6uGTyeN6LKz0zgbTKKPOFtgdwLqT34fMIshMmTKzqO5d_IsUaft0SktWNFJ9mXk7c2qCZG1n0kfmYE_q1ZBZxAzN6UuFu94dFyBUT2BYISAI3BicjjA44mnpX3IGoDAarKZ2ocOaGnHNr4VIf6rAVeBm00]--></g></svg>
