<?xml version="1.0" encoding="us-ascii" standalone="no"?><svg xmlns="http://www.w3.org/2000/svg" xmlns:xlink="http://www.w3.org/1999/xlink" contentStyleType="text/css" height="1160.4167px" preserveAspectRatio="none" style="width:693px;height:1160px;" version="1.1" viewBox="0 0 693 1160" width="693.75px" zoomAndPan="magnify"><defs><linearGradient id="g8sgxgxwqml4d0" x1="50%" x2="50%" y1="0%" y2="100%"><stop offset="0%" stop-color="#151515"/><stop offset="100%" stop-color="#000000"/></linearGradient><linearGradient id="g8sgxgxwqml4d1" x1="50%" x2="50%" y1="0%" y2="100%"><stop offset="0%" stop-color="#D3F198"/><stop offset="100%" stop-color="#B5E853"/></linearGradient><linearGradient id="g8sgxgxwqml4d2" x1="0%" x2="100%" y1="0%" y2="100%"><stop offset="0%" stop-color="#F8DE7E"/><stop offset="100%" stop-color="#00FFFF"/></linearGradient></defs><g><rect fill="url(#g8sgxgxwqml4d0)" height="48.2361" id="_title" rx="4.1667" ry="4.1667" style="stroke:#B5E853;stroke-width:1.0416666666666667;" width="233.3333" x="220.8333" y="20.8333"/><text fill="#B5E853" font-family="Verdana" font-size="20.8333" font-weight="bold" lengthAdjust="spacing" textLength="210.4167" x="232.2917" y="53.2369">Use Case Diagram</text><!--cluster Plans--><g id="cluster_Plans"><path d="M38.5417,363.8611 L51.0417,363.8611 A31.25,31.25 0 0 1 71.875,384.6944 L79.1667,395.7194 L290.625,395.7194 A20.8333,20.8333 0 0 1 311.4583,416.5527 L311.4583,808.6528 A20.8333,20.8333 0 0 1 290.625,829.4861 L38.5417,829.4861 A20.8333,20.8333 0 0 1 17.7083,808.6528 L17.7083,384.6944 A20.8333,20.8333 0 0 1 38.5417,363.8611 " fill="#151515" style="stroke:#B5E853;stroke-width:2.0833333333333335;"/><line style="stroke:#B5E853;stroke-width:2.0833333333333335;" x1="17.7083" x2="79.1667" y1="395.7194" y2="395.7194"/><text fill="#B5E853" font-family="Verdana" font-size="12.5" font-weight="bold" lengthAdjust="spacing" textLength="37.5" x="27.0833" y="383.7199">Plans</text></g><!--cluster Subscriptions--><g id="cluster_Subscriptions"><path d="M362.5,86.7778 L430.2083,86.7778 A31.25,31.25 0 0 1 451.0417,107.6111 L458.3333,118.6361 L651.0417,118.6361 A20.8333,20.8333 0 0 1 671.875,139.4694 L671.875,465.9444 A20.8333,20.8333 0 0 1 651.0417,486.7778 L362.5,486.7778 A20.8333,20.8333 0 0 1 341.6667,465.9444 L341.6667,107.6111 A20.8333,20.8333 0 0 1 362.5,86.7778 " fill="#151515" style="stroke:#B5E853;stroke-width:2.0833333333333335;"/><line style="stroke:#B5E853;stroke-width:2.0833333333333335;" x1="341.6667" x2="458.3333" y1="118.6361" y2="118.6361"/><text fill="#B5E853" font-family="Verdana" font-size="12.5" font-weight="bold" lengthAdjust="spacing" textLength="92.7083" x="351.0417" y="106.6366">Subscriptions</text></g><!--cluster Users--><g id="cluster_Users"><path d="M37.5,854.4861 L52.0833,854.4861 A31.25,31.25 0 0 1 72.9167,875.3194 L80.2083,886.3444 L291.6667,886.3444 A20.8333,20.8333 0 0 1 312.5,907.1777 L312.5,1118.0278 A20.8333,20.8333 0 0 1 291.6667,1138.8611 L37.5,1138.8611 A20.8333,20.8333 0 0 1 16.6667,1118.0278 L16.6667,875.3194 A20.8333,20.8333 0 0 1 37.5,854.4861 " fill="#151515" style="stroke:#B5E853;stroke-width:2.0833333333333335;"/><line style="stroke:#B5E853;stroke-width:2.0833333333333335;" x1="16.6667" x2="80.2083" y1="886.3444" y2="886.3444"/><text fill="#B5E853" font-family="Verdana" font-size="12.5" font-weight="bold" lengthAdjust="spacing" textLength="39.5833" x="26.0417" y="874.3449">Users</text></g><g id="elem_UC8"><ellipse cx="164.3844" cy="521.113" fill="url(#g8sgxgxwqml4d1)" rx="120.1136" ry="26.5227" style="stroke:#D3F198;stroke-width:2.0833333333333335;"/><text fill="#151515" font-family="Verdana" font-size="12.5" lengthAdjust="spacing" textLength="172.9167" x="77.9261" y="524.001">UC9 - Change Plan Details</text></g><g id="elem_UC9"><ellipse cx="164.5082" cy="609.5752" fill="url(#g8sgxgxwqml4d1)" rx="114.5082" ry="25.4016" style="stroke:#D3F198;stroke-width:2.0833333333333335;"/><text fill="#151515" font-family="Verdana" font-size="12.5" lengthAdjust="spacing" textLength="159.375" x="84.8207" y="612.4632">UC10 - Create New Plan</text></g><g id="elem_UC10"><ellipse cx="164.771" cy="433.8986" fill="url(#g8sgxgxwqml4d1)" rx="111.1252" ry="24.725" style="stroke:#D3F198;stroke-width:2.0833333333333335;"/><text fill="#151515" font-family="Verdana" font-size="12.5" lengthAdjust="spacing" textLength="151.0417" x="89.2502" y="436.7866">UC11 - Deactivate Plan</text></g><g id="elem_UC11"><ellipse cx="164.3855" cy="695.2799" fill="url(#g8sgxgxwqml4d1)" rx="102.9272" ry="23.0854" style="stroke:#D3F198;stroke-width:2.0833333333333335;"/><text fill="#151515" font-family="Verdana" font-size="12.5" lengthAdjust="spacing" textLength="130.2083" x="99.2814" y="698.1678">UC12 - List All Plans</text></g><g id="elem_UC12"><ellipse cx="164.6839" cy="783.5687" fill="url(#g8sgxgxwqml4d1)" rx="130.3089" ry="28.5618" style="stroke:#D3F198;stroke-width:2.0833333333333335;"/><text fill="#151515" font-family="Verdana" font-size="12.5" lengthAdjust="spacing" textLength="196.875" x="66.2464" y="786.4567">UC2 - Bootstrap System Plans</text></g><g id="elem_UC4"><ellipse cx="506.9172" cy="347.3279" fill="url(#g8sgxgxwqml4d1)" rx="118.3756" ry="26.1751" style="stroke:#D3F198;stroke-width:2.0833333333333335;"/><text fill="#151515" font-family="Verdana" font-size="12.5" lengthAdjust="spacing" textLength="168.75" x="422.5422" y="350.2158">UC5 - Cancel Subscription</text></g><g id="elem_UC5"><ellipse cx="506.645" cy="439.7734" fill="url(#g8sgxgxwqml4d1)" rx="135.2908" ry="29.5582" style="stroke:#D3F198;stroke-width:2.0833333333333335;"/><text fill="#151515" font-family="Verdana" font-size="12.5" lengthAdjust="spacing" textLength="208.3333" x="402.4783" y="442.6614">UC6 - Change Subscription Plan</text></g><g id="elem_UC6"><ellipse cx="506.5544" cy="163.7136" fill="url(#g8sgxgxwqml4d1)" rx="148.2211" ry="32.1442" style="stroke:#D3F198;stroke-width:2.0833333333333335;"/><text fill="#151515" font-family="Verdana" font-size="12.5" lengthAdjust="spacing" textLength="237.5" x="387.8044" y="166.6016">UC7 - View Subscription Plan Details</text></g><g id="elem_UC7"><ellipse cx="506.8298" cy="258.8729" fill="url(#g8sgxgxwqml4d1)" rx="118.809" ry="26.2618" style="stroke:#D3F198;stroke-width:2.0833333333333335;"/><text fill="#151515" font-family="Verdana" font-size="12.5" lengthAdjust="spacing" textLength="169.7917" x="421.934" y="261.7609">UC8 - Renew Subscription</text></g><g id="elem_UC1"><ellipse cx="164.352" cy="1018.1898" fill="url(#g8sgxgxwqml4d1)" rx="110.7062" ry="24.6412" style="stroke:#D3F198;stroke-width:2.0833333333333335;"/><text fill="#151515" font-family="Verdana" font-size="12.5" lengthAdjust="spacing" textLength="150" x="89.352" y="1021.0778">UC3 - Register Account</text></g><g id="elem_UC2"><ellipse cx="164.5434" cy="928.5406" fill="url(#g8sgxgxwqml4d1)" rx="131.2101" ry="28.742" style="stroke:#D3F198;stroke-width:2.0833333333333335;"/><text fill="#151515" font-family="Verdana" font-size="12.5" lengthAdjust="spacing" textLength="198.9583" x="65.0643" y="931.4286">UC1 - Bootstrap System Users</text></g><g id="elem_UC3"><ellipse cx="164.7658" cy="1100.1981" fill="url(#g8sgxgxwqml4d1)" rx="73.0991" ry="21.2328" style="stroke:#D3F198;stroke-width:2.0833333333333335;"/><text fill="#151515" font-family="Verdana" font-size="12.5" lengthAdjust="spacing" textLength="76.0417" x="126.7449" y="1103.086">UC4 - Login</text></g><!--entity Admin--><g id="elem_Admin"><ellipse cx="506.7708" cy="802.4028" fill="url(#g8sgxgxwqml4d2)" rx="8.3333" ry="8.3333" style="stroke:#D3F198;stroke-width:1.0416666666666667;"/><path d="M506.7708,810.7361 L506.7708,838.8611 M493.2292,819.0694 L520.3125,819.0694 M506.7708,838.8611 L493.2292,854.4861 M506.7708,838.8611 L520.3125,854.4861 " fill="none" style="stroke:#D3F198;stroke-width:1.0416666666666667;"/><text fill="#000000" font-family="Verdana" font-size="12.5" lengthAdjust="spacing" textLength="39.5833" x="486.9792" y="874.3449">Admin</text></g><!--entity Director--><g id="elem_Director"><ellipse cx="506.7708" cy="566.9861" fill="url(#g8sgxgxwqml4d2)" rx="8.3333" ry="8.3333" style="stroke:#D3F198;stroke-width:1.0416666666666667;"/><path d="M506.7708,575.3194 L506.7708,603.4444 M493.2292,583.6528 L520.3125,583.6528 M506.7708,603.4444 L493.2292,619.0694 M506.7708,603.4444 L520.3125,619.0694 " fill="none" style="stroke:#D3F198;stroke-width:1.0416666666666667;"/><text fill="#000000" font-family="Verdana" font-size="12.5" lengthAdjust="spacing" textLength="119.7917" x="446.875" y="638.9282">Marketing Director</text></g><!--entity User--><g id="elem_User"><ellipse cx="506.7708" cy="982.6111" fill="url(#g8sgxgxwqml4d2)" rx="8.3333" ry="8.3333" style="stroke:#D3F198;stroke-width:1.0416666666666667;"/><path d="M506.7708,990.9444 L506.7708,1019.0694 M493.2292,999.2778 L520.3125,999.2778 M506.7708,1019.0694 L493.2292,1034.6944 M506.7708,1019.0694 L520.3125,1034.6944 " fill="none" style="stroke:#D3F198;stroke-width:1.0416666666666667;"/><text fill="#000000" font-family="Verdana" font-size="12.5" lengthAdjust="spacing" textLength="30.2083" x="491.6667" y="1054.5532">User</text></g><!--entity Subscriber--><g id="elem_Subscriber"><ellipse cx="164.5833" cy="266.9861" fill="url(#g8sgxgxwqml4d2)" rx="8.3333" ry="8.3333" style="stroke:#D3F198;stroke-width:1.0416666666666667;"/><path d="M164.5833,275.3194 L164.5833,303.4444 M151.0417,283.6528 L178.125,283.6528 M164.5833,303.4444 L151.0417,319.0694 M164.5833,303.4444 L178.125,319.0694 " fill="none" style="stroke:#D3F198;stroke-width:1.0416666666666667;"/><text fill="#000000" font-family="Verdana" font-size="12.5" lengthAdjust="spacing" textLength="68.75" x="130.2083" y="338.9282">Subscriber</text></g><!--link UC2 to Admin--><g id="link_UC2_Admin"><path d="M248.3854,906.3923 C324.875,886.0069 427.6484,858.6273 475.513,845.8669 " fill="none" id="UC2-to-Admin" style="stroke:#B5E853;stroke-width:3.125;"/><polygon fill="#B5E853" points="481.5521,844.2569,471.4201,842.6458,476.5195,845.5986,473.5668,850.6979,481.5521,844.2569" style="stroke:#B5E853;stroke-width:3.125;"/></g><!--link UC12 to Admin--><g id="link_UC12_Admin"><path d="M270.4375,800.3507 C344.6146,812.1632 432.1194,826.0971 475.4944,833.0033 " fill="none" id="UC12-to-Admin" style="stroke:#B5E853;stroke-width:3.125;"/><polygon fill="#B5E853" points="481.6667,833.9861,473.0635,828.3971,476.5231,833.1671,471.7531,836.6268,481.6667,833.9861" style="stroke:#B5E853;stroke-width:3.125;"/></g><!--reverse link UC8 to Director--><g id="link_UC8_Director"><path d="M253.1623,542.0634 C312.8081,556.3134 386.5417,573.934 441.6563,587.1007 " fill="none" id="UC8-backto-Director" style="stroke:#B5E853;stroke-width:3.125;"/><polygon fill="#B5E853" points="247.0833,540.6111,255.2335,546.8422,252.1491,541.8213,257.1699,538.7369,247.0833,540.6111" style="stroke:#B5E853;stroke-width:3.125;"/></g><!--reverse link UC9 to Director--><g id="link_UC9_Director"><path d="M285.1236,607.1338 C339.2277,605.9775 395.75,604.7569 441.5313,603.7778 " fill="none" id="UC9-backto-Director" style="stroke:#B5E853;stroke-width:3.125;"/><polygon fill="#B5E853" points="278.875,607.2673,288.3369,611.2327,284.0821,607.1561,288.1588,602.9013,278.875,607.2673" style="stroke:#B5E853;stroke-width:3.125;"/></g><!--reverse link UC10 to Director--><g id="link_UC10_Director"><path d="M255.089,451.2604 C279.0682,457.6875 298.6667,464.7778 320.8333,476.3611 C327.2396,479.7153 327.5417,482.4444 333.3333,486.7778 C368.2396,512.9132 408.6563,540.1736 441.5833,561.6632 " fill="none" id="UC10-backto-Director" style="stroke:#B5E853;stroke-width:3.125;"/><polygon fill="#B5E853" points="249.0521,449.6423,257.0288,456.094,254.0828,450.9907,259.1862,448.0448,249.0521,449.6423" style="stroke:#B5E853;stroke-width:3.125;"/></g><!--reverse link UC11 to Director--><g id="link_UC11_Director"><path d="M237.3913,675.9625 C265.0371,668.5563 291.4896,661.434 320.8333,653.4444 C361,642.5069 406.0208,630.0798 441.5833,620.2257 " fill="none" id="UC11-backto-Director" style="stroke:#B5E853;stroke-width:3.125;"/><polygon fill="#B5E853" points="231.3542,677.5798,241.4881,679.1786,236.3851,676.2321,239.3316,671.1291,231.3542,677.5798" style="stroke:#B5E853;stroke-width:3.125;"/></g><!--reverse link UC1 to User--><g id="link_UC1_User"><path d="M281.8229,1018.0278 C357.9063,1018.0278 446.1458,1018.0278 486.2604,1018.0278 " fill="none" id="UC1-backto-User" style="stroke:#B5E853;stroke-width:3.125;"/><polygon fill="#B5E853" points="275.5729,1018.0278,284.9479,1022.1944,280.7813,1018.0278,284.9479,1013.8611,275.5729,1018.0278" style="stroke:#B5E853;stroke-width:3.125;"/></g><!--reverse link UC3 to User--><g id="link_UC3_User"><path d="M227.4811,1085.35 C305.1269,1066.5688 435.8438,1034.934 486.3125,1022.7257 " fill="none" id="UC3-backto-User" style="stroke:#B5E853;stroke-width:3.125;"/><polygon fill="#B5E853" points="221.4063,1086.8194,231.4981,1088.6652,226.4686,1085.5949,229.5389,1080.5654,221.4063,1086.8194" style="stroke:#B5E853;stroke-width:3.125;"/></g><!--reverse link UC11 to User--><g id="link_UC11_User"><path d="M269.0417,703.9914 C291.073,710.2726 306.2292,719.1632 320.8333,736.7778 C344.2396,765.0173 314.9271,869.6319 333.3333,901.3611 C368.4375,961.8403 448.9688,997.5486 486.1979,1011.3715 " fill="none" id="UC11-backto-User" style="stroke:#B5E853;stroke-width:3.125;"/><polygon fill="#B5E853" points="263.0313,702.2778,270.9046,708.8552,268.04,703.7058,273.1894,700.8412,263.0313,702.2778" style="stroke:#B5E853;stroke-width:3.125;"/></g><!--link Subscriber to UC4--><g id="link_Subscriber_UC4"><path d="M204.3125,307.4965 C252.7083,313.8715 331.2202,324.2117 398.5327,333.0763 " fill="none" id="Subscriber-to-UC4" style="stroke:#B5E853;stroke-width:3.125;"/><polygon fill="#B5E853" points="404.7292,333.8923,395.9784,328.5373,399.5654,333.2123,394.8904,336.7993,404.7292,333.8923" style="stroke:#B5E853;stroke-width:3.125;"/></g><!--link Subscriber to UC5--><g id="link_Subscriber_UC5"><path d="M204.5,325.9236 C237.7917,345.3298 287.4896,372.5694 333.3333,390.9444 C359.3229,401.3611 382.3251,408.8222 409.0439,416.3013 " fill="none" id="Subscriber-to-UC5" style="stroke:#B5E853;stroke-width:3.125;"/><polygon fill="#B5E853" points="415.0625,417.9861,407.1577,411.4465,410.047,416.5821,404.9114,419.4714,415.0625,417.9861" style="stroke:#B5E853;stroke-width:3.125;"/></g><!--link Subscriber to UC6--><g id="link_Subscriber_UC6"><path d="M204.1875,279.1423 C237.5,259.7673 287.3958,232.4236 333.3333,213.8611 C357.3125,204.1736 377.8651,197.2586 402.8026,189.9774 " fill="none" id="Subscriber-to-UC6" style="stroke:#B5E853;stroke-width:3.125;"/><polygon fill="#B5E853" points="408.8021,188.2257,398.635,186.8536,403.8025,189.6854,400.9707,194.8529,408.8021,188.2257" style="stroke:#B5E853;stroke-width:3.125;"/></g><!--link Subscriber to UC7--><g id="link_Subscriber_UC7"><path d="M204.3125,297.4236 C252.5313,291.2257 330.6032,281.1795 397.8011,272.5336 " fill="none" id="Subscriber-to-UC7" style="stroke:#B5E853;stroke-width:3.125;"/><polygon fill="#B5E853" points="404,271.7361,394.1699,268.7998,398.8342,272.4007,395.2334,277.065,404,271.7361" style="stroke:#B5E853;stroke-width:3.125;"/></g><!--SRC=[RPDDRzim38Rl-XLSTjZ9Ivms7ms60QdTdBQXMD7TLOUpXSYI8J4RXc7_VPHYD_we3eP4FIz1lfG_L4IDtytdZPQ6phN-MDXwVlQO598_HoLB9slnZYgi4IfPdD09KgGHdZr2nX3aBUHFoZIITo0BikvW3MLMMmVtcdL2uqy2ik1KMH4SbSE2b3L2xFR7MfaTI0-pk9t1-yCsVzWyp1UB0o-nooDjtGNwAjq9IPaIklXKmTMrTDXDxv_EBxvmwgMZhkS9AnekNvO8Z-oHXxy2s9zW3-VExY21h9AclOOSIIhjPo7fSxOTiEaYm0ub8Np3tr7GWdT3C6KmHxPH_Gfm3qmNGtB9v1Vb2VPQNmhim7G01kxUMlBaP0DFVpnXFUINuj-rrTQE9amejiohbsqL6f6cG3qWsrItOtnzDQcFz_jQZJKRrlnGxD94CV9uFLPkMVaTpKZQqfj-b-5flD7TJKnGigleO5yKzcoeSsdCfc_v6lEsYkLOSHicPalLLNGJAX9nGibdY3-0k0pszIX2Kv-IvFMzY_3mHW5-NUD8Eeo4K8o4-aJeitT8UrVY-ZV4Ai989w7LDBIUXZR_0G00]--></g></svg>