<?xml version="1.0" encoding="us-ascii" standalone="no"?><svg xmlns="http://www.w3.org/2000/svg" xmlns:xlink="http://www.w3.org/1999/xlink" contentStyleType="text/css" height="955px" preserveAspectRatio="none" style="width:599px;height:955px;" version="1.1" viewBox="0 0 599 955" width="599px" zoomAndPan="magnify"><defs><linearGradient id="g1r3c4rnsbjycz0" x1="0%" x2="100%" y1="0%" y2="100%"><stop offset="0%" stop-color="#F8DE7E"/><stop offset="100%" stop-color="#00FFFF"/></linearGradient></defs><g><!--cluster Plans--><g id="cluster_Plans"><path d="M10,255.0137 L47,255.0137 A5.25,5.25 0 0 1 50.5,258.5137 L57.5,279.6348 L263,279.6348 A3.5,3.5 0 0 1 266.5,283.1348 L266.5,669.5137 A3.5,3.5 0 0 1 263,673.0137 L10,673.0137 A3.5,3.5 0 0 1 6.5,669.5137 L6.5,258.5137 A3.5,3.5 0 0 1 10,255.0137 " fill="none" style="stroke:#454645;stroke-width:1.0;"/><line style="stroke:#454645;stroke-width:1.0;" x1="6.5" x2="57.5" y1="279.6348" y2="279.6348"/><text fill="#000000" font-family="sans-serif" font-size="14" font-weight="bold" lengthAdjust="spacing" textLength="38" x="10.5" y="272.1211">Plans</text></g><!--cluster Subscriptions--><g id="cluster_Subscriptions"><path d="M298.5,6.0137 L394.5,6.0137 A5.25,5.25 0 0 1 398,9.5137 L405,30.6348 L588.5,30.6348 A3.5,3.5 0 0 1 592,34.1348 L592,364.5137 A3.5,3.5 0 0 1 588.5,368.0137 L298.5,368.0137 A3.5,3.5 0 0 1 295,364.5137 L295,9.5137 A3.5,3.5 0 0 1 298.5,6.0137 " fill="none" style="stroke:#454645;stroke-width:1.0;"/><line style="stroke:#454645;stroke-width:1.0;" x1="295" x2="405" y1="30.6348" y2="30.6348"/><text fill="#000000" font-family="sans-serif" font-size="14" font-weight="bold" lengthAdjust="spacing" textLength="97" x="299" y="23.1211">Subscriptions</text></g><!--cluster Users--><g id="cluster_Users"><path d="M9.5,697.0137 L49.5,697.0137 A5.25,5.25 0 0 1 53,700.5137 L60,721.6348 L263.5,721.6348 A3.5,3.5 0 0 1 267,725.1348 L267,944.5137 A3.5,3.5 0 0 1 263.5,948.0137 L9.5,948.0137 A3.5,3.5 0 0 1 6,944.5137 L6,700.5137 A3.5,3.5 0 0 1 9.5,697.0137 " fill="none" style="stroke:#454645;stroke-width:1.0;"/><line style="stroke:#454645;stroke-width:1.0;" x1="6" x2="60" y1="721.6348" y2="721.6348"/><text fill="#000000" font-family="sans-serif" font-size="14" font-weight="bold" lengthAdjust="spacing" textLength="41" x="10" y="714.1211">Users</text></g><g id="elem_UC8"><ellipse cx="136.2713" cy="393.8679" fill="#F1F1F1" rx="104.7713" ry="23.3543" style="stroke:#181818;stroke-width:0.5;"/><text fill="#000000" font-family="sans-serif" font-size="14" lengthAdjust="spacing" textLength="169" x="51.7713" y="397.6648">UC9 - Change Plan Details</text></g><g id="elem_UC9"><ellipse cx="136.2971" cy="474.9731" fill="#F1F1F1" rx="97.7971" ry="21.9594" style="stroke:#181818;stroke-width:0.5;"/><text fill="#000000" font-family="sans-serif" font-size="14" lengthAdjust="spacing" textLength="153" x="58.019" y="479.4002">UC10 - Create New Plan</text></g><g id="elem_UC10"><ellipse cx="136.2711" cy="313.9679" fill="#F1F1F1" rx="95.2711" ry="21.4542" style="stroke:#181818;stroke-width:0.5;"/><text fill="#000000" font-family="sans-serif" font-size="14" lengthAdjust="spacing" textLength="147" x="60.1672" y="318.6541">UC11 - Deactivate Plan</text></g><g id="elem_UC11"><ellipse cx="136.5589" cy="551.9255" fill="#F1F1F1" rx="87.5589" ry="19.9118" style="stroke:#181818;stroke-width:0.5;"/><text fill="#000000" font-family="sans-serif" font-size="14" lengthAdjust="spacing" textLength="128" x="69.5589" y="556.7292">UC12 - List All Plans</text></g><g id="elem_UC12"><ellipse cx="136.7122" cy="632.2561" fill="#F1F1F1" rx="114.2122" ry="25.2424" style="stroke:#181818;stroke-width:0.5;"/><text fill="#000000" font-family="sans-serif" font-size="14" lengthAdjust="spacing" textLength="190" x="41.7122" y="636.053">UC2 - Bootstrap System Plans</text></g><g id="elem_UC4"><ellipse cx="443.4402" cy="240.1017" fill="#F1F1F1" rx="103.4402" ry="23.088" style="stroke:#181818;stroke-width:0.5;"/><text fill="#000000" font-family="sans-serif" font-size="14" lengthAdjust="spacing" textLength="166" x="360.3058" y="243.95">UC5 - Cancel Subscription</text></g><g id="elem_UC5"><ellipse cx="443.6059" cy="325.0349" fill="#F1F1F1" rx="120.6059" ry="26.5212" style="stroke:#181818;stroke-width:0.5;"/><text fill="#000000" font-family="sans-serif" font-size="14" lengthAdjust="spacing" textLength="204" x="341.6059" y="328.8317">UC6 - Change Subscription Plan</text></g><g id="elem_UC6"><ellipse cx="443.6463" cy="71.9429" fill="#F1F1F1" rx="132.6463" ry="28.9293" style="stroke:#181818;stroke-width:0.5;"/><text fill="#000000" font-family="sans-serif" font-size="14" lengthAdjust="spacing" textLength="230" x="328.6463" y="75.7398">UC7 - View Subscription Plan Details</text></g><g id="elem_UC7"><ellipse cx="443.4985" cy="159.0134" fill="#F1F1F1" rx="102.9985" ry="22.9997" style="stroke:#181818;stroke-width:0.5;"/><text fill="#000000" font-family="sans-serif" font-size="14" lengthAdjust="spacing" textLength="165" x="360.7441" y="162.907">UC8 - Renew Subscription</text></g><g id="elem_UC1"><ellipse cx="136.6884" cy="842.0514" fill="#F1F1F1" rx="95.6884" ry="21.5377" style="stroke:#181818;stroke-width:0.5;"/><text fill="#000000" font-family="sans-serif" font-size="14" lengthAdjust="spacing" textLength="148" x="60.2253" y="846.6948">UC3 - Register Account</text></g><g id="elem_UC2"><ellipse cx="136.6665" cy="759.847" fill="#F1F1F1" rx="114.6665" ry="25.3333" style="stroke:#181818;stroke-width:0.5;"/><text fill="#000000" font-family="sans-serif" font-size="14" lengthAdjust="spacing" textLength="191" x="41.1665" y="763.6438">UC1 - Bootstrap System Users</text></g><g id="elem_UC3"><ellipse cx="136.4594" cy="914.9892" fill="#F1F1F1" rx="65.9594" ry="16.4755" style="stroke:#181818;stroke-width:0.5;"/><text fill="#000000" font-family="sans-serif" font-size="14" lengthAdjust="spacing" textLength="75" x="95.9594" y="919.7929">UC4 - Login</text></g><!--entity Admin--><g id="elem_Admin"><ellipse cx="443.5" cy="649.0137" fill="url(#g1r3c4rnsbjycz0)" rx="8" ry="8" style="stroke:#454645;stroke-width:0.5;"/><path d="M443.5,657.0137 L443.5,684.0137 M430.5,665.0137 L456.5,665.0137 M443.5,684.0137 L430.5,699.0137 M443.5,684.0137 L456.5,699.0137 " fill="none" style="stroke:#454645;stroke-width:0.5;"/><text fill="#454645" font-family="sans-serif" font-size="14" lengthAdjust="spacing" textLength="39" x="424" y="715.6211">Admin</text></g><!--entity Director--><g id="elem_Director"><ellipse cx="443.5" cy="440.0137" fill="url(#g1r3c4rnsbjycz0)" rx="8" ry="8" style="stroke:#454645;stroke-width:0.5;"/><path d="M443.5,448.0137 L443.5,475.0137 M430.5,456.0137 L456.5,456.0137 M443.5,475.0137 L430.5,490.0137 M443.5,475.0137 L456.5,490.0137 " fill="none" style="stroke:#454645;stroke-width:0.5;"/><text fill="#454645" font-family="sans-serif" font-size="14" lengthAdjust="spacing" textLength="116" x="385.5" y="506.6211">Marketing Director</text></g><!--entity User--><g id="elem_User"><ellipse cx="443.5" cy="811.0137" fill="url(#g1r3c4rnsbjycz0)" rx="8" ry="8" style="stroke:#454645;stroke-width:0.5;"/><path d="M443.5,819.0137 L443.5,846.0137 M430.5,827.0137 L456.5,827.0137 M443.5,846.0137 L430.5,861.0137 M443.5,846.0137 L456.5,861.0137 " fill="none" style="stroke:#454645;stroke-width:0.5;"/><text fill="#454645" font-family="sans-serif" font-size="14" lengthAdjust="spacing" textLength="29" x="429" y="877.6211">User</text></g><!--entity Subscriber--><g id="elem_Subscriber"><ellipse cx="136.5" cy="168.0137" fill="url(#g1r3c4rnsbjycz0)" rx="8" ry="8" style="stroke:#454645;stroke-width:0.5;"/><path d="M136.5,176.0137 L136.5,203.0137 M123.5,184.0137 L149.5,184.0137 M136.5,203.0137 L123.5,218.0137 M136.5,203.0137 L149.5,218.0137 " fill="none" style="stroke:#454645;stroke-width:0.5;"/><text fill="#454645" font-family="sans-serif" font-size="14" lengthAdjust="spacing" textLength="68" x="102.5" y="234.6211">Subscriber</text></g><!--reverse link UC2 to Admin--><g id="link_UC2_Admin"><path d="M217.1337,739.1216 C287.4837,720.6716 382.77,695.6837 423.97,684.8737 " fill="none" id="UC2-backto-Admin" style="stroke:#454645;stroke-width:1.0;"/><polygon fill="#454645" points="211.33,740.6437,221.0503,742.2297,216.1664,739.3753,219.0209,734.4914,211.33,740.6437" style="stroke:#454645;stroke-width:1.0;"/></g><!--reverse link UC12 to Admin--><g id="link_UC12_Admin"><path d="M235.767,647.4766 C304.317,658.2666 386.26,671.1637 423.97,677.0937 " fill="none" id="UC12-backto-Admin" style="stroke:#454645;stroke-width:1.0;"/><polygon fill="#454645" points="229.84,646.5437,238.1086,651.8944,234.7792,647.3211,239.3525,643.9917,229.84,646.5437" style="stroke:#454645;stroke-width:1.0;"/></g><!--reverse link UC8 to Director--><g id="link_UC8_Director"><path d="M212.9074,413.0526 C266.8874,426.6826 334.95,443.8637 385.46,456.6137 " fill="none" id="UC8-backto-Director" style="stroke:#454645;stroke-width:1.0;"/><polygon fill="#454645" points="207.09,411.5837,214.8369,417.6653,211.9378,412.8078,216.7954,409.9087,207.09,411.5837" style="stroke:#454645;stroke-width:1.0;"/></g><!--reverse link UC9 to Director--><g id="link_UC9_Director"><path d="M240.4195,473.6652 C290.1395,473.0152 342.98,472.3237 385.38,471.7637 " fill="none" id="UC9-backto-Director" style="stroke:#454645;stroke-width:1.0;"/><polygon fill="#454645" points="234.42,473.7437,243.4715,477.6257,239.4196,473.6783,243.3669,469.6264,234.42,473.7437" style="stroke:#454645;stroke-width:1.0;"/></g><!--reverse link UC10 to Director--><g id="link_UC10_Director"><path d="M219.7125,328.3546 C240.6625,334.1546 256.81,340.9337 275,353.0137 C282.11,357.7337 280.7,362.2537 287,368.0137 C316.88,395.3237 354.65,420.5237 385.49,439.1537 " fill="none" id="UC10-backto-Director" style="stroke:#454645;stroke-width:1.0;"/><polygon fill="#454645" points="213.93,326.7537,221.5365,333.01,218.7487,328.0877,223.671,325.3,213.93,326.7537" style="stroke:#454645;stroke-width:1.0;"/></g><!--reverse link UC11 to Director--><g id="link_UC11_Director"><path d="M199.949,535.4238 C254.479,520.9438 330.69,500.7037 385.37,486.1837 " fill="none" id="UC11-backto-Director" style="stroke:#454645;stroke-width:1.0;"/><polygon fill="#454645" points="194.15,536.9637,203.8751,538.5199,198.9825,535.6804,201.822,530.7878,194.15,536.9637" style="stroke:#454645;stroke-width:1.0;"/></g><!--reverse link UC1 to User--><g id="link_UC1_User"><path d="M238.33,842.0137 C309.68,842.0137 394.78,842.0137 428.84,842.0137 " fill="none" id="UC1-backto-User" style="stroke:#454645;stroke-width:1.0;"/><polygon fill="#454645" points="232.33,842.0137,241.33,846.0137,237.33,842.0137,241.33,838.0137,232.33,842.0137" style="stroke:#454645;stroke-width:1.0;"/></g><!--reverse link UC3 to User--><g id="link_UC3_User"><path d="M190.6552,902.287 C261.7652,885.267 386.54,855.4037 428.87,845.2737 " fill="none" id="UC3-backto-User" style="stroke:#454645;stroke-width:1.0;"/><polygon fill="#454645" points="184.82,903.6837,194.5039,905.4788,189.6827,902.5198,192.6417,897.6986,184.82,903.6837" style="stroke:#454645;stroke-width:1.0;"/></g><!--reverse link UC11 to User--><g id="link_UC11_User"><path d="M226.6686,559.2251 C247.2086,564.6851 261.4,572.6737 275,589.0137 C296.12,614.3737 270.35,708.5237 287,737.0137 C320.04,793.5437 397.06,826.0337 428.63,837.3837 " fill="none" id="UC11-backto-User" style="stroke:#454645;stroke-width:1.0;"/><polygon fill="#454645" points="220.87,557.6837,228.5403,563.8615,225.7022,558.9682,230.5955,556.13,220.87,557.6837" style="stroke:#454645;stroke-width:1.0;"/></g><!--link Subscriber to UC4--><g id="link_Subscriber_UC4"><path d="M170.72,203.4837 C214.49,209.3637 287.1735,219.1345 348.6335,227.3945 " fill="none" id="Subscriber-to-UC4" style="stroke:#454645;stroke-width:1.0;"/><polygon fill="#454645" points="354.58,228.1937,346.193,223.0305,349.6246,227.5277,345.1274,230.9592,354.58,228.1937" style="stroke:#454645;stroke-width:1.0;"/></g><!--link Subscriber to UC5--><g id="link_Subscriber_UC5"><path d="M170.63,219.6537 C200.27,237.4637 245.35,262.9337 287,280.0137 C310.92,289.8237 331.9571,296.7587 356.4971,303.7087 " fill="none" id="Subscriber-to-UC5" style="stroke:#454645;stroke-width:1.0;"/><polygon fill="#454645" points="362.27,305.3437,354.7006,299.0426,357.4592,303.9812,352.5206,306.7399,362.27,305.3437" style="stroke:#454645;stroke-width:1.0;"/></g><!--link Subscriber to UC6--><g id="link_Subscriber_UC6"><path d="M170.65,178.4337 C200.31,160.6637 245.4,135.2137 287,118.0137 C309.11,108.8737 327.937,102.4275 350.897,95.6275 " fill="none" id="Subscriber-to-UC6" style="stroke:#454645;stroke-width:1.0;"/><polygon fill="#454645" points="356.65,93.9237,346.8846,92.6441,351.8558,95.3435,349.1564,100.3148,356.65,93.9237" style="stroke:#454645;stroke-width:1.0;"/></g><!--link Subscriber to UC7--><g id="link_Subscriber_UC7"><path d="M170.72,194.6537 C214.41,188.9237 286.891,179.4245 348.301,171.3645 " fill="none" id="Subscriber-to-UC7" style="stroke:#454645;stroke-width:1.0;"/><polygon fill="#454645" points="354.25,170.5837,344.806,167.7889,349.2925,171.2343,345.8471,175.7209,354.25,170.5837" style="stroke:#454645;stroke-width:1.0;"/></g><!--SRC=[RPDDJ-Cm48Rl_XMpvS0fj2dqWsgrKcdX1AlL0djtqzdKQc97jWj2YF_EZ4cKnC67o1u_xsZc7UVyu7tbLkDnLKZjJsLnaPboV7AOP98-UoLpAqlnmn-mHF3cJOW2_tlQWLNvmSDUMSoyCbe8TrIwaeJ3JcR7t9gJtczCOImyMQaTNQ7sGgpM-rBf5KW7ex0TmTdTSdkxk1rF9dUqn6eRaXhx1Jr8UqIlT0vDVAXuTbZJl1lUFvvsBhDgrr3jUS2AYggNES8ViiJ1km2oWzsWt9jhI61paBg-XYrwgGetugJFcsMFJISCMvGUuJU-1a4DNlV1bC0jIlBnXU4Ec4xwv9J8U-Kyh8lYgy06J7iWSpV6UEUjhE3npNai-_nKVBIjrdPKFCZGCgrEjXat8dM6HO-iKrt5-BmrgOjt-vh5cWLf_YboQQ28F9x7oYKf_wAEf3Mzw7R9J-ERxYv3WfnSHGlhBADtwnkNOZRzpjUGjrPCOyKLJypaggdeaYiIFA6VIGBX1n1XiErHS5DyRDwxu8SN1UXrnP6q7-5GY71zWlli7DBEbMZ_1aYINs6aWz1i69eFGujF]--></g></svg>