<?xml version="1.0" encoding="us-ascii" standalone="no"?><svg xmlns="http://www.w3.org/2000/svg" xmlns:xlink="http://www.w3.org/1999/xlink" contentStyleType="text/css" height="449px" preserveAspectRatio="none" style="width:327px;height:449px;background:#DDDDDD;" version="1.1" viewBox="0 0 327 449" width="327px" zoomAndPan="magnify"><defs/><g><rect fill="#DDDDDD" height="449" style="stroke:none;stroke-width:1.0;" width="327" x="0" y="0"/><rect fill="#DDDDDD" height="437.1523" rx="3.5" ry="3.5" style="stroke:#181818;stroke-width:0.5;" width="203" x="112" y="6"/><rect fill="#FFFFFF" height="320.6191" style="stroke:#454645;stroke-width:1.0;" width="10" x="135.5" y="76.9121"/><rect fill="#FFFFFF" height="265.3281" style="stroke:#454645;stroke-width:1.0;" width="10" x="140.5" y="116.2031"/><rect fill="#FFFFFF" height="36.291" style="stroke:#454645;stroke-width:1.0;" width="10" x="145.5" y="249.3672"/><rect fill="#FFFFFF" height="57.582" style="stroke:#454645;stroke-width:1.0;" width="10" x="277.5" y="152.4941"/><rect fill="none" height="126.1641" rx="3.5" ry="3.5" style="stroke:#454645;stroke-width:1.0;" width="311" x="10" y="167.4941"/><rect fill="none" height="81.873" rx="3.5" ry="3.5" style="stroke:#454645;stroke-width:1.0;" width="311" x="10" y="307.6582"/><line style="stroke:#454645;stroke-width:0.5;stroke-dasharray:5.0,5.0;" x1="63" x2="63" y1="43.6211" y2="406.5313"/><line style="stroke:#454645;stroke-width:0.5;stroke-dasharray:5.0,5.0;" x1="140" x2="140" y1="43.6211" y2="406.5313"/><line style="stroke:#454645;stroke-width:0.5;stroke-dasharray:5.0,5.0;" x1="282" x2="282" y1="43.6211" y2="406.5313"/><rect fill="#FF6F61" height="32.6211" rx="3.5" ry="3.5" style="stroke:#454645;stroke-width:1.5;" width="86" x="20" y="10"/><text fill="#FFFFFF" font-family="sans-serif" font-size="14" lengthAdjust="spacing" textLength="72" x="27" y="32.1074">ClientHTTP</text><rect fill="#FF6F61" height="32.6211" rx="3.5" ry="3.5" style="stroke:#454645;stroke-width:1.5;" width="86" x="20" y="405.5313"/><text fill="#FFFFFF" font-family="sans-serif" font-size="14" lengthAdjust="spacing" textLength="72" x="27" y="427.6387">ClientHTTP</text><rect fill="#FF6F61" height="32.6211" rx="3.5" ry="3.5" style="stroke:#454645;stroke-width:1.5;" width="49" x="116" y="10"/><text fill="#FFFFFF" font-family="sans-serif" font-size="14" lengthAdjust="spacing" textLength="35" x="123" y="32.1074">Plans</text><rect fill="#FF6F61" height="32.6211" rx="3.5" ry="3.5" style="stroke:#454645;stroke-width:1.5;" width="49" x="116" y="405.5313"/><text fill="#FFFFFF" font-family="sans-serif" font-size="14" lengthAdjust="spacing" textLength="35" x="123" y="427.6387">Plans</text><rect fill="#FF6F61" height="32.6211" rx="3.5" ry="3.5" style="stroke:#454645;stroke-width:1.5;" width="57" x="254" y="10"/><text fill="#FFFFFF" font-family="sans-serif" font-size="14" lengthAdjust="spacing" textLength="43" x="261" y="32.1074">Plans2</text><rect fill="#FF6F61" height="32.6211" rx="3.5" ry="3.5" style="stroke:#454645;stroke-width:1.5;" width="57" x="254" y="405.5313"/><text fill="#FFFFFF" font-family="sans-serif" font-size="14" lengthAdjust="spacing" textLength="43" x="261" y="427.6387">Plans2</text><rect fill="#FFFFFF" height="320.6191" style="stroke:#454645;stroke-width:1.0;" width="10" x="135.5" y="76.9121"/><rect fill="#FFFFFF" height="265.3281" style="stroke:#454645;stroke-width:1.0;" width="10" x="140.5" y="116.2031"/><rect fill="#FFFFFF" height="36.291" style="stroke:#454645;stroke-width:1.0;" width="10" x="145.5" y="249.3672"/><rect fill="#FFFFFF" height="57.582" style="stroke:#454645;stroke-width:1.0;" width="10" x="277.5" y="152.4941"/><polygon fill="#454645" points="123.5,72.9121,133.5,76.9121,123.5,80.9121,127.5,76.9121" style="stroke:#454645;stroke-width:1.0;"/><line style="stroke:#454645;stroke-width:1.0;" x1="63" x2="129.5" y1="76.9121" y2="76.9121"/><text fill="#000000" font-family="sans-serif" font-size="13" font-weight="bold" lengthAdjust="spacing" textLength="7" x="70" y="71.6494">1</text><text fill="#000000" font-family="sans-serif" font-size="13" lengthAdjust="spacing" textLength="38" x="81" y="71.6494">Get/all</text><line style="stroke:#454645;stroke-width:1.0;" x1="145.5" x2="192.5" y1="103.2031" y2="103.2031"/><line style="stroke:#454645;stroke-width:1.0;" x1="192.5" x2="192.5" y1="103.2031" y2="116.2031"/><line style="stroke:#454645;stroke-width:1.0;" x1="151.5" x2="192.5" y1="116.2031" y2="116.2031"/><polygon fill="#454645" points="161.5,112.2031,151.5,116.2031,161.5,120.2031,157.5,116.2031" style="stroke:#454645;stroke-width:1.0;"/><text fill="#000000" font-family="sans-serif" font-size="13" font-weight="bold" lengthAdjust="spacing" textLength="7" x="157.5" y="97.9404">2</text><text fill="#000000" font-family="sans-serif" font-size="13" lengthAdjust="spacing" textLength="107" x="168.5" y="97.9404">checkLocalRules()</text><polygon fill="#454645" points="265.5,148.4941,275.5,152.4941,265.5,156.4941,269.5,152.4941" style="stroke:#454645;stroke-width:1.0;"/><line style="stroke:#454645;stroke-width:1.0;" x1="150.5" x2="271.5" y1="152.4941" y2="152.4941"/><text fill="#000000" font-family="sans-serif" font-size="13" font-weight="bold" lengthAdjust="spacing" textLength="7" x="157.5" y="147.2314">3</text><text fill="#000000" font-family="sans-serif" font-size="13" lengthAdjust="spacing" textLength="81" x="168.5" y="147.2314">Get plans/{all}</text><path d="M13.5,167.4941 L71,167.4941 L71,176.7852 L61,186.7852 L10,186.7852 L10,170.9941 A3.5,3.5 0 0 1 13.5,167.4941 " fill="#EEEEEE" style="stroke:#454645;stroke-width:1.5;"/><rect fill="none" height="126.1641" rx="3.5" ry="3.5" style="stroke:#454645;stroke-width:1.0;" width="311" x="10" y="167.4941"/><text fill="#454645" font-family="sans-serif" font-size="13" font-weight="bold" lengthAdjust="spacing" textLength="16" x="25" y="182.5225">alt</text><polygon fill="#454645" points="161.5,206.0762,151.5,210.0762,161.5,214.0762,157.5,210.0762" style="stroke:#454645;stroke-width:1.0;"/><line style="stroke:#454645;stroke-width:1.0;stroke-dasharray:2.0,2.0;" x1="155.5" x2="281.5" y1="210.0762" y2="210.0762"/><text fill="#000000" font-family="sans-serif" font-size="13" font-weight="bold" lengthAdjust="spacing" textLength="7" x="167.5" y="204.8135">4</text><text fill="#000000" font-family="sans-serif" font-size="13" lengthAdjust="spacing" textLength="21" x="178.5" y="204.8135">200</text><line style="stroke:#454645;stroke-width:1.0;" x1="150.5" x2="197.5" y1="236.3672" y2="236.3672"/><line style="stroke:#454645;stroke-width:1.0;" x1="197.5" x2="197.5" y1="236.3672" y2="249.3672"/><line style="stroke:#454645;stroke-width:1.0;" x1="156.5" x2="197.5" y1="249.3672" y2="249.3672"/><polygon fill="#454645" points="166.5,245.3672,156.5,249.3672,166.5,253.3672,162.5,249.3672" style="stroke:#454645;stroke-width:1.0;"/><text fill="#000000" font-family="sans-serif" font-size="13" font-weight="bold" lengthAdjust="spacing" textLength="7" x="162.5" y="231.1045">5</text><text fill="#000000" font-family="sans-serif" font-size="13" lengthAdjust="spacing" textLength="21" x="173.5" y="231.1045">add</text><polygon fill="#454645" points="74,281.6582,64,285.6582,74,289.6582,70,285.6582" style="stroke:#454645;stroke-width:1.0;"/><line style="stroke:#454645;stroke-width:1.0;stroke-dasharray:2.0,2.0;" x1="68" x2="139.5" y1="285.6582" y2="285.6582"/><text fill="#000000" font-family="sans-serif" font-size="13" font-weight="bold" lengthAdjust="spacing" textLength="7" x="80" y="280.3955">6</text><text fill="#000000" font-family="sans-serif" font-size="13" lengthAdjust="spacing" textLength="21" x="91" y="280.3955">200</text><path d="M13.5,307.6582 L71,307.6582 L71,316.9492 L61,326.9492 L10,326.9492 L10,311.1582 A3.5,3.5 0 0 1 13.5,307.6582 " fill="#EEEEEE" style="stroke:#454645;stroke-width:1.5;"/><rect fill="none" height="81.873" rx="3.5" ry="3.5" style="stroke:#454645;stroke-width:1.0;" width="311" x="10" y="307.6582"/><text fill="#454645" font-family="sans-serif" font-size="13" font-weight="bold" lengthAdjust="spacing" textLength="16" x="25" y="322.6865">alt</text><polygon fill="#454645" points="161.5,346.2402,151.5,350.2402,161.5,354.2402,157.5,350.2402" style="stroke:#454645;stroke-width:1.0;"/><line style="stroke:#454645;stroke-width:1.0;stroke-dasharray:2.0,2.0;" x1="155.5" x2="281.5" y1="350.2402" y2="350.2402"/><text fill="#000000" font-family="sans-serif" font-size="13" font-weight="bold" lengthAdjust="spacing" textLength="7" x="167.5" y="344.9775">7</text><text fill="#000000" font-family="sans-serif" font-size="13" lengthAdjust="spacing" textLength="21" x="178.5" y="344.9775">404</text><polygon fill="#454645" points="74,377.5313,64,381.5313,74,385.5313,70,381.5313" style="stroke:#454645;stroke-width:1.0;"/><line style="stroke:#454645;stroke-width:1.0;stroke-dasharray:2.0,2.0;" x1="68" x2="134.5" y1="381.5313" y2="381.5313"/><text fill="#000000" font-family="sans-serif" font-size="13" font-weight="bold" lengthAdjust="spacing" textLength="7" x="80" y="376.2686">8</text><text fill="#000000" font-family="sans-serif" font-size="13" lengthAdjust="spacing" textLength="21" x="91" y="376.2686">404</text><!--SRC=[TO-z3i8m38HtFqMOWA6agfWOM1XWO4285p2fHIFoKne7WH3lJjg2G20swtp-pZUicEimax8sw3XQCr7Uoa2dI4vHLceyD6W1CB9tqUwfwKPKhC_89Bm36715bWJxAy32Q7Ayskqs8fkBJOA6cLWIIpG6zlu2DJQibQvJMh_-LGe0w8OFXAf87TTUeTb6Gs4q_hOKNOneQmHvIsdtzBJXtbM8x8qgylm7ZsNvqfBuBj6xoPMYPVq1JlCf_BbkLy_h1m00]--></g></svg>